<?xml version="1.0" standalone="no"?>
<!DOCTYPE svg PUBLIC "-//W3C//DTD SVG 1.1//EN" "http://www.w3.org/Graphics/SVG/1.1/DTD/svg11.dtd" >
<svg xmlns="http://www.w3.org/2000/svg" xmlns:xlink="http://www.w3.org/1999/xlink" version="1.1">
<metadata>
Created by FontForge 20170731 at Sun Dec  3 12:10:45 2023
 By Aleksey,,,
Copyright (c) 2021 Blankids Studio - Viet hoa boi STYLEno.1 Fonts
</metadata>
<defs>
<font id="SVN-Diamonda-Regular" horiz-adv-x="458" >
  <font-face 
    font-family="SVN-Diamonda"
    font-weight="400"
    font-stretch="normal"
    units-per-em="2048"
    panose-1="2 0 0 0 0 0 0 0 0 0"
    ascent="1638"
    descent="-410"
    x-height="336"
    cap-height="1513"
    bbox="-483 -774 2566 2083"
    underline-thickness="102"
    underline-position="-307"
    unicode-range="U+000D-FB02"
  />
<missing-glyph horiz-adv-x="1024" 
d="M102 0v846h820v-846h-820zM205 102h614v641h-614v-641z" />
    <glyph glyph-name="uniE03A" unicode="aa" horiz-adv-x="1316" 
d="M1077 301q17 0 29 -11t12 -28q0 -10 -6 -22q-57 -96 -57 -179q0 -53 51 -53q50 0 127 46.5t130.5 92.5t100.5 93q1 1 6 6.5t9 9t10 8.5t11.5 7.5t10.5 2.5q21 0 21 -14q0 -10 -7.5 -22.5t-13.5 -16.5q-40 -40 -84.5 -79.5t-105.5 -87t-121.5 -76.5t-105.5 -29
q-52 0 -84.5 34t-32.5 93q0 51 20 119h-4q-6 0 -10 -2.5t-7.5 -7.5t-6.5 -7l-78 -69t-78 -68q-44 -39 -80 -39q-19 0 -30 16.5t-11 44.5q0 15 3.5 28.5t11.5 34.5t10 26q-7 0 -13 -2.5t-14.5 -8.5t-9.5 -6q-9 -6 -39 -27.5t-46.5 -31.5t-46.5 -20.5t-59 -10.5q-42 0 -69 25
t-27 75q0 3 1 9t1 8q0 9 -8 14q-48 -33 -133 -104t-104 -86q-20 -17 -46 -17q-22 0 -36.5 15t-14.5 41q0 4 4 20q42 179 207 277q39 22 70 22q44 0 88 -47q8 -9 22.5 -12.5t26 -3.5t20.5 -7.5t9 -23.5q0 -18 -15.5 -58t-15.5 -59q0 -33 35 -33q46 0 150.5 64t133.5 100
q25 30 64 54t74 24q59 0 84 -76q14 2 32.5 18.5t34.5 16.5zM397 221q-35 41 -61 41q-14 0 -43 -18q-104 -66 -152 -176q0 -1 -4 -8.5t-4 -12.5q0 -6 6 -12q126 91 258 186zM778 88q95 59 176 131q9 9 9 17q0 10 -12.5 16t-26.5 6q-40 0 -83 -59t-63 -111z" />
    <glyph glyph-name="uniE03C" unicode="ch" horiz-adv-x="1165" 
d="M377 225q-13 0 -20 12t-9.5 26t-10.5 26t-22 12q-15 0 -30 -10q-55 -39 -90 -103.5t-35 -132.5q0 -11 5.5 -14.5t18.5 -3.5q25 0 86 26q18 11 35.5 23t38 28.5t30.5 25.5t35.5 31.5t30.5 27.5q36 32 74 70t63.5 65.5t67.5 78.5t57.5 70.5t64 81t58.5 74.5
q71 91 182 290.5t181 289.5q1 1 7 8.5t10 11.5t11 11.5t13 11.5t13.5 7t14.5 3q16 0 25.5 -11.5t9.5 -27.5q0 -15 -12 -31q-39 -48 -96 -142t-78 -124q-54 -74 -102 -174q-204 -406 -306 -643q33 31 85 81.5t65 63.5q1 1 21 20.5t28 26t26.5 19.5t34.5 18.5t33 5.5
q25 0 42.5 -22t17.5 -58q0 -13 -5.5 -56.5t-5.5 -65.5q0 -60 33 -60q76 0 242 152q30 30 45 30q20 0 20 -14q0 -29 -96 -107t-135 -100q-41 -24 -88 -24q-107 0 -107 147l7 35v16q0 11 -7 25v8l-2 2q-8 0 -15 -6t-14.5 -16t-11.5 -13q-162 -119 -290 -286q-3 -3 -9.5 -12
t-11 -14t-11.5 -10t-14 -5q-26 0 -26 34q0 14 5 32t12.5 38.5t8.5 24.5q15 41 32 81.5t41.5 93t35.5 76.5t44.5 91.5t39.5 79.5q18 42 18 55l-2 -6q-8 -5 -14 -12t-12 -16t-10 -13q-135 -182 -369 -385q-117 -103 -203 -103q-44 0 -70 27.5t-26 77.5q0 57 29 125.5t82.5 121
t113.5 52.5q39 0 70 -30t31 -75q0 -17 -7.5 -31t-21.5 -14z" />
    <glyph glyph-name="uniE03E" unicode="ee" horiz-adv-x="780" 
d="M594 131q0 -27 21.5 -41t50.5 -14q61 0 135 46t125 101q1 1 9.5 12.5t14.5 18t15 13.5t16 7q14 0 14 -12q0 -10 -14 -31q-67 -83 -157 -149t-175 -66q-43 0 -76.5 21.5t-46.5 62.5q0 1 -1 6.5t-2 8t-3.5 6.5t-5.5 6q-7 -1 -13 -5.5t-13 -12.5t-11 -11q-43 -37 -73 -60
t-83.5 -46t-103.5 -23q-53 0 -86 27t-33 80q0 154 148 274q45 35 78 35q24 0 42.5 -18.5t18.5 -42.5q0 -54 -56 -106t-116 -77q-18 -7 -29.5 -25.5t-11.5 -39.5q0 -47 55 -47q83 0 188 79.5t150 157.5q25 44 64.5 81.5t83.5 37.5q25 0 40 -16.5t15 -42.5q0 -39 -25 -74
t-51 -53.5t-63 -38.5q-3 -2 -14 -6t-16 -9t-5 -14zM217 201q102 47 105 116q-54 -33 -105 -116zM621 211q77 37 84 100q-67 -45 -84 -100z" />
    <glyph glyph-name="uniE042" unicode="it" horiz-adv-x="727" 
d="M186 -2q-75 0 -75 88q0 28 15 88.5t44.5 118t60.5 57.5q15 0 27 -12t12 -29q0 -10 -6 -22q-4 -8 -21.5 -41.5t-25 -50.5t-16 -46.5t-8.5 -54.5q0 -22 18 -22q6 0 22 8q55 36 93 80q233 253 446 592q1 2 2.5 7.5t3.5 10.5h-8l-12 2h-8q-87 0 -255 -19.5t-255 -19.5
q-88 0 -168 14t-80 46q0 14 11.5 24t25.5 10q11 0 20 -6q74 -47 199 -47q83 0 169.5 6.5t203.5 19.5t167 17q27 2 46 33q97 156 143 248l7 14q6 13 9 17.5t9.5 14t13 13.5t14.5 4q31 0 31 -33q0 -10 -2 -14q-16 -42 -36.5 -88t-46.5 -102t-38 -84q6 -11 16 -11h7
q47 4 138 14t164.5 15.5t141.5 5.5q101 0 172 -35q1 0 7.5 -3.5t9.5 -5t9.5 -5.5t9.5 -7l7 -7t6 -9t2 -10q0 -13 -8.5 -19.5t-20.5 -6.5q-8 0 -12 2q-155 43 -295 43q-53 0 -160.5 -6.5t-162.5 -6.5q-30 0 -47 -11t-29 -40q-151 -349 -203 -490q-75 -207 -117 -397
q-4 -24 -4 -49v-22q0 -22 -0.5 -30.5t-3 -22.5t-9.5 -19.5t-19 -5.5q-41 0 -41 84q0 98 44.5 257.5t91.5 280t101 242.5q15 34 15 64q-15 -22 -55 -84t-64 -94q-17 -19 -146 -175.5t-202 -234.5q-40 -43 -95 -43zM299 434q-22 0 -33.5 16t-11.5 39q0 30 17.5 55t43.5 25
q45 0 45 -49q0 -31 -18.5 -58.5t-42.5 -27.5z" />
    <glyph glyph-name="uniE045" unicode="ll" horiz-adv-x="714" 
d="M606 -315q-26 0 -40.5 35t-14.5 69q0 273 225 854q14 27 8 51q-6 -9 -53.5 -79.5t-57.5 -85.5t-51.5 -76t-57.5 -84t-52 -74.5t-59.5 -83t-55 -73t-61.5 -79.5q-79 -104 -137 -104q-39 0 -57.5 30t-18.5 74q0 62 27 156t80 215t80.5 179.5t78.5 160.5q1 1 15 29
t23.5 46.5t28.5 54.5t34.5 62t36 60t38.5 57.5t36.5 45.5t35.5 33t31 11q13 0 22.5 -10.5t9.5 -23.5t-16 -45q-128 -286 -336 -621q-97 -153 -151 -399q-9 -39 2 -60q26 0 55 29q47 42 117 141q217 309 616 926q32 46 53 53q6 2 11 2q16 0 26 -12t10 -27q0 -23 -28 -73
q-187 -348 -285 -631q-97 -280 -129 -430q-24 -122 -24 -187q0 -15 4 -45t4 -45q0 -26 -23 -26z" />
    <glyph glyph-name="uniE048" unicode="oo" horiz-adv-x="880" 
d="M1096 254q0 -20 -31 -39q-93 -49 -178 -49q-45 0 -88 14q-16 4 -19 4q-18 0 -24 -28q-16 -61 -59.5 -112.5t-102.5 -51.5q-34 0 -54 27t-20 65t14 71t43.5 73.5t36.5 52.5q17 30 17 43q0 24 -43 24q-133 0 -242 -84q-18 -12 -18 -33q-3 -41 -24.5 -91.5t-60.5 -90
t-81 -39.5q-30 0 -51 21t-21 53q0 76 32 144.5t91 115.5q25 21 47 21q16 0 29.5 -23t25.5 -23l15 5q127 65 258 65q103 0 108 -45q7 -53 77 -93t128 -40t117 35q3 2 14.5 9.5t22.5 13t20 5.5q8 0 14.5 -5.5t6.5 -14.5zM270 293q-54 -39 -79 -92t-33 -127q47 19 80.5 75.5
t33.5 118.5q0 17 -2 25zM686 242q-1 -1 -10.5 -15.5t-17.5 -26.5t-20 -31t-20 -34t-14 -30.5t-6 -24.5q0 -14 14 -14q13 0 19 6q71 57 71 141q0 20 -16 29z" />
    <glyph glyph-name="uniE04C" unicode="ss" horiz-adv-x="653" 
d="M600 98q23 12 44.5 27.5t47 37t37.5 30.5l27 24q28 24 52 40.5t40 16.5q8 0 14 -6t6 -14q0 -22 -41 -47q-161 -119 -196 -150q-34 -29 -39 -69q-5 -42 -24.5 -83t-57 -72.5t-84.5 -31.5q-55 0 -55 45q0 11 2 21.5t7.5 21t10 18.5t14 18t14.5 15.5t17 15t16 13t16.5 13
t14.5 10.5q33 24 33 94q0 40 -18 137l-2 13l-2 2q-4 0 -9 -6.5t-9.5 -14.5t-6.5 -10q-123 -111 -209 -172q-26 -18 -29 -53q-4 -49 -12.5 -91.5t-25.5 -87.5t-48.5 -71.5t-74.5 -26.5q-41 0 -79 33.5t-38 75.5q0 47 41.5 89t89.5 70q74 45 74 125q0 17 -2 50.5t-2 52.5
q0 31 3.5 64t13.5 74.5t33 68t56 26.5q20 0 35.5 -15.5t15.5 -35.5q0 -41 -51 -92q-27 -27 -27 -101q0 -15 1.5 -47t1.5 -49q26 8 104 69.5t129 106.5q32 28 37 64q4 23 21.5 48.5t39.5 25.5q16 0 25.5 -10.5t9.5 -24.5q0 -12 -6 -21q-18 -30 -18 -67q0 -29 3.5 -59.5
t9.5 -68t9 -59.5zM147 -49q-90 -68 -127 -103q-14 -14 -14 -30q0 -18 16 -31.5t37 -13.5q29 0 50 32t29 70t9 76z" />
    <glyph glyph-name="uniE04D" unicode="th" horiz-adv-x="1081" 
d="M201 14q-34 0 -50 28t-16 67q0 40 19 118q44 164 168 463q16 37 16 55q-105 -18 -244 -18q-168 0 -168 64q0 15 12 26.5t27 11.5q13 0 21 -8q28 -25 65 -32t94 -7h23q33 0 94.5 5t85.5 6q5 0 9 0.5t7 3t5 3.5t4 5.5t2.5 5.5t2.5 7l3 5q56 126 104 219q33 64 66 64
q15 0 27 -11.5t12 -25.5t-10 -31q-29 -45 -109 -200q-8 -12 -8 -27v-6q24 2 102.5 10t120.5 10q58 2 94 64q2 3 7 12q25 43 45 75.5t56.5 87t67.5 85.5t52 31q17 0 29 -12t12 -29t-15 -35q-49 -68 -135 -244q8 -8 25 -8h14q29 2 143 12t188.5 14.5t149.5 4.5h13
q76 0 119 -9.5t75 -44.5q10 -10 10 -26q0 -13 -7.5 -23t-18.5 -10q-12 0 -23 8q-31 21 -70.5 32t-69.5 13t-79 2l-37 -2h-18q-79 0 -225 -10t-183 -12q-41 -3 -55 -41q-24 -59 -123.5 -293.5t-146.5 -364.5q-13 -30 -13 -47q8 4 14.5 10t13.5 14.5t11 12.5q9 9 47 49.5
t53 56t46 45.5t56.5 52t53.5 43q56 39 84 39q23 0 37 -23.5t14 -56.5q0 -28 -14 -79.5t-14 -76.5q0 -32 28 -32q43 0 107 45q64 40 123 90q1 1 8.5 7t13.5 10.5t14.5 8.5t14.5 4q16 0 16 -10q0 -15 -30 -45q-118 -111 -244 -158q-28 -8 -39 -8q-39 0 -64.5 28t-25.5 73
q0 15 4.5 39t5.5 34q0 1 4 18t4 25q0 7 -4 19q-29 -11 -69 -47q-71 -62 -190 -196t-134 -150q-21 -21 -35 -21q-15 0 -27 13.5t-12 27.5q0 5 4 21q52 161 167 448.5t141 357.5q-16 -7 -35 -41q-169 -274 -273 -423q-114 -166 -180 -230q-35 -35 -61 -35zM197 100
q0 -28 14 -28q26 0 148 164.5t234.5 340t115.5 205.5q-40 -5 -120 -12t-120 -12q-39 -5 -53 -41q-53 -115 -136 -335t-83 -282z" />
    <glyph glyph-name="uniE055" unicode="ah" horiz-adv-x="1429" 
d="M477 279q0 -18 -14 -46q-39 -98 -39 -135t25 -37q36 0 120 84q106 116 234 289q276 378 477 699q31 55 63 55q14 0 26.5 -13t12.5 -26q0 -6 -2.5 -13.5t-5 -12t-7.5 -12.5t-7 -11q-84 -135 -168 -299.5t-139 -287t-140 -320.5l-6 -15q-4 -12 -4 -18v-8q13 2 25 18
q190 190 274 190q58 0 58 -104v-20q0 -54 14.5 -73.5t62.5 -19.5q64 0 118.5 25.5t113.5 69.5q1 1 7.5 6t12 9.5t13.5 9.5t15 8t13 3q15 0 15 -12q0 -18 -15 -33q-165 -161 -338 -161q-57 0 -89 34t-32 97q0 6 1.5 21t1.5 22q0 34 -15 34q-4 0 -12 -4q-28 -17 -58 -40
t-49.5 -39t-52.5 -48.5t-45 -44t-50 -51.5t-44 -47q-6 -6 -14 -20t-16 -22.5t-21 -8.5q-18 0 -27.5 10t-9.5 23q0 12 10 47q25 77 58.5 160.5t78 186.5t66.5 157q14 28 14 36v9q-9 -7 -35 -43q-176 -246 -325 -416q-2 -2 -13 -14.5t-14.5 -17t-15 -17t-17.5 -17.5t-18 -15.5
t-20 -15.5t-20.5 -12.5t-23 -11t-23 -6t-24.5 -2.5q-41 0 -61.5 36t-20.5 91q0 41 13 88h-7q-5 0 -9 -2.5t-8 -8t-5 -6.5q-110 -119 -145 -153q-1 -1 -8.5 -8t-10.5 -9.5t-10.5 -8.5t-12.5 -8.5t-12.5 -6t-14.5 -5t-15 -1.5q-25 0 -41.5 17.5t-16.5 47.5q0 9 4 25
q37 157 170 254q38 28 76 28q51 0 98 -59q28 14 39 14q15 0 26 -12t11 -26zM344 254q0 12 -11.5 19.5t-21.5 7.5q-37 0 -87.5 -59.5t-67.5 -94.5q-15 -35 -15 -45v-10q25 17 53 39t44 36.5t48 45.5t42 40q16 11 16 21z" />
    <glyph glyph-name="uniE057" unicode="ck" horiz-adv-x="1046" 
d="M1114 1184q12 0 22.5 -11t10.5 -24q0 -31 -62 -141t-96 -158q-64 -94 -129.5 -218t-99.5 -200.5t-104 -238.5q-11 -26 -17 -39q-10 -20 -4 -35q14 14 62.5 67t70 75.5t61 60t74.5 65.5q2 2 10 8t11.5 8t11 7.5t12 8t12.5 6t14 5t14 3t16 1.5q22 0 35.5 -12t13.5 -27
q0 -21 -29 -30q-24 -7 -48 -19t-41 -22.5t-42.5 -29.5t-37 -29t-40 -34t-37.5 -32q52 -66 76 -85q38 -30 80 -30q56 0 127 46.5t131 102.5q41 41 57 41q15 0 15 -10q0 -16 -23 -39q-202 -202 -328 -202q-72 0 -149 71q-5 4 -11.5 10.5t-9.5 9t-7.5 6.5t-7 5.5t-5.5 2.5t-6 1
q-17 0 -72 -66t-88 -112q-32 -45 -55 -45q-14 0 -22.5 11t-8.5 24q0 21 27 82l129 294q-15 -2 -29 -20q-241 -283 -348 -283q-49 0 -84 35t-35 96q0 131 113 213q36 25 67 25q36 0 67.5 -28t31.5 -72q0 -21 -11 -36.5t-28 -15.5q-27 0 -27 31l4 19q0 16 -4 23t-20 7
q-22 0 -35 -10q-86 -75 -86 -172q0 -53 45 -53q136 0 467 455q8 11 12 16q19 27 74 145q138 286 262 459q7 11 22 22t29 11z" />
    <glyph glyph-name="uniE059" unicode="eh" horiz-adv-x="1167" 
d="M1061 84q-82 0 -120 52t-58 153q-124 -70 -297 -303q-1 -1 -7.5 -11t-9.5 -13.5t-9.5 -8t-12.5 -4.5q-14 0 -22.5 9.5t-8.5 21.5q0 19 6 34q13 43 29.5 87t42.5 108t35 86q12 30 12 39q0 8 -2 14q-184 -196 -322 -285q-61 -40 -120 -40q-43 0 -72 30t-29 76t31.5 113
t82 118.5t95.5 51.5q26 0 45 -14.5t19 -39.5q0 -13 -11 -39q-57 -118 -159 -131q-33 -5 -33 -65q0 -41 39 -41q32 0 94 37q122 82 271.5 231.5t203.5 263.5q182 390 311 525q35 39 70 39q29 0 29 -33q0 -95 -273 -465q-69 -92 -124.5 -210t-118.5 -280q-9 -18 -9 -26v-4
q7 0 17 10q27 35 61.5 68.5t83 76.5t68.5 62q22 18 39 18t27.5 -8t15 -22.5t5.5 -26.5t1 -29l-2 -26q0 -136 100 -136q94 0 244 103q32 24 57 24q6 0 6 -4q0 -10 -22 -32q-83 -75 -120 -99q-86 -55 -179 -55zM215 244q76 42 76 94v4q-56 -49 -76 -98z" />
    <glyph glyph-name="uniE05D" unicode="il" horiz-adv-x="653" 
d="M498 -328q-52 0 -52 131q0 39 5 82t11 76t18.5 80t20 71.5t23.5 74.5t21 67q-20 -19 -84 -85.5t-111.5 -104t-103.5 -62.5q-27 -12 -51 -12q-39 0 -66 27.5t-27 70.5q0 60 22 116t62 126q15 24 37 24q18 0 29.5 -13t11.5 -28q0 -25 -22 -65q-60 -120 -60 -170
q0 -31 25 -31q8 0 15 1t15 4.5t13 5.5t14 8t12 7.5t12.5 8.5t10.5 8q109 78 213.5 211.5t153.5 257.5q19 47 53.5 124t86.5 184t104.5 181t84.5 74q17 0 27 -10.5t10 -26.5q0 -8 -8 -32q-91 -255 -248 -478q-49 -69 -78 -147q-6 -15 -30 -80t-32.5 -87.5t-28 -78t-29.5 -89
t-23.5 -80t-22.5 -87.5q-16 -70 -16 -170l4 -20q0 -6 1 -17t1 -16q0 -31 -24 -31zM297 444q-22 0 -33.5 16t-11.5 38q0 28 15.5 50.5t37.5 22.5q23 0 35 -16t12 -37q0 -28 -15.5 -51t-39.5 -23z" />
    <glyph glyph-name="uniE063" unicode="oy" horiz-adv-x="1026" 
d="M580 63q6 -6 18 -6q26 0 87.5 52t100.5 92.5t74 79.5q21 24 41 24q43 0 43 -53q0 -61 -37.5 -139.5t-42.5 -116.5q123 97 314 252q35 26 47 26q7 0 12.5 -5t5.5 -13q0 -18 -41 -49q-70 -51 -190 -152t-162 -135q-31 -24 -49 -65q-27 -59 -58.5 -121t-85 -149.5
t-105 -152.5t-116 -112t-121.5 -47q-53 0 -53 51q0 46 53 124.5t139 167.5t142.5 143t114.5 106q28 28 34 47q9 23 30 76t35.5 92.5t25.5 77.5q4 8 4 16q0 2 -4 10q-18 -13 -60 -59q-132 -143 -209 -143q-30 0 -46.5 21.5t-16.5 53.5q0 27 6 41q14 37 53 115t53 121
q7 25 7 33q0 28 -33 28q-34 0 -72.5 -12t-61.5 -24t-59 -33q-18 -10 -28 -17.5t-18.5 -20t-8.5 -28.5q0 -9 2 -25t2 -24q0 -16 -6 -31q-19 -59 -68 -121.5t-100 -62.5q-35 0 -57.5 32.5t-22.5 80.5q0 119 94 213q32 32 60 32q13 0 33 -10q6 -4 16 -4q13 0 33 16
q50 31 128.5 62t137.5 31q92 0 92 -87q0 -50 -18 -101.5t-47.5 -110t-40.5 -87.5zM268 291q-95 -79 -104 -199q0 -24 16 -24q5 0 21 8q84 79 84 153q0 28 -17 62zM307 -670q53 3 127.5 73t138 168.5t95.5 186.5q-20 -20 -83 -82t-91 -90.5t-72.5 -79.5t-77.5 -98
q-33 -48 -37 -78z" />
    <glyph glyph-name="uniE067" unicode="st" horiz-adv-x="741" 
d="M1556 715q0 -27 -36 -27q-9 0 -45 6q-92 19 -199 19q-50 0 -105.5 -3.5t-125.5 -10.5t-105 -9q-20 -2 -31 -7t-16 -21q-214 -503 -305 -824q-15 -62 -15 -82q0 -39 17 -61q11 -12 7 -27.5t-24 -15.5q-38 0 -58.5 43.5t-20.5 89.5q0 68 36 178q79 245 275 707
q-12 -1 -47 -8t-53 -7h-23q-29 0 -53 -12.5t-38 -27t-36 -42.5q-128 -166 -252 -319q-14 -19 -17 -32.5t-3 -41.5l4 -37q0 -79 -24.5 -141.5t-78.5 -122.5q-53 -57 -110 -57q-28 0 -46 18.5t-18 48.5q0 76 148 258q30 38 30 72q0 20 -17 64t-17 67q0 45 26 86t70 41
q19 0 33 -12.5t14 -32.5q0 -19 -10.5 -39.5t-22.5 -30.5q-20 -17 -20 -34q0 -19 16 -41q50 66 144 187.5t118 152.5h-6l-10 2h-6q-17 0 -35 -2t-38.5 -6t-31.5 -5q-123 -14 -209 -14q-29 0 -46 1t-43 5.5t-39 17t-13 31.5q0 15 11 28t24 13q8 0 20 -8q24 -19 56 -28.5
t53.5 -11t62.5 -1.5q52 0 148 10t115 11q5 0 9.5 1.5t9 4t7.5 4t7.5 6l5.5 5.5t6.5 7t5.5 7q143 171 231 256q1 1 21.5 21t31.5 29.5t30.5 20t35.5 10.5q28 0 43.5 -22t15.5 -49q0 -19 -20 -92q-6 -22 -14.5 -46.5t-19.5 -55t-17 -48.5q30 4 102 15.5t114.5 18t104.5 12
t113 5.5q27 0 56 -2.5t63.5 -8.5t56.5 -20t22 -34zM666 694h20q132 0 152 49q58 141 73 189q0 2 3 10.5t2.5 11.5t-3.5 13q-33 -29 -69 -66.5t-58 -63.5t-62.5 -74.5t-57.5 -68.5zM201 117q-5 -7 -30.5 -40t-35 -46t-27 -40t-29 -50.5t-20.5 -49.5q57 9 99 74.5t43 151.5z
" />
    <glyph glyph-name="uniE068" unicode="tt" horiz-adv-x="749" 
d="M1028 1055q15 0 26 -11.5t11 -25.5t-8 -25q-49 -77 -113 -209q14 -4 39 -4h78q74 0 121.5 -2t108 -12.5t95.5 -30.5q37 -19 37 -37q0 -26 -24 -26q-13 0 -33 8q-139 43 -426 47q-13 0 -21.5 -6t-11 -11t-8.5 -18q-6 -14 -30 -66t-32 -70t-29 -64.5t-31 -70.5t-27 -65.5
t-28 -71.5t-24 -67t-24 -72q-4 -12 -17 -54t-18 -58t-15.5 -51.5t-16 -58t-12.5 -53t-11 -58.5q-15 -102 -15 -123v-15l6 -26q0 -15 -0.5 -22t-7.5 -16t-20 -9q-16 0 -28 13.5t-17.5 34t-7.5 38.5t-2 34l2 17v8q7 79 28.5 171t38 145.5t56 166t49.5 142.5q-18 -12 -41 -45
q-105 -141 -189.5 -240.5t-181.5 -181.5q-31 -25 -64 -25q-37 0 -59 34.5t-22 86.5q0 98 56.5 273.5t121.5 332.5q25 55 32 86q-47 -3 -150 -11t-182.5 -12.5t-152.5 -4.5h-4q-31 0 -49.5 1t-47 6t-43 17.5t-14.5 32.5q0 15 10.5 28t22.5 13q5 0 17 -8q37 -35 114 -35
q186 0 479 22q29 3 41 29q8 15 115 219q31 62 62 62q16 0 28.5 -13.5t12.5 -27.5q0 -18 -25 -58q-59 -100 -102 -192q5 -5 9.5 -6.5t13 -0.5t9.5 1q250 18 332 18q15 0 24.5 5.5t12.5 10.5t10 19q46 96 96 178q1 1 6 10t7.5 13t8.5 12.5t10.5 13.5t11 10.5t13 8t13.5 2.5z
M817 723q-10 2 -24 2q-58 -4 -88 -4l-175 -12q-30 0 -88 -4q-17 -1 -24 -8.5t-15 -24.5q-148 -318 -215 -600q-14 -63 -14 -90q0 -45 23 -45t76.5 47t80.5 79q257 302 434 596q25 44 29 64z" />
    <glyph glyph-name="uniE070" unicode="ak" horiz-adv-x="1288" 
d="M1503 256q0 -26 -60 -76.5t-120 -89t-84 -49.5q-67 -31 -127 -31q-84 0 -170 82q-22 22 -43 -2q-78 -86 -111 -133q-1 -1 -5 -7t-6 -8.5t-6 -7t-7 -6.5t-7.5 -4t-8.5 -2q-14 0 -22.5 10t-8.5 23q0 10 2 16q136 347 199 500q-9 -3 -16 -8.5t-10 -9.5t-7.5 -11.5t-5.5 -9.5
q-108 -154 -203 -262q-29 -32 -43 -46.5t-46 -42.5t-63.5 -41t-64.5 -13q-60 0 -84.5 48t-24.5 134q-8 0 -13.5 -3.5t-11 -11t-6.5 -8.5q-111 -129 -153 -168q-32 -32 -55 -32q-28 0 -43 22.5t-15 52.5q0 58 32.5 129t88.5 123t113 52q55 0 84 -56q7 -13 13 -15.5t28 -2.5
q37 0 37 -33q0 -15 -10.5 -54.5t-10.5 -56.5q0 -57 41 -57q36 0 88 40.5t76 70.5q71 80 135.5 167.5t163.5 232.5t123 179q32 46 82 137t73 127q63 97 76 117q29 43 60 43q18 0 31.5 -12t13.5 -29q0 -12 -9 -24q-143 -192 -262 -426t-252 -547q-12 -24 -12 -51q28 27 91 86
t95 90q12 12 36.5 33.5t66 48t65.5 26.5q12 0 21.5 -10t9.5 -22q0 -14 -12 -23q-27 -19 -105 -69t-118 -82q-24 -19 -27 -29q44 -55 79.5 -80t74.5 -25q124 0 301 177q1 1 6.5 7t10 10t11 9.5t12.5 8.5t11 3q6 0 12 -5.5t6 -12.5zM133 59q16 6 51 37q21 18 42.5 40t49 52
t39.5 43q2 2 7.5 6.5t8 7t5 8t-1.5 9.5q-18 27 -39 27q-28 0 -66 -42.5t-61.5 -84.5t-30.5 -62q-9 -27 -4 -41z" />
    <glyph glyph-name="uniE072" unicode="ct" horiz-adv-x="729" 
d="M565 -102q0 37 4.5 76.5t8 65.5t15.5 71t16 59t21 67t19 60q-16 -15 -70 -69.5t-79.5 -78.5t-72 -60.5t-89.5 -59.5q-64 -35 -113 -35t-77.5 34t-28.5 87q0 88 63.5 173t149.5 85q32 0 51.5 -16.5t19.5 -51.5q0 -28 -11 -60t-30 -32q-9 0 -17.5 8.5t-8.5 16.5t8 25t8 24
q0 18 -18 18q-15 0 -27 -8q-117 -80 -117 -199q0 -47 43 -47q121 0 334 244q4 4 20 24t25 29q122 117 193 326q-20 4 -31 4q-13 0 -27 -2t-31.5 -5.5t-27.5 -4.5q-20 -3 -72.5 -11t-80.5 -11.5t-71 -9t-81.5 -7.5t-75.5 -2q-32 0 -69 5t-73 22t-36 42q0 13 11.5 24t25.5 11
q12 0 22 -10q48 -53 134 -53q31 0 65 2t58 4t65 7t57 7.5t64.5 10t58.5 8.5q15 3 44 5t51.5 6t39.5 13t28 27t20.5 46t15.5 40q98 187 155 264q41 55 70 55q20 0 30.5 -11.5t10.5 -29.5q0 -8 -4 -20q-56 -143 -147 -301q-2 -3 -9 -13t-11 -18.5t-5 -17.5q31 2 87 7t101.5 8
t85.5 3q85 0 154 -14q30 -7 63 -26.5t33 -43.5q0 -12 -9 -21.5t-21 -9.5q-9 0 -20 4t-25.5 11t-16.5 8q-88 35 -240 35h-51q-164 0 -198 -45q-87 -115 -141.5 -248.5t-110.5 -323.5q-31 -105 -31 -192v-29q0 -32 16 -43q9 -9 9 -18q0 -12 -12 -22.5t-27 -10.5q-23 0 -37 21
t-18.5 45.5t-4.5 52.5z" />
    <glyph glyph-name="uniE074" unicode="ek" horiz-adv-x="1073" 
d="M1276 274q6 0 10 -6.5t4 -11.5q0 -10 -10 -20q-72 -83 -193.5 -168.5t-205.5 -85.5q-80 0 -144 67q-1 1 -5 7t-9 9.5t-12 4.5q-99 -115 -144 -220q-1 -1 -5 -13t-7 -17.5t-8 -14t-12 -12.5t-15 -4q-24 0 -24 39q0 33 16.5 95.5t35.5 116t39.5 109t22.5 60.5q13 30 13 49
v8q-38 -47 -78 -90t-96.5 -94.5t-114.5 -83t-105 -31.5q-54 0 -92.5 42.5t-38.5 96.5q0 55 28 117t78 106t105 44q28 0 48 -19t20 -47q0 -57 -58.5 -113.5t-119.5 -78.5q-21 -8 -21 -25q0 -25 17 -40t38 -15q74 0 236 162q198 184 256 307q156 371 279 567q2 4 12 22.5
t17.5 30.5t18.5 27t24 23t26 8q15 0 26 -12t11 -27q0 -62 -64.5 -195.5t-128 -235.5t-115.5 -177q-39 -53 -55 -99q-9 -24 -40.5 -105t-50.5 -135t-34 -108h6q4 0 7 2t5.5 6t4.5 6q53 62 156.5 162.5t136.5 100.5q13 0 22.5 -10.5t9.5 -22.5q0 -22 -22 -31
q-25 -12 -52 -30.5t-43 -32.5t-46 -42t-41 -38q-13 -13 -13 -23q0 -2 9 -20q38 -68 106 -68q26 0 47 8q35 12 67.5 28.5t69 43t55.5 40.5t63 50.5t54 44.5q18 12 23 12zM303 291q-85 -53 -90 -109q62 35 90 109z" />
    <glyph glyph-name="uniE07E" unicode="op" horiz-adv-x="1040" 
d="M143 76q0 -29 25 -29q18 0 33 19q44 46 66 91t22 103l-2 19q0 35 9.5 55.5t37.5 42.5q58 45 138 86t134 41q43 0 65.5 -29t22.5 -78q0 -25 -3.5 -48.5t-11.5 -50.5t-13.5 -42.5t-18 -47t-16.5 -40.5q-15 -35 -15 -57q33 40 48 57t54 57t72 59t62 19q36 0 62 -27t26 -69
q0 -21 -4 -43t-12 -52t-11 -42q18 -7 31 -7q22 0 60 21q28 16 58 39t49 40.5t51.5 49t47.5 45.5q16 16 31 16q14 0 14 -12q0 -14 -10 -24q-55 -57 -76.5 -78t-68.5 -60t-90 -63q-49 -29 -101 -29q-69 0 -69 68q0 14 11 58t11 65q0 34 -24 34q-6 0 -12 -2.5t-10 -5.5
t-11 -8.5t-10 -7.5q-100 -71 -210.5 -237.5t-158.5 -299.5q-97 -266 -147 -368q-15 -35 -31 -35q-27 0 -27 37q0 19 23 88q42 110 164 420l165 417q3 7 16 40t18.5 48.5t11.5 43t6 49.5q0 30 -27 30q-53 0 -123.5 -39.5t-124.5 -85.5q-14 -12 -14 -34q0 -7 1 -22t1 -25
q0 -120 -113 -228q-28 -28 -75 -28q-35 0 -57.5 28t-22.5 72q0 129 100 229q29 29 57 29q13 0 25 -11.5t12 -27.5q0 -9 -5 -17.5t-10 -13.5t-13.5 -12.5t-10.5 -9.5q-62 -59 -78 -152v-6z" />
    <glyph glyph-name="uniE08B" unicode="at" horiz-adv-x="903" 
d="M244 743q0 13 9 22t21 9q7 0 19 -4q71 -35 172 -35q82 0 168.5 9t196 25t161.5 22q35 3 56 32q30 44 88.5 151t97.5 159q29 43 61 43q17 0 30 -12t13 -27q0 -17 -14 -31q-41 -43 -102 -142.5t-74 -150.5h18q17 0 36 2t42 5.5t35 4.5q30 3 86 8t91 8.5t83.5 6t89.5 2.5
q40 0 83 -4t87.5 -20t44.5 -42q0 -14 -11 -22t-24 -8q-14 0 -34 8q-93 33 -234 33q-75 0 -214.5 -13.5t-174.5 -15.5q-22 -1 -32.5 -10.5t-20.5 -30.5q-83 -176 -183 -422q-113 -282 -153 -448q-1 -5 -7.5 -26.5t-6.5 -33.5q0 -11 8 -31q6 -13 -9.5 -20.5t-27.5 0.5
q-27 19 -27 68q0 36 19 110q12 48 26.5 95.5t34 102t32.5 89.5t39 100.5t36 91.5q4 11 17.5 42t22 53.5t13.5 44.5q-5 -1 -9 -4t-5.5 -5t-4.5 -6.5t-4 -5.5q-132 -189 -311 -397q-30 -35 -48 -54t-54 -54t-69 -52.5t-62 -17.5q-28 0 -44 25.5t-16 68.5q0 16 2.5 34t5 29.5
t8 33t7.5 30.5q-35 -25 -88.5 -81t-87.5 -79q-20 -14 -43 -14q-24 0 -40 15.5t-16 41.5q0 8 2 14q31 167 170 259q29 20 62 20q47 0 84 -43q2 -3 7 -9.5t8 -10t8.5 -7.5t11.5 -6q32 -10 32 -30q0 -9 -10 -29q-34 -64 -55 -164q-7 -28 0 -47q66 0 231 209q207 261 375 520
q9 14 6 23q-63 -6 -175 -21.5t-206 -25t-176 -9.5h-20q-164 0 -164 51zM133 70q36 23 78.5 57t60.5 50.5t70 64.5q-37 26 -49 26q-15 0 -39 -18q-83 -61 -121 -180z" />
    <glyph glyph-name="uniE08F" unicode="et" horiz-adv-x="677" 
d="M520 -94q0 46 4 69q7 47 18.5 98.5t21.5 90t30 97.5t30 87.5t35 95.5t33 88q-21 -17 -45 -55q-30 -45 -62 -92t-91 -123.5t-110.5 -132.5t-108.5 -98.5t-97 -42.5q-35 0 -57.5 27.5t-22.5 60.5q0 25 4 37q10 37 28.5 79t45.5 84.5t64.5 70.5t76.5 28q28 0 47 -14.5
t19 -41.5q0 -55 -55.5 -108t-112.5 -68q-2 -1 -8 -2t-8.5 -2t-6.5 -3.5t-6.5 -6t-3.5 -8.5q-10 -50 -10 -53q0 -27 18 -27q7 0 11 2q27 8 56 29t44.5 36.5t42.5 45.5q70 78 145.5 182t115.5 165t128 199q-10 2 -31 2q-17 0 -34.5 -2t-38.5 -5.5t-31 -4.5q-15 -2 -69 -9
t-78.5 -10t-66 -6t-75.5 -3q-23 0 -36.5 0.5t-38.5 2t-41 5.5t-33.5 10t-26 17t-8.5 26q0 14 10 25.5t25 11.5q11 0 22 -8q64 -45 170 -45q56 0 112 5t136.5 16.5t108.5 14.5q59 9 90 58q36 62 105 173.5t85 137.5q33 55 64 55q17 0 29 -12.5t12 -26.5q0 -16 -10 -34
t-26.5 -38t-17.5 -22q-19 -28 -40.5 -64.5t-33.5 -58t-39 -72.5t-34 -65h20q17 0 33.5 2t36.5 5.5t29 4.5q113 17 237 17q224 0 224 -76q0 -11 -8 -19t-21 -8h-10q-132 37 -326 37q-128 0 -215 -10q-26 -3 -37 -25q-266 -546 -266 -796v-15q0 -49 20 -69q8 -8 8 -17
q0 -10 -10.5 -18t-21.5 -8q-25 0 -40.5 22t-20.5 48.5t-5 56.5zM307 295q-53 -30 -84 -100q66 29 84 100z" />
    <glyph glyph-name="uniE099" unicode="og" horiz-adv-x="1126" 
d="M1319 274q9 0 15.5 -5.5t6.5 -14.5q0 -13 -24 -27q-40 -25 -47 -30l-99 -60q-18 -13 -47 -31q-71 -44 -110.5 -84t-63.5 -106q-22 -60 -59.5 -136t-92.5 -165t-114 -162t-129 -121.5t-133 -48.5q-64 0 -64 55q0 44 43 111q174 268 484 539q34 28 61.5 114t38.5 154l2 6
q0 14 -8 27q-54 -19 -102 -64q-59 -51 -177 -157q-21 -19 -31.5 -28t-33.5 -20.5t-45 -11.5q-28 0 -45 21t-17 57q0 44 26.5 104.5t73 108t93.5 47.5q20 0 41 -6q0 88 -76 88q-56 0 -132 -41.5t-118 -75.5q-62 -51 -71 -106q-10 -62 -66.5 -135.5t-114.5 -73.5
q-46 0 -68 34.5t-22 82.5q0 145 127 239q33 23 58 23q39 0 69 -49q211 155 338 155q59 0 92 -39.5t33 -107.5q0 -78 -33 -78q-9 0 -28.5 8t-22.5 8q-13 0 -33 -20q-76 -72 -86 -160q26 2 86 62l80 67q144 123 219 123q60 0 60 -78q0 -12 -10.5 -64t-10.5 -69q0 -16 10 -16
t25 10q87 53 152 94q1 1 22.5 16t42 26t35.5 11zM328 309q-67 -4 -112.5 -61.5t-45.5 -130.5q0 -49 18 -49t48 30q25 29 43 66t26 62.5t23 82.5zM844 -125q-266 -233 -406 -444q-37 -53 -37 -80q0 -15 15 -15q20 0 60 26t50 36q93 80 187.5 220.5t130.5 256.5z" />
    <glyph glyph-name="uniE0A6" unicode="am" horiz-adv-x="1361" 
d="M963 297q0 10 -11 10q-4 0 -7.5 -2.5t-7 -6.5t-5.5 -5q-136 -106 -236 -252q-1 -1 -7 -11.5t-10 -16t-10.5 -13.5t-13.5 -12t-14 -4q-15 0 -26 13t-11 28t14 57q16 43 37.5 90.5t49.5 104t43 88.5q14 28 14 43v4q-8 -3 -14 -7.5t-14 -13.5t-9 -10q-34 -36 -74 -80.5
t-65.5 -75t-73 -87t-66.5 -79.5q-2 -2 -15.5 -19t-21 -24.5t-21 -19.5t-27 -17.5t-27.5 -5.5q-20 0 -32.5 18.5t-12.5 49.5q0 30 16 88q12 36 12 43q0 8 -2 12q-137 -132 -170 -161q-18 -15 -41 -15q-21 0 -36 13.5t-15 37.5q0 9 2 15q42 189 189 258q32 14 55 14
q37 0 72 -35q9 -9 29.5 -12.5t34.5 -9.5t14 -23q0 -16 -13 -35q-63 -91 -84 -188q41 19 90 80q9 10 27 31.5t27 31.5l106 127q9 10 26.5 32t26.5 32q58 69 107 110q31 27 61 27q18 0 29.5 -14t11.5 -41q0 -31 -18 -72q-55 -128 -66 -160q6 6 43.5 44.5t53 53t47 38.5
t59.5 38q15 9 31 9q23 0 38 -16t15 -40q0 -37 -32.5 -97t-33.5 -97q4 3 28 22t31 24.5t28 21t33.5 23.5t30.5 18.5t34 17.5q23 10 41 10q25 0 39 -16t14 -45q0 -16 -10 -54t-10 -57q0 -31 24 -31q80 0 236 150q30 30 43 30q6 0 10 -6t4 -12q0 -14 -29 -43q-1 -1 -19.5 -17.5
t-34.5 -30t-41.5 -34.5t-49.5 -37t-50 -31t-51 -23.5t-45 -8.5q-33 0 -53 29t-20 75q0 11 10 88q-22 0 -57 -22q-29 -18 -79 -57t-65 -50q-32 -24 -51 -24q-18 0 -29.5 14.5t-11.5 30.5q0 25 8.5 52.5t23 59t19.5 45.5q11 22 11 25zM145 94q33 15 99 72t90 90q-16 4 -25 4
q-50 0 -97.5 -48t-66.5 -118z" />
    <glyph glyph-name="uniE0AA" unicode="ett" horiz-adv-x="1101" 
d="M1315 803q59 10 160 10q25 0 53.5 -2.5t66 -10t62 -25t24.5 -42.5q0 -13 -7.5 -23t-18.5 -10q-2 0 -17 5q-73 36 -184 36q-3 0 -156 -6q-21 0 -32 -8.5t-19 -28.5q-181 -415 -252 -809q-6 -30 -6 -65q0 -9 7.5 -39.5t7.5 -44.5q0 -15 -8.5 -24t-22.5 -9q-27 0 -44.5 43
t-17.5 78q0 53 27 168q47 200 186 588q15 35 15 49v10q-272 -462 -318 -537q-21 -33 -35 -52.5t-42.5 -55.5t-56.5 -55t-52 -19q-31 0 -49.5 30.5t-18.5 74.5q0 18 2 28q6 40 17 87.5t18 72t26.5 85.5t22.5 71q0 2 4.5 12t4.5 16q0 7 -3 13q-17 -24 -57.5 -81.5t-62 -88.5
t-56 -76t-65.5 -82q-29 -34 -53.5 -57.5t-66.5 -45.5t-85 -22q-51 0 -83 35t-32 92q0 88 52 175t124 116q15 6 29 6q27 0 46.5 -19.5t19.5 -46.5q0 -16 -4 -24q-47 -122 -150 -174q-37 -18 -37 -43q0 -27 15 -43.5t36 -16.5q28 0 62 18.5t55 39.5q58 58 120 141t94 132
t105 169.5t89 145.5q4 4 4 8q0 2 -4 10q-39 -1 -130.5 -6.5t-140.5 -5.5h-53q-121 0 -121 45q0 13 9 23t22 10h8q2 0 8 -3q61 -36 150 -36q27 0 75 3.5t64 4.5q7 0 27.5 1t30.5 2t28 3t28.5 5.5t23 8t21 12t13.5 17.5q126 246 201 346q25 35 59 35q14 0 23.5 -9t9.5 -24
q0 -24 -20 -53q-81 -115 -181 -309q18 3 58.5 10t68 10.5t54.5 3.5q43 0 70.5 23.5t49.5 70.5q22 50 77 134t71 112q17 29 43 29q16 0 27.5 -11.5t11.5 -29.5q0 -16 -8 -29q-31 -65 -115 -229q-14 -28 -14 -37q6 -6 12 -6zM1118 719q-8 2 -22 2q-31 0 -89.5 -9t-84.5 -10
q-23 -2 -36.5 -10t-23.5 -28q-16 -31 -32.5 -66t-28 -61.5t-29 -70t-25 -63.5t-26.5 -70t-25 -65q-45 -114 -67 -241q-2 -8 -2 -21q0 -31 22 -31q23 0 66.5 55t66.5 93q159 252 324 559q12 16 12 31v6zM307 307q-72 -40 -94 -119q80 39 94 119z" />
    <glyph glyph-name="uniE0B4" unicode="on" horiz-adv-x="1103" 
d="M1305 274q5 0 9.5 -4t4.5 -10q0 -12 -25 -37q-184 -174 -317 -174q-46 0 -74.5 24t-28.5 72q0 19 9.5 56.5t9.5 58.5l-2 6v4q-31 0 -109 -58t-130.5 -105t-96.5 -89l-13 -13t-17.5 -16t-18.5 -12t-21 -6q-36 0 -36 37q0 9 4 21q19 60 77.5 156.5t75.5 136.5q1 2 11 19.5
t10 25.5q0 10 -8.5 16t-18.5 6q-6 0 -13.5 -2t-16 -5.5t-13.5 -4.5q-25 -8 -56 -20.5t-69.5 -32t-64 -44.5t-25.5 -49q-3 -128 -131 -227q-35 -24 -64 -24q-41 0 -68.5 35t-27.5 85q0 32 12 62q26 58 87 137.5t104 79.5q23 0 53 -43q66 48 145.5 85.5t143.5 37.5
q104 0 104 -78q0 -25 -11.5 -60t-23 -58t-31 -59t-20.5 -38q11 2 72.5 48.5t133.5 91t112 44.5q51 0 51 -71q0 -26 -12.5 -73t-12.5 -71q0 -15 7 -19.5t26 -4.5q36 0 76 16q37 15 74 38t81 55.5t66 47.5q12 6 17 6zM276 295q-50 -31 -97.5 -93t-47.5 -112q0 -15 7.5 -26
t19.5 -11q13 0 24 8q103 73 109 191q0 28 -15 43z" />
    <glyph glyph-name="uniE0C1" unicode="an" horiz-adv-x="1122" 
d="M649 258q-16 -8 -43 -41q-69 -82 -137 -147q-1 -1 -10 -9.5t-12 -11t-12 -10.5t-14 -11t-13.5 -8t-15.5 -7.5t-15.5 -4.5t-16.5 -2q-29 0 -44 28.5t-15 71.5q0 10 4 31.5t4 30.5q0 14 -4 20q-15 -12 -43 -49q-73 -93 -108 -127q-23 -20 -48 -20q-22 0 -37.5 17.5
t-15.5 45.5q0 33 19 86t48.5 104.5t71.5 88.5t82 37q43 0 88 -45q6 -6 38 -17.5t32 -29.5q0 -7 -12 -35q-31 -60 -47 -140v-4l-2 -10q0 -14 4 -22q10 1 19 6t13 8t14.5 13t12.5 11q24 22 50 50.5t43.5 49.5t45.5 55.5t43 51.5q68 82 146 170q26 31 47 31q15 0 27 -12.5
t12 -26.5q0 -13 -23 -53q-34 -55 -86.5 -161.5t-52.5 -141.5h4q14 0 21 10l6 6l2 4q24 23 147 140q30 30 60 30q26 0 39.5 -27.5t13.5 -64.5q0 -7 -1 -21t-1 -20q0 -61 41 -61q18 0 53 14q25 11 51.5 28t57.5 39t49 33q7 4 22 17t29 20.5t29 7.5q30 0 30 -8
q0 -18 -113.5 -100.5t-148.5 -97.5q-39 -17 -67 -17q-59 0 -87 46.5t-28 123.5q-19 -3 -47 -31q-103 -98 -125 -120l-11 -12q-11 -11 -15.5 -15t-14.5 -11.5t-19.5 -10.5t-19.5 -3q-21 0 -32 19t-11 47q0 22 5.5 47t9.5 38.5t17.5 46.5t16.5 42zM336 281q-29 20 -45 20
q-26 0 -61 -47.5t-57.5 -94t-33.5 -77.5q70 72 197 199z" />
    <glyph glyph-name="uniE0C5" unicode="ell" horiz-adv-x="1103" 
d="M1004 -260q0 -15 -8.5 -24t-22.5 -9q-27 0 -44.5 43t-17.5 78q0 53 27 168q47 200 186 588q15 35 15 49v10q-272 -462 -318 -537q-21 -33 -35 -52.5t-42.5 -55.5t-56.5 -55t-52 -19q-31 0 -49.5 30.5t-18.5 74.5q0 18 2 28q6 40 17 87.5t18 72t26.5 85.5t22.5 71
q0 2 4.5 12t4.5 16q0 7 -3 13q-17 -24 -57.5 -81.5t-62 -88.5t-56 -76t-65.5 -82q-29 -34 -53.5 -57.5t-66.5 -45.5t-85 -22q-51 0 -83 35t-32 92q0 135 115 250q47 47 90 47q27 0 46.5 -19.5t19.5 -46.5q0 -16 -4 -24q-47 -122 -150 -174q-37 -18 -37 -43q0 -27 15 -43.5
t36 -16.5q28 0 62 18.5t55 39.5q58 58 120 141t94 132t105 169.5t89 145.5q29 46 118.5 209t145.5 239q25 35 59 35q14 0 23.5 -9t9.5 -24q0 -24 -20 -53q-43 -61 -119 -197.5t-109 -199.5q-16 -31 -32.5 -66t-28 -61.5t-29 -70t-25 -63.5t-26.5 -70t-25 -65
q-45 -114 -67 -241q-2 -8 -2 -21q0 -31 22 -31q23 0 66.5 55t66.5 93q74 117 288 489t288 504q17 29 43 29q16 0 27.5 -11.5t11.5 -29.5q0 -16 -8 -29q-31 -65 -115 -229q-232 -465 -322 -957q-6 -30 -6 -65q0 -9 7.5 -39.5t7.5 -44.5zM307 307q-72 -40 -94 -119
q80 39 94 119z" />
    <glyph glyph-name="uniE0CF" unicode="om" horiz-adv-x="1253" 
d="M190 -16q-43 0 -70.5 32.5t-27.5 83.5q0 144 121 252q29 25 61 25q19 0 30 -12t11 -27q0 -25 -24 -37q-49 -23 -87 -85t-38 -118q0 -47 24 -47q30 0 62 37q46 53 68 102.5t22 112.5l-2 19q0 24 6.5 38t24.5 29q62 49 145 89t146 40q71 0 71 -59q0 -35 -13 -70
t-40.5 -81.5t-32.5 -57.5q21 13 88.5 71t114.5 76q18 6 35 6q26 0 41.5 -16.5t15.5 -42.5q0 -19 -5.5 -36t-17 -40t-14.5 -30q-10 -20 -10 -25q0 -6 2 -10q2 1 15 9.5t17.5 10.5t16.5 9t18 10t16.5 8t17.5 7t16 3.5t16 1.5q52 0 68 -78q9 -51 23.5 -77.5t47.5 -26.5
q7 0 27 4q120 34 213 154q26 36 47 36q12 0 12 -16q0 -21 -12 -37q-40 -52 -81.5 -94t-103 -78.5t-116.5 -36.5q-96 0 -127 119q-8 31 -13.5 42t-13.5 11q-13 0 -70.5 -39.5t-76.5 -56.5q-27 -27 -51 -27q-19 0 -19 27q0 22 11 55q19 63 61 156q0 2 3 7.5t3 8.5t-4 15
q-9 -3 -18 -8.5t-15 -9.5t-16 -13t-14 -12q-41 -33 -77.5 -70.5t-91.5 -101t-69 -78.5q-2 -2 -11.5 -12.5t-16 -16.5t-16 -12t-17.5 -6q-13 0 -23 18t-10 39q0 30 16 59q19 36 57 103t66.5 123t48.5 110q-6 2 -18 2q-65 0 -219 -108q-15 -10 -15 -31v-20q0 -151 -139 -273
q-36 -28 -70 -28z" />
    <glyph glyph-name="uniE0EA" unicode="ol" horiz-adv-x="739" 
d="M324 244q0 21 -11.5 61.5t-11.5 59.5q0 44 44.5 116.5t92.5 132.5q57 74 81 104.5t77.5 94t90 100t90 81.5t106.5 79q53 31 98 31q33 0 54.5 -20t21.5 -62t-29 -123q-46 -122 -135 -295q-167 -336 -281 -596q-48 -106 -71 -246q-2 -14 -3.5 -19t-5 -16t-10 -15.5
t-16.5 -4.5q-6 0 -11 1.5t-8.5 4.5t-6 6t-4.5 9t-3 9.5t-1.5 11t-1 11.5t-1 12t-0.5 11q5 87 53 205q65 163 214.5 470t211.5 460q2 5 12 28t14.5 38t4.5 32q0 20 -16 20q-18 0 -70 -35q-117 -75 -253.5 -231t-217.5 -291l-29 -47q-1 -1 -5.5 -9t-8.5 -13q-23 -33 -23 -60
q0 -16 18.5 -49t18.5 -53q0 -78 -46 -140t-114 -96q-28 -14 -57 -14q-42 0 -69 29.5t-27 78.5q0 116 92 218q24 24 45 24q13 0 24 -11.5t11 -23.5q0 -8 -4 -17t-8 -14t-12 -14t-9 -10q-67 -78 -67 -154q0 -38 34 -38q9 0 29 8q50 25 79.5 71t29.5 99z" />
    <glyph glyph-name="uniE105" unicode="ot" horiz-adv-x="772" 
d="M49 725q0 15 12.5 27t26.5 12q9 0 18 -6q82 -56 207 -56q27 0 79 3.5t63 3.5q55 3 82 17t57 58q23 34 63.5 85.5t93.5 111.5t108 101.5t91 41.5q34 0 51 -27t17 -67q0 -24 -5 -51t-10 -43t-16 -47.5t-14 -40.5q-1 -3 -9.5 -24.5t-9.5 -35.5q8 -8 25 -8l6 2q31 5 129 24
t166.5 27.5t138.5 8.5q37 0 78 -6.5t81 -30t40 -60.5q0 -16 -8 -27t-21 -11q-14 0 -24 10q-63 51 -174 51q-157 0 -441 -45q-25 -4 -35 -35q-38 -100 -112.5 -293t-132.5 -348.5t-107 -296.5q-21 -67 -53 -67q-31 0 -31 36q0 27 17 72q34 107 80 236t76.5 211t92 241.5
t82.5 216.5q-12 6 -22 6q-3 0 -10 -1t-11 -1q-20 -3 -81 -13t-95 -13q-33 -3 -49 -27q-127 -176 -192 -315q-7 -14 -7 -39q-7 -202 -108 -281q-26 -20 -57 -20q-40 0 -69.5 31.5t-29.5 78.5q0 125 107 240q25 25 39 25q13 0 39 -13q4 -2 10 -2q4 0 7.5 1t6.5 3.5t5.5 5
t5 6.5t4 6t4 6t2.5 5q42 79 161 250q7 7 7 18v6q-85 -12 -181 -12q-264 0 -264 78zM936 1049q-67 -26 -177.5 -142t-127.5 -178q173 26 196 29q23 2 33 30l62 179q14 44 14 82zM291 319l-19 -18q-77 -64 -104 -190q-2 -6 -2 -19q0 -39 31 -39q23 0 41 21q71 79 71 200v9
q0 25 -18 36z" />
    <glyph glyph-name=".notdef" horiz-adv-x="1024" 
d="M102 0v846h820v-846h-820zM205 102h614v641h-614v-641z" />
    <glyph glyph-name="uni0000" horiz-adv-x="0" 
 />
    <glyph glyph-name="uni0000" horiz-adv-x="0" 
 />
    <glyph glyph-name="uni000D" unicode="&#xd;" horiz-adv-x="512" 
 />
    <glyph glyph-name="space" unicode=" " 
 />
    <glyph glyph-name="exclam" unicode="!" horiz-adv-x="290" 
d="M266 356q-16 0 -24.5 11t-8.5 26q0 22 15 62q147 431 260 714q23 68 61 68q19 0 31 -12.5t12 -28.5q0 -12 -14 -49q-93 -220 -268 -690q-1 -3 -6.5 -20t-10 -28t-11.5 -24.5t-16.5 -21t-19.5 -7.5zM231 160q-2 -5 -11 -35.5t-16.5 -52.5t-23 -42t-33.5 -20
q-16 0 -28.5 10t-12.5 25q0 38 27 102t60 64q38 0 38 -51z" />
    <glyph glyph-name="quotedbl" unicode="&#x22;" horiz-adv-x="438" 
d="M737 1184q0 -34 -57 -103t-92 -69q-23 0 -23 18q0 14 19 43q36 59 43 105q3 22 22.5 35.5t42.5 13.5q20 0 32.5 -11t12.5 -32zM604 1184q0 -34 -57 -103t-92 -69q-23 0 -23 18q0 14 19 43q36 59 43 105q3 22 22.5 35.5t42.5 13.5q20 0 32.5 -11t12.5 -32z" />
    <glyph glyph-name="numbersign" unicode="#" horiz-adv-x="729" 
d="M610 981q0 -14 -18 -45q-20 -34 -74 -158q-1 -1 -3.5 -7t-3 -8.5t-0.5 -8t3 -11.5q31 2 97 6.5t102 6.5q5 0 9 2t6.5 4.5t5 6.5t3.5 7t3 8t3 7q23 47 29 63l62 123q43 117 84 117q18 0 29 -11.5t11 -27.5q0 -26 -16 -54q-10 -20 -52 -105.5t-65 -133.5q8 -2 21 -2
q10 0 30 2t29 2q30 0 36 -10q4 -5 5 -13q3 -14 -8 -24.5t-31 -11.5q-10 -1 -29 -1.5t-31 -1.5t-26.5 -4t-23.5 -10t-13 -18q-7 -18 -22 -51t-21 -48q16 -5 37 -3t39.5 -3t18.5 -20t-24.5 -23t-45.5 -8q-56 -3 -74 -57q-61 -177 -121 -303q-6 -12 -18 -24.5t-23 -12.5
q-18 0 -18 43q0 21 4 37q16 58 56 167.5t44 120.5h-6l-10 2h-6q-22 0 -59.5 -6.5t-53.5 -7.5q-50 -2 -74.5 -13.5t-35.5 -51.5q-32 -123 -62 -123q-18 0 -18 30q0 14 4 35t8.5 37.5t9.5 34t6 20.5q-8 4 -22 4q-11 0 -34.5 -5t-37.5 -5q-18 0 -28.5 11t-10.5 26q0 14 6 22.5
t22 13t23.5 6t30.5 3.5q58 8 71 18.5t30 67.5q11 33 10 41h-17q-14 0 -43 -4t-43 -4q-43 0 -43 37q0 33 50 39q9 1 32.5 2.5t36.5 3.5t30 6.5t27 13t15 21.5q39 108 86 203q9 16 14 24t18.5 20.5t26.5 12.5q16 0 28.5 -13t12.5 -26zM694 684q-32 -4 -53 -4l-104 -12
q-18 0 -54 -4q-28 -2 -57 -129q24 7 63.5 9t55.5 5q24 4 33 4l14 -2q48 0 75 41t27 92z" />
    <glyph glyph-name="dollar" unicode="$" horiz-adv-x="862" 
d="M911 1233q181 0 181 -135q0 -72 -63 -173.5t-128 -162.5q-39 -39 -67 -39q-12 0 -23.5 12t-11.5 25q0 7 2.5 13t7.5 12t8.5 9.5t11 9.5t9.5 7q66 52 127 137.5t61 153.5q0 32 -18.5 45.5t-57.5 13.5q-79 0 -94 -43q-3 -8 -21.5 -56.5t-27.5 -74.5l-100 -260
q-8 -22 -25 -66t-25 -65q-6 -22 -4 -27q19 -3 69.5 -7.5t82.5 -10t69.5 -17t56.5 -35t19 -57.5q0 -50 -36 -106.5t-89.5 -103.5t-120.5 -93t-122 -76t-101 -51q-38 -17 -47 -57q-1 -2 -3 -13.5t-3.5 -18t-4.5 -17.5t-6.5 -18t-8 -14.5t-10.5 -11t-13 -3.5q-25 0 -25 37
q0 13 5 37.5t6 29.5q-74 -18 -111 -18q-36 0 -79.5 20t-43.5 55q0 11 7 19t18 8q14 0 44 -9t44 -9q42 0 98 17t64 44q17 53 67 190t72 214q-25 7 -63.5 13.5t-69.5 10t-65.5 13t-57.5 23.5t-38 40t-15 63q0 57 30 113q73 138 211 248.5t301 175.5q21 8 33 24.5t22.5 45.5
t16.5 41q11 22 35 22q14 0 24.5 -10t10.5 -27q0 -11 -9 -28t-6 -29zM770 1106q-141 -76 -243.5 -159.5t-172.5 -194.5q-35 -60 -35 -90q0 -75 224 -86q10 -1 14 -1q16 -1 22.5 5.5t12.5 21.5q9 26 43 115l88 233q33 89 43 115q9 23 4 41zM639 492q-13 0 -18 -6t-13 -29
q-8 -21 -39.5 -101.5t-49 -133t-27.5 -105.5q42 10 132.5 70.5t168 135.5t77.5 115q0 30 -80.5 42t-150.5 12z" />
    <glyph glyph-name="percent" unicode="%" horiz-adv-x="624" 
d="M782 1178h-16q-15 0 -32 -2t-29 -4t-31.5 -7t-27.5 -7.5t-31 -9.5t-29 -9q-21 -7 -21 -35q0 -81 -41 -167t-100 -132q-22 -19 -41 -19q-22 0 -34.5 24t-12.5 58q0 67 39 160t86 164q26 39 55 39q15 0 23 -14q11 -16 25 -17t26 6q99 35 176 35q58 0 95.5 -20.5t37.5 -63.5
q0 -41 -22 -80q-215 -387 -531 -868q-16 -23 -90 -154q-6 -12 -15 -26.5t-25 -30.5t-28 -16q-20 0 -20 28q0 21 12.5 55t33.5 72t39 68.5t37.5 61t20.5 32.5l467 756q4 6 14.5 22t17.5 27.5t13 27t6 27.5q0 9 -7 13t-15.5 5t-24.5 1zM406 877q90 119 92 223
q-72 -104 -92 -223zM389 51q0 38 28.5 127t75.5 169.5t87 80.5q16 0 26 -10q53 -45 53 -125q0 -167 -137 -297q-37 -33 -61 -33q-34 0 -53 27t-19 61zM580 336q-46 -57 -80.5 -140t-34.5 -133q0 -14 2 -20q50 38 83.5 111t33.5 141q0 17 -4 41z" />
    <glyph glyph-name="ampersand" unicode="&#x26;" horiz-adv-x="823" 
d="M47 80q0 26 19 74q12 25 27.5 51t29 45.5t37.5 47t35.5 41t42.5 43.5t39 37.5t43.5 40t39.5 36.5q25 25 25 51q0 29 -7 89t-7 89q0 133 39 254q16 50 45.5 99.5t70.5 93.5t97.5 71t117.5 27q82 0 134.5 -39t52.5 -109q0 -23 -3 -44.5t-10.5 -43t-13.5 -37.5t-20 -37.5
t-20.5 -33t-25 -33.5t-24 -29t-26 -30t-23.5 -27q-140 -158 -256 -268q-25 -25 -25 -50q0 -37 28 -119t52 -130q91 63 178.5 187.5t120.5 231.5q4 14 16 23.5t25 9.5q12 0 20.5 -9t8.5 -26q0 -78 -154 -292q-89 -110 -158 -168q-16 -13 -16 -25q0 -13 12 -25q2 -3 26.5 -33
t34.5 -39.5t33.5 -22.5t47.5 -13h30q29 0 29 -29q0 -39 -74 -39q-84 0 -178 113q-25 35 -35 35q-4 0 -8 -2.5t-14 -9.5t-19 -13q-172 -121 -329 -121q-45 0 -78 30.5t-33 76.5zM453 735q0 -129 12 -129q6 0 31 22.5t60.5 59t64.5 68t61 66.5t33 36q40 43 93.5 126t53.5 142
q0 72 -104 72q-96 0 -168.5 -67.5t-102.5 -155.5q-34 -98 -34 -240zM406 436q-66 -59 -103 -93t-87 -89.5t-85 -108.5q-22 -33 -22 -63q0 -43 57 -43q68 0 155 38t152 87q19 16 19 26q0 7 -7 21q-21 42 -45.5 122t-33.5 103z" />
    <glyph glyph-name="quotesingle" unicode="'" horiz-adv-x="305" 
d="M604 1184q0 -34 -57 -103t-92 -69q-23 0 -23 18q0 14 19 43q36 59 43 105q3 22 22.5 35.5t42.5 13.5q20 0 32.5 -11t12.5 -32z" />
    <glyph glyph-name="parenleft" unicode="(" horiz-adv-x="546" 
d="M842 1311h4q19 0 29 -11t10 -26q0 -29 -25 -37q-107 -38 -185.5 -115t-152.5 -192q-73 -112 -118 -204t-77 -218t-32 -264q0 -239 117 -332q16 -13 16 -33q0 -14 -8 -24.5t-21 -10.5q-12 0 -24 9q-76 55 -117 166.5t-41 236.5q0 238 102.5 468.5t274.5 424.5
q44 50 121.5 106t126.5 56z" />
    <glyph glyph-name="parenright" unicode=")" horiz-adv-x="583" 
d="M-55 -145h-4q-19 0 -30 10.5t-11 25.5q0 28 26 37q107 38 185.5 115.5t152.5 192.5q112 172 170 329.5t58 356.5q0 238 -117 331q-17 14 -17 33q0 14 8 24.5t21 10.5q14 0 25 -8q76 -54 116.5 -166t40.5 -238q0 -21 -4 -57q-35 -457 -372 -836q-44 -50 -121.5 -105.5
t-126.5 -55.5z" />
    <glyph glyph-name="asterisk" unicode="*" horiz-adv-x="401" 
d="M592 1225q18 0 28.5 -10.5t10.5 -26.5q0 -21 -8 -53q4 2 17 10t24 13t20 5q10 0 20.5 -9.5t10.5 -23.5t-15.5 -28.5t-32.5 -23.5t-41 -20.5t-28 -13.5q-30 -18 -8 -43q38 -47 45 -65q6 -15 -4 -24t-23 1q-9 7 -28 23t-31 25l-16 -43q-16 -43 -30 -68t-26 -25
q-14 0 -14 29q0 16 3.5 36.5t8.5 44t6 28.5q-18 -6 -50 -25.5t-50 -24.5q-2 4 -2 15q0 14 15.5 29.5t33.5 26t33.5 25t15.5 27.5q0 10 -21.5 35t-21.5 41t10.5 26.5t20.5 10.5q7 0 16.5 -5t15 -9.5t16 -14t11.5 -10.5q6 9 14 40.5t20.5 53t33.5 21.5z" />
    <glyph glyph-name="plus" unicode="+" horiz-adv-x="454" 
d="M463 707q17 0 28 -13t11 -28q0 -28 -36 -95.5t-36 -85.5q8 -6 53 -6h6q21 0 30 -0.5t23.5 -2.5t20.5 -7.5t6 -15.5q0 -21 -46 -29t-89 -8q-42 0 -57 -43q-3 -8 -16.5 -51.5t-20.5 -62.5t-23 -47t-34 -44q-9 27 -9 55q0 34 16 92.5t19 77.5q-5 8 -24 8h-15l-34 -6h-15
q-29 0 -44 8.5t-15 32.5q0 19 14 29.5t31 13t43 2.5h31q43 1 52.5 8t24.5 48q1 2 11.5 32t18 47t20.5 41.5t27 37t28 12.5z" />
    <glyph glyph-name="comma" unicode="," horiz-adv-x="317" 
d="M63 -35q0 28 21.5 54t50.5 26q26 0 40.5 -19.5t14.5 -52.5q0 -40 -41 -92.5t-71 -62.5q-14 -5 -25 4.5t-2 23.5q4 6 14 18t15.5 22t5.5 20q0 8 -11.5 27.5t-11.5 31.5z" />
    <glyph glyph-name="hyphen" unicode="-" 
d="M379 303q5 0 19.5 -0.5t23 -1.5t19.5 -3.5t16.5 -8.5t5.5 -15q0 -17 -19 -26.5t-41 -11.5q-24 -3 -71 -9.5t-84.5 -10t-71.5 -3.5q-53 0 -53 39q0 41 63 41q130 0 193 10z" />
    <glyph glyph-name="period" unicode="." horiz-adv-x="290" 
d="M111 59q21 0 39 -22t18 -45q0 -30 -20 -54t-46 -24q-24 0 -37.5 18t-13.5 41q0 32 18 59t42 27z" />
    <glyph glyph-name="slash" unicode="/" horiz-adv-x="479" 
d="M98 -25q-13 0 -19.5 10t-6.5 23q0 26 30 94q181 395 404 758q140 231 231 344q1 1 7.5 9.5t10.5 12.5t10.5 10t13.5 8.5t14 2.5q15 0 28 -12.5t13 -26.5q0 -21 -23 -49q-347 -444 -647 -1102q-1 -1 -6 -12.5t-8.5 -18t-10.5 -17.5t-12.5 -17.5t-13.5 -11.5t-15 -5z" />
    <glyph glyph-name="zero" unicode="0" horiz-adv-x="606" 
d="M303 -39q-43 0 -73.5 23.5t-47 63.5t-23.5 83t-7 92q0 189 109.5 459.5t234.5 415.5q84 98 155 98q96 0 149.5 -79t53.5 -187q0 -54 -14.5 -119t-29 -107t-40.5 -106q-69 -182 -142.5 -320.5t-170.5 -234.5q-82 -82 -154 -82zM784 936q0 66 -32.5 129t-81.5 63
q-47 0 -100.5 -52.5t-95.5 -124t-85 -164t-66 -153t-40 -110.5q-24 -70 -34 -101t-22 -84.5t-12 -92.5v-39q0 -76 22 -130t66 -54q54 0 120 71.5t103 138.5q85 148 171.5 365t86.5 338z" />
    <glyph glyph-name="one" unicode="1" horiz-adv-x="348" 
d="M160 -45q-33 0 -33 41q0 9 12 57q64 209 211.5 570.5t186.5 466.5q-12 -6 -42.5 -36t-52.5 -30q-15 0 -25.5 12t-10.5 27q0 22 16 35q28 24 94 61t94 37q17 0 30 -14.5t13 -32.5q0 -12 -4 -25t-11 -29t-9 -22q-18 -42 -83.5 -199t-93.5 -225.5t-78.5 -194.5t-89 -229.5
t-73.5 -206.5q-19 -63 -51 -63z" />
    <glyph glyph-name="two" unicode="2" horiz-adv-x="763" 
d="M788 1192q94 0 143.5 -66t49.5 -180q0 -89 -31 -180q-140 -386 -473 -662q-2 -2 -10 -6.5t-12 -9.5t-6 -12q3 -1 20 -6t21.5 -6.5t20 -6.5t22 -8t19.5 -8.5t20 -10.5t16 -11.5t16 -13.5t12 -15q7 -10 7 -19q0 -10 -9.5 -17t-21.5 -7t-21 6q-15 10 -33.5 18.5t-32.5 13
t-37.5 9.5t-34.5 6.5t-39 5l-36 4.5q-26 3 -51 -10q-98 -41 -147 -41q-92 0 -92 53q0 23 21 40t53 25t59 11.5t49 3.5l12 -2q44 0 98 33q245 165 414 452q61 103 93 186.5t32 184.5q0 70 -25.5 117t-80.5 47q-96 0 -174 -50t-125 -134q-23 -44 -23 -82v-23q0 -47 -39 -47
q-41 0 -41 66q0 85 63.5 168.5t156 133.5t177.5 50z" />
    <glyph glyph-name="three" unicode="3" horiz-adv-x="712" 
d="M717 1192q83 0 152 -38t69 -97q0 -46 -35.5 -103.5t-87.5 -108t-98 -88t-78 -57.5q-2 -2 -11.5 -6.5t-14.5 -9.5t-9 -14q92 -16 151.5 -70.5t59.5 -136.5q0 -95 -72 -189q-187 -248 -503 -317q-24 -6 -54 -6q-46 0 -84.5 16t-38.5 49q0 14 12 22.5t31 8.5q13 0 37 -4
t35 -4q102 0 233.5 71.5t209.5 153.5q40 42 72 97t32 104q0 53 -51 87t-119 34q-29 0 -84 -12.5t-84 -12.5q-20 0 -33.5 8t-13.5 21q0 18 35 43q44 31 123 78t131 79.5t110.5 86t94.5 114.5q16 27 16 51q0 32 -32.5 47t-84.5 15q-37 0 -84 -10t-95.5 -28t-83.5 -50.5
t-40 -71.5q-3 -19 -13.5 -28t-23.5 -9q-18 0 -30.5 13.5t-12.5 37.5q0 50 47 97q58 58 143.5 97.5t176.5 39.5z" />
    <glyph glyph-name="four" unicode="4" horiz-adv-x="589" 
d="M891 1214q18 0 30.5 -12t12.5 -28q0 -15 -10 -35q-64 -130 -162 -376t-131 -321q8 -2 42 -4t50 -14q2 -1 6.5 -4l6 -4t6 -4.5t4.5 -5.5t2 -6.5t0 -8.5q-8 -35 -68 -35q-10 0 -28 2t-27 2q-36 0 -50 -36q-12 -30 -43 -100.5t-51.5 -122.5t-36.5 -103q-20 -64 -53 -64
q-16 0 -25.5 11t-9.5 26q0 16 15 56q33 99 121 307q10 19 6 33q-16 3 -68 9t-78 15q-114 45 -114 170q0 65 31.5 151.5t82 173t98.5 156.5t95 129q32 37 61 37q18 0 31.5 -13.5t13.5 -31.5q0 -17 -12 -45q-104 -186 -154 -194q-10 -2 -20 -21q-29 -48 -47 -81t-43.5 -85.5
t-39 -99.5t-13.5 -86q0 -41 25 -64t85 -32q52 -9 66 -9q43 0 59 35q40 90 130.5 323t148.5 353q0 1 3 6.5t4 7t4 7.5t4.5 8t5 7t5.5 7t6 5.5t7 5t7.5 2.5t8.5 1z" />
    <glyph glyph-name="five" unicode="5" horiz-adv-x="620" 
d="M119 236q0 53 41 53q38 0 47 -72q12 -73 73 -132.5t134 -59.5q52 0 80 51.5t28 126.5q0 61 -17.5 126t-39.5 112t-48.5 109t-39.5 107q-15 56 -15 107q0 119 87 293h-9l-14 -2q-13 0 -20 0.5t-18.5 2.5t-17.5 6t-11 12t-5 20q0 14 10.5 25.5t28.5 15.5q13 3 57 12.5
t62 13t57.5 11t64 11t59.5 8t67 6t65 1.5q150 0 150 -51q0 -18 -12.5 -27.5t-32.5 -9.5q-5 0 -15.5 1t-15.5 1l-18 4q-5 0 -15.5 1t-15.5 1q-34 0 -98 -9t-88 -11q-94 -8 -144 -103q-2 -3 -11 -21.5t-11.5 -23.5t-10.5 -22t-10.5 -24.5t-8.5 -23t-8 -26.5t-5.5 -25.5
t-4.5 -29t-1 -29.5q0 -68 28 -141q9 -23 40 -93.5t46.5 -112t31 -106.5t15.5 -122q0 -112 -53.5 -185t-146.5 -73q-100 0 -182.5 85.5t-106.5 188.5q-2 8 -2 23z" />
    <glyph glyph-name="six" unicode="6" horiz-adv-x="585" 
d="M743 1223q58 0 90.5 -43t32.5 -113q0 -116 -73 -248q-17 -34 -45 -20q-28 12 -13 49q2 5 9.5 24t9.5 25t8 23.5t8 25.5l6 24t5.5 27.5t3 27t1.5 30.5q0 78 -41 78q-18 0 -36.5 -7.5t-38.5 -23.5t-29 -24.5t-27 -26.5q-109 -109 -187 -255t-144 -335q-14 -32 -9 -47
q7 1 12.5 5t11.5 10.5t9 8.5q35 31 62.5 51.5t72.5 39t90 18.5q71 0 106.5 -38.5t35.5 -100.5q0 -77 -56.5 -187t-142.5 -193t-158 -83q-88 0 -132 79.5t-44 188.5q0 94 35 213q146 464 381 696q101 101 186 101zM229 217q0 -75 22.5 -132.5t67.5 -57.5q35 0 78 34
q69 58 134 162.5t65 184.5q0 61 -68 61q-47 0 -92 -25q-31 -17 -59.5 -38t-67 -54t-53.5 -45q-27 -24 -27 -90z" />
    <glyph glyph-name="seven" unicode="7" horiz-adv-x="684" 
d="M836 1219h18q39 0 67 -2t62.5 -8.5t53 -22t18.5 -39.5q0 -11 -2 -22t-7.5 -22.5t-9 -18.5t-11 -20t-9.5 -17q-32 -52 -73 -112t-71 -100.5t-82 -110t-75 -101.5q5 -1 19 -4.5t23 -6.5t20 -7.5t16.5 -11.5t5.5 -15q0 -25 -19 -25q-9 0 -32 8t-31 8q-41 0 -72 -39
q-50 -61 -110 -137l-220 -272q-18 -23 -54.5 -69t-55.5 -68q-34 -47 -62 -47q-13 0 -22.5 10.5t-9.5 21.5q0 22 36 72q118 149 394 494h-2q-14 0 -49.5 -10.5t-51.5 -10.5t-27.5 10t-11.5 29q0 24 30.5 36.5t68 15.5t75 11t48.5 23q31 43 100.5 136t120.5 165t94 141
q20 29 18 49q-56 3 -106 3q-128 0 -230 -21q-18 -3 -22 -9.5t-4 -27.5q0 -35 -60 -35q-122 0 -122 54q0 35 55 61.5t132.5 39t140 18.5t98.5 6z" />
    <glyph glyph-name="eight" unicode="8" horiz-adv-x="679" 
d="M780 1204q62 0 107 -35.5t45 -89.5q0 -41 -27 -116q-31 -78 -96 -195q-13 -25 -75 -140.5t-95 -176.5q-6 -12 -6 -23q0 -15 8.5 -29.5t23 -30t17.5 -20.5q27 -46 27 -86q0 -35 -16 -69t-45 -64t-50 -47t-51 -39q-47 -34 -80 -54t-86 -38.5t-105 -18.5q-82 0 -135 52.5
t-53 126.5q0 10 4 30q22 141 107.5 246.5t222.5 147.5q-70 136 -70 241q0 147 107 264t254 154q38 10 67 10zM567 487q9 4 17 19q9 18 26.5 51.5t26.5 50.5l106 205q7 14 26 49t28 53q53 99 53 158q0 55 -62 55q-24 0 -40 -4q-234 -50 -310 -274q-12 -34 -12 -70
q0 -84 38.5 -160t102.5 -133zM471 473q-10 -3 -24 -12t-21 -12q-165 -65 -242 -271q-12 -30 -12 -59q0 -48 30.5 -78.5t82.5 -30.5q79 0 168.5 53.5t148.5 122.5q33 39 33 68t-31 68q-5 6 -133 151z" />
    <glyph glyph-name="nine" unicode="9" horiz-adv-x="675" 
d="M229 197q29 0 29 -52q0 -32 27.5 -81.5t56.5 -49.5q14 0 29.5 8.5t32 24.5t30.5 31.5t30 38.5t25 36t21.5 32.5t13.5 21.5q39 61 73 124t73.5 150.5t56.5 126.5t65 158t56 139q15 30 12 43q-9 -3 -16 -9t-16.5 -18.5t-10.5 -13.5q-226 -275 -346 -393q-86 -86 -139 -86
q-31 0 -52.5 35.5t-21.5 81.5q0 34 5.5 69.5t10.5 58.5t20.5 63t20.5 52.5t27 59t25 53.5q152 318 303 318q63 0 114 -45t72 -103q13 10 29.5 31t25.5 28q6 4 14 14t16 16.5t17 6.5q21 0 36.5 -16.5t15.5 -32.5q0 -35 -62 -194.5t-115.5 -284t-91.5 -209.5
q-78 -176 -184 -326q-58 -81 -90 -110q-59 -55 -123 -55q-35 0 -62.5 24.5t-43 62t-23.5 76t-8 72.5q0 11 6.5 17t15.5 6zM797 1014q0 36 -42.5 76t-84.5 40q-56 0 -113 -77q-71 -96 -146 -257t-75 -255q0 -15 4 -43q13 7 25 15t25 19.5t19.5 17.5t21 21t18.5 19
q105 107 315 360q33 45 33 64z" />
    <glyph glyph-name="colon" unicode=":" horiz-adv-x="290" 
d="M336 592q21 0 39 -22.5t18 -45.5q0 -30 -19.5 -54t-45.5 -24q-24 0 -38 18.5t-14 41.5q0 32 18 59t42 27zM111 59q21 0 39 -22t18 -45q0 -30 -20 -54t-46 -24q-24 0 -37.5 18t-13.5 41q0 32 18 59t42 27z" />
    <glyph glyph-name="semicolon" unicode=";" horiz-adv-x="317" 
d="M336 592q21 0 39 -22.5t18 -45.5q0 -30 -19.5 -54t-45.5 -24q-24 0 -38 18.5t-14 41.5q0 32 18 59t42 27zM63 -35q0 28 21.5 54t50.5 26q26 0 40.5 -19.5t14.5 -52.5q0 -40 -41 -92.5t-71 -62.5q-14 -5 -25 4.5t-2 23.5q4 6 14 18t15.5 22t5.5 20q0 8 -11.5 27.5
t-11.5 31.5z" />
    <glyph glyph-name="less" unicode="&#x3c;" horiz-adv-x="491" 
d="M588 690q13 0 24 -10.5t11 -24.5q0 -23 -35 -45q-22 -15 -45 -32.5t-41 -31t-44 -35.5l-39 -33t-42.5 -37t-38 -34t-41.5 -38t-39 -35q-2 -2 -5.5 -8t-6.5 -9q11 -9 54.5 -42t62 -47.5t49.5 -41.5t55 -51q12 -12 12 -26q0 -13 -11 -23t-26 -10t-28 10q-46 39 -137 108.5
t-103 79.5q-24 18 -24 41q0 19 24 43q223 215 354 308q34 24 60 24z" />
    <glyph glyph-name="equal" unicode="=" horiz-adv-x="571" 
d="M465 436q19 0 51 3t49 3q66 0 66 -24t-72 -31q-42 -6 -127 -18.5t-127 -18.5q-28 -4 -43 -4q-59 0 -59 39q0 34 47 37q16 1 69 7.5t78 6.5h68zM434 295h58q69 0 69 -25q0 -21 -45 -32q-60 -11 -174.5 -24.5t-132.5 -16.5h-10q-22 0 -37 11.5t-15 31.5q0 39 70 43
q129 7 217 12z" />
    <glyph glyph-name="greater" unicode="&#x3e;" horiz-adv-x="485" 
d="M117 37q-13 0 -24 11.5t-11 25.5q0 23 35 45q111 76 329 274q2 2 6 8t7 9q-11 9 -54.5 42t-62 47.5t-49.5 41.5t-55 51q-13 13 -13 26q0 14 11 24.5t26 10.5q14 0 29 -12q35 -29 74.5 -60.5t88.5 -69t76 -58.5q25 -19 25 -39t-25 -45q-344 -332 -413 -332z" />
    <glyph glyph-name="question" unicode="?" horiz-adv-x="579" 
d="M338 805q-14 0 -26.5 12t-12.5 25q0 22 31 59q153 186 411 299q43 19 82 19q44 0 72.5 -22.5t28.5 -66.5q0 -27 -10 -56t-18 -43t-28 -46q-18 -29 -42.5 -62t-40 -52t-49.5 -60t-44 -53q-63 -75 -96 -116t-82 -107t-86 -125q13 0 45 18t47 18q11 0 22 -10t11 -24
q0 -35 -60 -68t-100 -33q-51 0 -51 56q0 86 156 274q38 46 114.5 139.5t114.5 139.5q36 44 78.5 108t42.5 90q0 10 -9 19.5t-20 9.5q-7 0 -15.5 -3t-19 -8.5t-14.5 -7.5q-229 -104 -373 -278q-1 -1 -7.5 -9.5t-11 -13t-11.5 -10.5t-14 -9t-15 -3zM401 131q-28 -92 -65 -127
q-8 -8 -23 -8q-11 0 -19.5 8t-8.5 21q0 24 6.5 58.5t24.5 67.5t42 33q20 0 31.5 -12.5t11.5 -34.5v-6z" />
    <glyph glyph-name="at" unicode="@" horiz-adv-x="780" 
d="M682 397q0 -11 -10 -28l-13 -19q-10 -17 -10 -28q0 -8 7 -15.5t16 -7.5q6 0 12.5 4t10.5 8t11 11.5t9 9.5q100 96 100 219q0 60 -36 93.5t-101 33.5q-108 0 -197 -70q-244 -194 -299 -491q-4 -32 -4 -54q0 -67 22.5 -118t63.5 -51q58 0 142 79q32 31 89 89t70 71
q1 1 5.5 6t7 7.5t8.5 6.5t9.5 3.5t10.5 -2.5q12 -5 12 -21q0 -19 -14 -33q-9 -10 -42 -47.5t-47 -53t-45.5 -46.5t-54 -47.5t-54 -35.5t-62.5 -30q-19 -8 -43 -8q-51 0 -88.5 39.5t-53.5 92t-16 106.5q0 84 31.5 180.5t88.5 186t128.5 162.5t159 117t172.5 44
q96 0 152.5 -58t56.5 -145q0 -158 -148 -287q-43 -37 -82 -37q-60 0 -77 89q-160 -156 -222 -207q-18 -15 -39 -15q-19 0 -29.5 12.5t-10.5 32.5q0 15 2 21q12 44 37 98.5t60 113t82 97.5t93 39q49 0 89 -36.5t40 -80.5zM393 223q89 78 182 164q2 2 6 4.5t6.5 4.5t4 6t0.5 8
q-5 18 -31 18q-27 0 -41 -14q-73 -65 -127 -191z" />
    <glyph glyph-name="A" unicode="A" horiz-adv-x="1787" 
d="M1430 -385q0 30 20 80q38 84 76 186.5t60 173t60.5 197t55.5 180.5l6 25q1 5 -1 7.5t-6.5 3.5t-7.5 1.5t-9 0t-7 -0.5q-149 -3 -434 -20t-420 -21q-38 0 -59 -37q-14 -24 -42 -74t-45 -80t-39.5 -73t-39.5 -80q-18 -40 -18 -78l2 -18q0 -53 -23.5 -117t-66.5 -64
q-46 0 -46 60q0 59 39 147q7 18 7 27q0 22 -19 41q-40 43 -92 79t-140.5 84t-109.5 60q-74 41 -74 72q0 16 16.5 29.5t42.5 22.5t45.5 14t37.5 8q186 31 413 41q83 2 108 12q27 10 42 33q190 295 399 534q56 64 131.5 134.5t168.5 142.5t192.5 118.5t177.5 46.5q60 0 97 -35
t49 -81t12 -105q0 -26 -9 -100q-7 -64 -18 -127t-31.5 -144t-29.5 -117t-39.5 -141t-34.5 -120h49q27 0 41 -7t14 -28q0 -6 -1.5 -11t-5 -8.5t-7 -6t-10 -4.5t-11 -3t-13 -1.5t-12.5 -1t-13 -1t-13 -0.5q-19 -1 -23.5 -1t-11.5 -4.5t-9 -10t-7 -21.5q-118 -386 -180 -571
q-8 -24 -27 -117t-43 -133q-10 -17 -29 -33t-40 -16t-33 15t-12 36zM1817 1440q-64 0 -160 -56q-101 -57 -198 -134t-174.5 -155.5t-159 -180.5t-141 -187t-132.5 -197q-10 -14 -8 -22q4 -4 10 -4.5t13 1t10 1.5q63 3 192 11t208 12t191.5 8t208.5 4h19q22 0 32.5 6.5
t16.5 27.5q9 34 46.5 164t58 213.5t34.5 167.5q19 108 19 172q0 148 -86 148zM532 125q21 45 46 92t61 111.5t51 93.5q-37 -2 -128.5 -7.5t-140 -9t-122.5 -12.5t-137 -22q23 -14 76.5 -44.5t82 -47.5t70.5 -43.5t76 -53.5t65 -57z" />
    <glyph glyph-name="B" unicode="B" horiz-adv-x="1665" 
d="M1741 1522q65 0 125.5 -8t119 -26t93.5 -53.5t35 -84.5q0 -38 -14 -77t-40.5 -77t-46 -62.5t-49.5 -57.5l-3 -3l-2.5 -2.5t-2.5 -3t-2 -2.5q-21 -23 -45.5 -48t-43 -43t-49.5 -46t-45 -41t-51 -44.5t-46 -39t-51.5 -44t-47.5 -40.5q-265 -221 -506 -381q-16 -12 -20 -25
q11 2 45 7.5t53.5 8.5t49.5 7t57 6t53 2q103 0 176 -41.5t73 -122.5q0 -46 -23 -94.5t-58 -85.5q-143 -149 -379 -248.5t-500 -144.5q-20 -4 -61 -4q-66 0 -125.5 20t-59.5 62q0 26 18 39.5t44 13.5q15 0 39 -8q49 -21 114 -21q31 0 45 2q231 23 452 113t357 229
q62 66 62 127q0 38 -34.5 63.5t-78 34.5t-90.5 9q-46 0 -97 -7.5t-118 -21.5t-92 -18q-65 -11 -101.5 -42t-42.5 -92q-2 -21 -13 -40t-28 -19q-22 0 -22 39q0 66 65 245.5t118.5 303.5t82.5 186q36 79 178 332q9 19 35 40t51 21q16 0 29.5 -11.5t13.5 -28.5q0 -26 -39 -72
q-65 -70 -143 -220.5t-131.5 -281.5t-93.5 -248q-9 -23 -4 -33q7 0 24 13q501 372 760 602q162 146 240 242q88 109 88 172q0 29 -29.5 49t-78 28.5t-87.5 11.5t-80 3q-177 0 -366.5 -48t-365 -131.5t-333.5 -185.5t-301 -221q-82 -68 -149 -176q-35 -53 -66 -53
q-19 0 -32 14.5t-13 32.5q0 28 28.5 68.5t51 63t43.5 40.5q117 106 248.5 202.5t284.5 184.5t306.5 152t320.5 101.5t321 37.5z" />
    <glyph glyph-name="C" unicode="C" horiz-adv-x="1310" 
d="M215 78q0 -191 95.5 -293t269.5 -102q148 0 317.5 78.5t286.5 187.5q18 17 60.5 56.5t66 62t58 56.5t63.5 65t55 63q3 5 17 12.5t24 7.5q14 0 14 -20q0 -8 -5.5 -17t-14 -18t-9.5 -10q-26 -29 -53 -58t-59.5 -61t-54.5 -53.5t-61.5 -58.5t-56 -52t-62.5 -57t-58 -53
q-97 -88 -252 -146.5t-289 -58.5q-42 0 -100 10q-178 36 -256 152.5t-78 334.5q0 159 72 371q32 94 75.5 190.5t102.5 200.5t126.5 197t150.5 177.5t171.5 146t193.5 97.5t212 36q126 0 191 -71t65 -196q0 -107 -35 -210.5t-94 -217.5q-31 -59 -78 -59q-35 0 -35 51
q0 25 13 60q41 92 114 196q49 69 49 154q0 103 -42.5 159t-143.5 56q-120 0 -241 -58t-222 -149q-191 -172 -335 -421t-201 -519q-27 -121 -27 -219z" />
    <glyph glyph-name="D" unicode="D" horiz-adv-x="1839" 
d="M1591 1444q-205 0 -449 -73.5t-463 -205t-337 -286.5q-92 -122 -92 -226q0 -67 41 -116q20 -25 20 -39t-10.5 -24.5t-24.5 -10.5q-6 0 -14 4q-42 18 -64 67.5t-22 110.5q0 76 36 154.5t91 143t128.5 126.5t141 105.5t136.5 80.5q109 59 197 98.5t198.5 77.5t230.5 57
t250 19q76 0 148.5 -9t150.5 -34.5t135 -64.5t94 -104.5t37 -149.5q0 -66 -12.5 -128t-40.5 -126t-49 -103t-61 -108q-181 -310 -512 -586q-214 -179 -312 -250q-287 -205 -557 -258q-48 -10 -82 -10q-54 0 -108 26.5t-54 67.5q0 10 3.5 21t8.5 20.5t14 20.5t16.5 19.5
t20 19.5t20.5 17.5t21.5 16.5t19 14t18 13t14.5 10q17 10 24 19t7 26l-4 17v6q0 10 6.5 29t7.5 24q144 528 428 1073q61 116 109 183q32 45 59 45q16 0 27.5 -12.5t11.5 -26.5q0 -19 -12 -47q-146 -347 -328 -631q-19 -30 -29 -53q-116 -281 -198 -564q-2 -4 -2 -22
q390 206 837 352q8 2 22.5 7.5t24 9t22.5 6t25 2.5q17 0 31 14q318 318 453 664q37 95 37 178q0 67 -29 120t-76.5 86.5t-112 56t-130.5 31.5t-138 9zM1489 211h-4q-10 0 -21 -2.5t-17.5 -4.5t-18.5 -7.5t-15 -6.5q-31 -12 -136 -53.5t-145.5 -57.5t-129 -53t-141 -62
t-123 -61.5t-130.5 -72.5q-98 -61 -133 -92q-39 -35 -47 -62q26 -26 84 -26q30 0 102 14q360 81 875 547z" />
    <glyph glyph-name="E" unicode="E" horiz-adv-x="1372" 
d="M1196 1520q19 0 30 -11t11 -28q0 -16 -6 -37h14q10 0 21 2t24 5.5t19 4.5q284 53 499 53q134 0 134 -41q0 -26 -37 -26q-326 -7 -705 -84q-48 -10 -74 -55q-151 -251 -264 -515q-7 -17 -27.5 -66t-30 -73t-24.5 -64t-26.5 -74t-20.5 -69h10q11 0 22 2t23 6t17 5
q171 40 477 84q10 2 29 2q47 0 47 -23q0 -30 -45 -55q-82 -41 -207 -41l-35 2h-18q-40 0 -88.5 -8t-72 -13.5t-91 -26t-76.5 -22.5q-26 -6 -31 -28q-67 -247 -67 -396q0 -107 52.5 -175t141.5 -68q19 0 27 2q59 7 123 28t104 39.5t109.5 54t97.5 48.5q65 28 84 28
q11 0 20 -5t9 -15q0 -14 -41 -41q-343 -215 -527 -215q-139 0 -212.5 98.5t-73.5 251.5q0 34 3 69t10 75.5t12 64.5t16 72.5t14 62.5q-25 -1 -68 -21t-69 -20q-18 0 -28.5 11.5t-10.5 27.5q0 14 11.5 25t23 16t32 12t25.5 9q13 5 38 11.5t43.5 14t29.5 21.5q10 13 17 29.5
t14 43.5t10 35q130 385 329 733q24 38 27 54h-4q-68 0 -312.5 -83t-293.5 -124q85 -45 174 -45q22 0 35.5 -1.5t26.5 -11t13 -26.5q0 -41 -61 -41q-29 0 -96.5 15t-134 45t-66.5 63q0 21 26.5 45t77 48t104 46t128 45.5t127.5 40t125 35t97 25t65 16.5q18 4 33 15t23 21
t20.5 27.5t19.5 26.5q25 31 49 31z" />
    <glyph glyph-name="F" unicode="F" horiz-adv-x="1421" 
d="M154 496q-29 0 -41.5 35t-12.5 77q0 153 187 344q397 397 854 531q115 35 207 35q146 0 227.5 -76t81.5 -225q0 -119 -47 -269q-21 -70 -47.5 -143.5t-66 -175t-54.5 -140.5q73 -3 91 -11q21 -10 21 -32q0 -36 -67 -36h-12l-25 2q-26 0 -37.5 -6.5t-21.5 -30.5
q-155 -366 -404 -666q-69 -85 -164 -123q-6 -2 -16 -2q-17 0 -28 11.5t-11 27.5q0 26 43 75t72 69q49 34 99.5 91.5t89 113.5t83.5 136.5t70 130t61 123.5q10 24 8 35q-122 -5 -249.5 -31t-204 -51t-217.5 -75q-122 -39 -164 -39q-47 0 -47 28q0 25 47 43q249 97 616 168
q144 27 230 31q29 0 41 31q16 42 55 140t60 153t48 138t43 154q15 65 15 134q0 111 -56.5 160t-164.5 49q-126 0 -270.5 -53t-274.5 -132q-78 -48 -136.5 -86t-130 -92t-125.5 -105.5t-106.5 -117.5t-89.5 -135q-27 -55 -27 -119l7 -31v-16q0 -47 -39 -47z" />
    <glyph glyph-name="G" unicode="G" horiz-adv-x="1259" 
d="M483 -174q-141 0 -218 105.5t-77 263.5q0 129 45 266q199 610 752 940q172 102 332 102q138 0 216.5 -93t78.5 -243q0 -121 -52.5 -237.5t-129.5 -181.5q-14 -11 -31 -11q-18 0 -28.5 11.5t-10.5 31.5q0 45 42.5 118.5t82.5 119.5q45 54 45 158q0 114 -56 178.5
t-157 64.5q-105 0 -223.5 -54t-223 -140.5t-189 -176.5t-149.5 -180q-109 -150 -183.5 -329.5t-74.5 -339.5q0 -132 51.5 -212.5t155.5 -80.5q136 0 281 102q123 88 299 264q70 74 121 111q-5 0 -14 1t-13 1q-33 0 -88 -7.5t-78 -8.5q-58 -3 -120.5 -27.5t-128 -57
t-111.5 -44.5q-8 -2 -23 -2q-25 0 -43 12.5t-18 30.5q0 39 76 67q125 51 311 83t334 32q114 0 114 -39q0 -14 -9.5 -20.5t-18.5 -7.5t-27 -1q-16 0 -29.5 -9.5t-19 -18.5t-16.5 -29q-103 -192 -209 -447q-14 -34 -41 -132t-56 -146q-17 -27 -41 -27q-30 0 -30 39v15
q12 70 37 147.5t45.5 127t59 136.5t54.5 125q-17 -4 -35 -22q-53 -52 -94 -89t-103.5 -85.5t-116.5 -79t-120 -52.5t-127 -22z" />
    <glyph glyph-name="H" unicode="H" horiz-adv-x="1562" 
d="M692 -258q-11 0 -16.5 11.5t-5.5 21.5q0 21 6 39q22 83 52 164.5t84.5 209t66.5 156.5q11 28 10 35q-6 4 -13.5 4.5t-18 -1t-15.5 -1.5q-113 -5 -309.5 -50.5t-258.5 -54.5q-24 -4 -38 -4q-34 0 -39 21q-4 24 36 39q141 53 290.5 78.5t373.5 46.5q33 3 43 32
q35 92 101 251.5t117.5 294t88.5 255.5q2 8 8 26.5t9.5 30.5t6.5 29t3 31q0 25 -25 25q-61 0 -170 -54.5t-188.5 -107.5t-147.5 -105q-51 -39 -118.5 -99t-144.5 -136t-135 -154t-71 -131q-5 -27 -34 -27q-17 0 -31 10.5t-14 28.5q0 27 18 58q112 187 312 366t411 303
q207 121 324 121q96 0 96 -98q0 -48 -29 -145q-35 -115 -82.5 -240t-111.5 -279t-95 -233q-1 -3 -5 -11.5t-5 -12t0 -13.5h240h53l104 -2h52q14 0 23 6t12.5 14t6.5 18q1 4 1 5q70 212 173 445t210 411q3 5 14.5 25.5t20 33t21.5 28.5t27 24t29 8q20 0 32.5 -13.5
t12.5 -37.5q0 -68 -97 -252.5t-165 -286.5q-10 -15 -43 -46t-43 -54q-55 -122 -123 -322q7 -4 14.5 -5.5t17 -1.5t13.5 -1q20 -4 31.5 -15.5t11.5 -25.5q0 -39 -78 -39h-8q-22 0 -31.5 -7t-17.5 -36q-17 -51 -55 -164.5t-59 -178t-49 -161t-48 -180.5q-1 -3 -2.5 -12.5
t-3 -15t-4 -14.5t-5.5 -14t-7 -11t-9.5 -8.5t-11.5 -2.5q-28 0 -28 49q0 56 40 191q27 90 87 276t88 283q-4 5 -8.5 7.5t-7.5 3t-9.5 0t-7.5 -0.5h-84l-172 -2h-84h-19l-39 2q-33 0 -46.5 -6.5t-24.5 -34.5l-185 -442q-1 -4 -7 -18.5t-11.5 -28t-13.5 -31.5t-15.5 -33
t-16 -28.5t-17 -21t-15.5 -7.5z" />
    <glyph glyph-name="I" unicode="I" horiz-adv-x="1085" 
d="M1294 1315q0 65 -14 93t-63 28q-77 0 -173 -35q-426 -159 -690 -508q-51 -66 -90.5 -146.5t-42.5 -146.5q-3 -49 -35 -49q-39 0 -39 59q0 47 23 113q47 123 138 241t206 212t239.5 168t250.5 124q110 45 206 45q147 0 168 -129q0 -3 6 -84q-3 -106 -36 -229
q-182 -650 -494 -1165q-28 -46 -57.5 -89t-77 -104t-96.5 -98t-88 -37q-20 0 -35 12t-15 31q0 39 74 113q22 24 97.5 100t121 131t78.5 117q83 154 179 372.5t177.5 471t81.5 389.5z" />
    <glyph glyph-name="J" unicode="J" horiz-adv-x="964" 
d="M383 1057q56 -20 147.5 -38.5t163.5 -34t145.5 -41.5t122.5 -74t66 -119q21 19 68.5 174t68.5 241q4 17 7.5 27t13 20.5t22.5 10.5q39 0 39 -45q0 -20 -8 -52q-59 -255 -209 -610q-36 -86 -66.5 -154t-82 -168t-100.5 -176t-116.5 -159t-135.5 -136.5t-152.5 -88.5
t-171.5 -35q-92 0 -147.5 44.5t-55.5 120.5q0 65 47 150t113.5 160.5t149 138t164 111t181.5 98.5q45 18 56 18q16 0 16 -14q0 -10 -13.5 -24t-35.5 -28t-42.5 -25.5t-42 -23t-26.5 -14.5q-348 -196 -471 -444q-24 -50 -24 -88q0 -45 33.5 -70.5t89.5 -25.5q96 0 167.5 33.5
t141.5 97.5q241 220 430 688q37 88 37 168q0 50 -19.5 90.5t-57 68t-79 47t-100 33.5t-104 22.5t-106.5 18.5t-93 17q-121 25 -121 82q0 28 24 58t70.5 59.5t72 43.5t69.5 35l12 6q231 107 486 181.5t462 74.5q243 0 256 -125q1 -11 -6 -19.5t-17 -8.5q-9 0 -18 12
q-16 24 -37.5 39t-53 21t-53.5 7t-65 1h-4q-195 0 -436.5 -70.5t-468.5 -171.5q-46 -20 -123 -65.5t-80 -69.5z" />
    <glyph glyph-name="K" unicode="K" horiz-adv-x="1730" 
d="M1913 -283q22 0 22 -22q0 -30 -76 -51t-114 -21q-98 0 -197.5 48t-173.5 120q-57 55 -113 129.5t-82.5 118t-89.5 150.5l-18 30q-35 -63 -77.5 -131.5t-109.5 -163t-130 -166.5t-134.5 -123t-127.5 -51q-28 0 -47 12t-19 35q0 49 61 90l254 177q33 24 45 41
q130 187 213 331q13 23 13 41t-13 41q-96 186 -96 269q0 53 41 53q14 0 24.5 -9t16.5 -26.5t10 -32.5t7.5 -37t5.5 -30q2 -9 22 -76q5 2 25.5 8t28.5 9.5t19.5 12t16.5 19.5q54 112 88.5 188.5t92.5 214t89 249.5t31 186q0 65 -34 90.5t-109 25.5q-67 0 -160 -28
q-392 -125 -665 -387q-62 -57 -115 -137.5t-53 -145.5q0 -49 34 -80q17 -17 17 -35q0 -14 -9 -23t-24 -9q-41 0 -64.5 46.5t-23.5 90.5q0 154 193 334q304 279 706 403q95 29 182 29q205 0 205 -201q0 -87 -47.5 -239t-95.5 -264t-101 -224q-16 -28 -16 -45v-6q24 9 45 18
l43 23q144 77 318.5 232.5t320 335.5t205.5 321q14 36 41 36q17 0 27 -11t10 -27q0 -19 -12 -49t-28.5 -58.5t-40 -63t-40.5 -56.5t-35.5 -46.5t-19.5 -25.5q-84 -108 -176.5 -208t-202.5 -200t-232.5 -179t-240.5 -122q-24 -8 -41 -30.5t-36 -66t-22 -49.5q-8 -13 -8 -28
q0 -11 6 -23q74 -133 137.5 -229t141.5 -178q75 -80 162 -126t202 -46q67 0 121 22q12 6 27 6zM682 -186q-3 -2 -21.5 -14t-23.5 -15t-21 -14t-22.5 -16t-20 -15t-21.5 -17.5t-19 -17t-20 -19.5t-17 -20q109 45 186 148z" />
    <glyph glyph-name="L" unicode="L" horiz-adv-x="1267" 
d="M1200 -152q0 -33 -65 -79q-193 -140 -408 -140q-162 0 -299 54.5t-276 148.5q-11 8 -27 8q-14 0 -38.5 -10t-37.5 -10q-65 0 -109 57.5t-44 122.5v72q0 13 8.5 20.5t21.5 7.5q12 0 25 -10q21 -21 67 -57l72 -56q24 -18 31 -18q2 0 3.5 0.5t3 2t3 2.5t4 4t4 5.5t5 7
t6.5 7.5q104 136 202 311t202.5 380.5t180.5 332.5q32 54 58 95t66.5 96t77.5 95.5t87.5 83t101.5 69.5t113.5 44.5t128.5 17.5q111 0 175.5 -62.5t64.5 -172.5q0 -44 -11 -84q-86 -333 -313 -557q-3 -3 -18 -17.5t-22.5 -21t-22 -16.5t-28 -14.5t-28.5 -4.5q-45 0 -45 35
q0 28 21.5 50t61.5 43.5t48 27.5q171 123 277 457q18 56 18 110q0 78 -39 127t-114 49q-206 0 -346 -155q-111 -125 -175 -234q-163 -275 -321 -608q-164 -347 -348 -555q-1 -1 -4 -10q145 -97 278 -156t271 -59q148 0 280 77q11 6 37.5 37t53.5 56.5t48 25.5
q12 0 22.5 -10.5t10.5 -22.5zM-47 -25q23 -81 90 -81q2 0 6.5 1t7.5 1q-16 12 -51 38t-53 41z" />
    <glyph glyph-name="M" unicode="M" horiz-adv-x="1429" 
d="M782 283q-57 0 -57 143q0 151 26.5 310.5t66 337t54.5 288.5q-63 -59 -139 -164q-331 -457 -518 -936q-16 -40 -31 -85t-34.5 -104t-28.5 -87q-8 -24 -23.5 -44t-36.5 -20q-22 0 -33.5 14.5t-11.5 36.5q0 18 23 84q83 205 165.5 382.5t183.5 360.5t219 349.5t247 304.5
q47 47 82 47q10 0 15.5 -5.5t8 -18t3 -21.5t0.5 -26q0 -27 -7 -62q-9 -43 -44 -202t-55.5 -261.5t-37.5 -204.5q-2 -9 -12 -69.5t-13 -83t-7.5 -67t-4.5 -81.5t6 -53l3 -2q13 0 32.5 20t33 42t30 51t18.5 32q227 354 316 479q189 268 368 445q30 30 81.5 65t88.5 35
q49 0 49 -77q0 -19 -4 -40.5t-8 -34.5t-13 -39t-11 -32q-42 -120 -151 -420.5t-185 -519.5t-140 -428q-36 -126 -36 -211v-20q0 -30 -13.5 -55t-36.5 -25q-49 0 -49 67q0 99 115 433q226 661 426 1216q28 86 31 117q-10 -1 -17 -6t-13.5 -14t-8.5 -11q-341 -355 -635 -801
q-50 -76 -174 -252q-18 -26 -47.5 -51.5t-55.5 -25.5z" />
    <glyph glyph-name="N" unicode="N" horiz-adv-x="1372" 
d="M88 -100q0 22 2 32q120 653 608 1516q35 61 88 61q70 0 70 -65q0 -62 -22 -225q-74 -546 -74 -957q0 -368 86 -526q11 -19 26 -19q22 0 61 46t82 116t69 115t44 80q326 605 570 1315q3 9 8.5 31.5t10.5 36t13 29.5t20.5 24t29.5 8q20 0 32.5 -13.5t12.5 -38.5t-7.5 -53
t-15.5 -46.5t-23 -49.5t-20 -43q-23 -54 -116.5 -275t-132.5 -308.5t-116 -256t-145 -297t-143 -252.5q-75 -126 -121 -178q-68 -78 -123 -78q-41 0 -74.5 40t-53.5 107t-34 140.5t-20.5 153.5t-9 132.5t-2.5 90.5q0 398 77 944q-10 -4 -20 -29q-65 -163 -200 -462
t-191 -433q-6 -15 -18.5 -44.5t-18.5 -45.5l-76 -180q-6 -16 -18.5 -45.5t-18.5 -44.5q-1 -2 -5 -12.5t-6.5 -17t-7.5 -17.5t-9.5 -18t-10.5 -14.5t-12.5 -11t-13.5 -3.5q-31 0 -31 41zM248 258q37 89 162.5 376.5t185.5 448.5q-219 -404 -348 -825z" />
    <glyph glyph-name="O" unicode="O" horiz-adv-x="1660" 
d="M1862 1012q0 -118 -50 -303q-54 -204 -139.5 -387.5t-213.5 -347.5t-279 -265q-128 -84 -267 -84q-92 0 -162.5 39t-111 104.5t-60.5 144t-20 165.5q0 230 88 503t217 488q2 3 5 7t4.5 7t3 7t0.5 8q-10 5 -31 -8q-82 -45 -168.5 -103.5t-182 -140.5t-168.5 -167
t-121 -186t-48 -194q0 -36 16 -55.5t57 -32.5q181 -59 181 -139q0 -14 -11 -23.5t-28 -9.5q-11 0 -17 2q-260 68 -260 278q0 112 59 232t151.5 222t208.5 194.5t228 159t211 106.5q30 11 54 41q23 29 56 64.5t78 78.5t90.5 71t76.5 28q19 0 34 -12.5t15 -30.5
q0 -12 -10 -24.5t-27 -18.5q-28 -9 -58.5 -28t-48 -33t-49.5 -42q-14 -11 -16 -24q188 36 307 36q406 0 406 -327zM637 102q0 -82 15 -152t46 -128t85.5 -91.5t127.5 -33.5q117 0 230 76q220 150 376 426t232 596q33 149 33 219q0 95 -34.5 146t-117.5 79q-76 25 -176 25
q-168 0 -367 -70q-54 -18 -88 -66q-218 -321 -307 -684q-55 -214 -55 -342zM262 145q21 -31 74 -45q-40 40 -74 45z" />
    <glyph glyph-name="P" unicode="P" horiz-adv-x="1605" 
d="M637 -422q-31 0 -31 43q0 35 19 92q38 138 127 396q-23 1 -32.5 2t-26 4.5t-23 11.5t-6.5 20q0 18 9.5 29.5t26.5 11.5q6 0 19 -2t18 -2q31 0 48.5 19.5t31.5 58.5q171 449 287 684q81 166 139 246q1 1 3 4q49 69 83 70q17 0 29 -12.5t12 -26.5q0 -15 -6 -27
q-8 -18 -32 -75t-34 -80.5t-32.5 -72t-39 -77.5t-40 -66.5t-47.5 -68.5q-43 -53 -81.5 -125.5t-58.5 -122.5t-56.5 -148.5t-51.5 -136.5q5 -5 10.5 -6t8 0t8 4.5t6.5 3.5q496 170 802 568q62 80 111 186t49 197q0 133 -117 186q-117 51 -253 51q-169 0 -398 -80
q-399 -142 -667 -438q-70 -77 -107 -152t-37 -167v-19q0 -108 -57 -108t-57 90q0 89 54.5 199.5t123.5 189.5q387 445 966 553q88 16 172 16q91 0 169 -17t142 -53t101 -98t37 -145q0 -84 -32 -174.5t-88 -173.5t-112.5 -150.5t-123.5 -132.5q-277 -266 -707 -414
q-24 -8 -38 -20t-23 -35q-71 -182 -138 -403q-1 -4 -4 -15t-5 -19t-6 -20t-8 -20.5t-9.5 -16.5t-12 -12t-14.5 -4z" />
    <glyph glyph-name="Q" unicode="Q" horiz-adv-x="1171" 
d="M420 154q80 0 151 71q98 98 153.5 241.5t55.5 287.5l-2 26q0 20 2 32t12 23t29 11q47 0 47 -82q0 -333 -235 -584q-39 -42 -94.5 -68t-112.5 -26q-77 0 -133 48t-81.5 118.5t-25.5 150.5q0 218 116.5 459t281.5 410q218 223 434 223q58 0 129 -22q122 -41 173.5 -135.5
t51.5 -254.5q0 -203 -80 -430q-74 -214 -236 -474t-323 -412q-9 -9 -18 -21q3 -2 9 -5.5t9 -4.5q312 -92 547 -92q106 0 181.5 12.5t117.5 50.5q2 2 8.5 8t10 8.5t10 6.5t13 6t13.5 2q15 0 27 -10t12 -25q0 -11 -8 -22q-43 -59 -126 -78t-210 -19q-157 0 -328 28.5
t-315 76.5q-31 11 -59 -11q-126 -96 -240 -96q-73 0 -122.5 44t-49.5 118v25l4 47v24q0 55 -24 74q-32 26 -62.5 55.5t-63 73t-32.5 72.5q0 18 12.5 29.5t28.5 11.5q24 0 35 -23q32 -66 79 -118t112 -92t118 -65.5t138 -61.5q15 -6 22 -9q31 -13 55 8q51 45 104 105
q110 130 201.5 266t171.5 292t125 324t45 326q0 122 -39 186q-75 127 -235 127q-98 0 -189 -51q-206 -116 -354.5 -339.5t-202.5 -479.5q-16 -75 -16 -141q0 -62 16 -117.5t56.5 -97t99.5 -41.5zM553 -268q-175 59 -285 131q0 -43 3.5 -75t13.5 -63t30.5 -47t51.5 -16
q59 0 186 70z" />
    <glyph glyph-name="R" unicode="R" horiz-adv-x="1548" 
d="M1884 -338q0 -24 -21.5 -41.5t-54.5 -26t-63 -12.5t-57 -4q-92 0 -224 53.5t-269 139t-240.5 158.5t-194.5 145q-6 -4 -10.5 -10t-6.5 -10.5t-4.5 -12l-3.5 -10.5q-47 -126 -90 -252q-27 -92 -63 -92q-29 0 -29 43q0 32 16 80q31 98 101 290q8 21 8 35q0 11 -14 17t-30 8
t-30 11t-14 26q0 20 -43 62t-43 65q0 13 13.5 27t29.5 14t33 -17q72 -72 100 -94q21 -18 31 -18q13 0 24 32q148 368 287 615q72 128 119 192q1 1 6.5 8.5t8 10.5t8.5 10t10.5 10.5t11 7.5t13 6t13.5 2q22 0 36 -16t14 -37q0 -10 -9 -37q-20 -53 -46.5 -118.5t-74 -176
t-90.5 -182t-67 -71.5q-9 0 -12 6t-1.5 13t5.5 13q52 95 116 252q1 3 5 10.5t6 12t3.5 11.5t0.5 13q-40 -49 -142.5 -266.5t-119.5 -288.5q11 -7 28 2q496 181 756 525q61 80 107.5 185.5t46.5 197.5q0 81 -45 136t-110.5 78t-145.5 23q-168 0 -314 -53
q-246 -89 -456 -230.5t-343 -328.5q-81 -117 -81 -271q0 -45 -13.5 -79.5t-46.5 -34.5q-51 0 -51 98q0 113 67 241t156 222q332 349 817 487q119 33 226 33q82 0 152.5 -17t130 -53t94 -100.5t34.5 -150.5q0 -117 -57 -234q-85 -177 -238.5 -328.5t-336 -256.5t-388.5 -171
q-28 -8 -28 -20t22 -31q303 -253 645 -420q140 -71 224 -71q56 0 102 28q34 23 61 23q14 0 23.5 -10t9.5 -25z" />
    <glyph glyph-name="S" unicode="S" horiz-adv-x="1159" 
d="M1198 1520q95 0 153 -54.5t58 -169.5q0 -90 -36.5 -189.5t-99 -193t-124.5 -168.5t-133 -147q-45 -45 -76 -45q-11 0 -18 9t-7 22q0 25 13 47q108 218 260 370l8 8l8.5 8.5t8.5 7.5t10.5 7t11 4t12.5 2q13 0 17.5 4t9.5 15q57 125 57 229q0 66 -31.5 107t-101.5 41
q-109 0 -248 -78t-258 -176q-66 -55 -127 -115.5t-128 -140t-107.5 -164.5t-40.5 -158q0 -133 143 -192q63 -26 157 -39t174.5 -16t171.5 -20t152 -50q82 -47 82 -117q0 -68 -59 -143t-129 -134q-70 -58 -126 -97t-132 -80t-161.5 -63t-180.5 -24q-154 4 -154 88q0 45 35 80
q223 233 469 303q32 8 51 8q47 0 52 -36q2 -14 -8 -27t-27 -14q-61 -8 -118.5 -28t-116.5 -54t-99 -61t-103 -74q-17 -11 -43 -38t-26 -44q0 -21 63 -21h2q174 0 353 96.5t309 239.5q70 75 70 121q0 25 -19.5 44t-56 29.5t-59 15t-56.5 9.5q-59 9 -170 16.5t-193.5 21
t-146.5 42.5q-90 41 -134 112t-44 158q0 130 84 254q274 406 678 596q115 56 225 56z" />
    <glyph glyph-name="T" unicode="T" horiz-adv-x="1898" 
d="M2396 1409q0 -13 -9 -22t-24 -9h-26l-51 2h-27q-23 0 -70 -1t-71 -1l-93 -4q-23 0 -70 -1t-71 -1q-40 0 -116 6t-113 6q-71 0 -92 -41q-176 -342 -363 -778q-16 -44 -20 -51q-58 -109 -97 -244.5t-75 -295t-68 -257.5q-8 -26 -27 -51.5t-41 -25.5q-17 0 -25.5 21t-8.5 50
q0 91 72 308t132 358q23 57 23 102q0 32 -10 70q-40 168 -166 294t-297 189q-100 38 -182 78q-29 14 -29 35q0 9 4 16.5t9 12.5t15.5 10t16 7t18 6t15.5 5q219 85 458.5 136.5t577.5 101.5q20 3 39 29t36.5 49.5t37.5 23.5q37 0 37 -39q0 -7 -3 -20.5t-4 -20.5q10 -2 31 -2
q33 0 49 2q205 21 467 21q211 0 211 -74zM1114 551q173 413 365 811q-52 -10 -188.5 -34.5t-206.5 -38t-180 -37.5t-203 -51.5t-183 -61.5q118 -38 211 -88t172 -120t133 -165.5t80 -214.5z" />
    <glyph glyph-name="U" unicode="U" horiz-adv-x="974" 
d="M160 -41q0 44 4 64q23 161 108 464q142 518 375 928q11 21 18 33t21.5 32.5t31 31t34.5 10.5q16 0 27.5 -11t11.5 -30q0 -3 -5 -23q-101 -357 -331 -692q-22 -32 -29 -57q-130 -392 -184 -682q-9 -56 -9 -90q0 -50 14 -83.5t44 -33.5q80 0 280 274q245 354 539 897
q22 42 47 109q45 111 162 334q13 26 39 56t51 30q13 0 28 -14.5t15 -30.5q0 -14 -12 -23q-9 -7 -17 -17.5t-12 -18.5t-10.5 -21.5t-9.5 -20.5q-175 -309 -336 -758q-18 -52 -62.5 -172t-68.5 -190t-57 -174.5t-54.5 -201t-34.5 -193.5q-8 -56 -22 -69q-8 -7 -19 -7
q-32 0 -32 49q0 19 2 27q8 51 17 101t23 107t23 96.5t29 105t28 93t32.5 101.5t30 90.5t33.5 99t31 90.5q4 9 -2 19q-85 -142 -135 -223t-129 -197.5t-153 -208.5q-158 -201 -256 -201q-37 0 -65.5 34t-41 78.5t-12.5 88.5zM604 1145q3 5 10.5 15.5t7 12.5t-0.5 13
q-15 -19 -17 -41z" />
    <glyph glyph-name="V" unicode="V" horiz-adv-x="956" 
d="M610 1434q0 -20 -10 -43q-109 -288 -176 -754q-2 -13 -10 -68.5t-10.5 -72.5t-9.5 -67t-9.5 -72.5t-8 -67.5t-7.5 -74.5t-4.5 -70t-3.5 -77.5t-1 -75v-25q0 -62 1.5 -97.5t11.5 -85.5t30 -75q46 32 95 92q60 75 125.5 177.5t95.5 156t106 189.5q64 114 99 251
q103 420 274 783q2 4 14 29.5t18.5 38.5t20.5 36t26 35.5t28.5 22.5t33.5 10q20 0 32.5 -14t12.5 -41q0 -47 -38 -163t-74 -208q-216 -569 -565 -1129q-24 -39 -54.5 -83.5t-79 -109t-95 -106t-77.5 -41.5q-34 0 -58.5 34.5t-37 80.5t-19.5 109t-8.5 101t-1.5 77
q0 128 15 254q78 709 225 1130q19 56 51 56q20 0 31.5 -13t11.5 -30zM1274 1354q-135 -245 -240 -606q162 346 240 606z" />
    <glyph glyph-name="W" unicode="W" horiz-adv-x="1587" 
d="M1972 1534q39 0 39 -47q0 -6 -1 -13t-2.5 -15t-2.5 -13q-71 -327 -203 -635q-129 -302 -234.5 -525t-224.5 -421q-17 -30 -41.5 -64.5t-58.5 -75.5t-71 -67.5t-66 -26.5q-37 0 -86 52q-111 122 -111 403q0 329 121 813v14h-2l-2 2q-13 -28 -50 -107t-55.5 -117t-49 -100
t-58.5 -113.5t-57 -100.5q-23 -39 -64.5 -114.5t-68.5 -121.5t-70 -104t-88 -100q-54 -50 -96 -50q-33 0 -57 26.5t-35 70t-16 85.5t-5 87q0 84 16 206q67 498 238 973q1 4 6.5 20.5t9 26t10 28t12.5 30t13.5 27.5t15.5 26t17.5 20t19.5 14.5t21 4.5q24 0 36.5 -17.5
t12.5 -46.5q0 -18 -2 -26q-25 -161 -91 -353.5t-147 -316.5q-11 -18 -14 -33q-27 -124 -42 -200t-28.5 -185.5t-13.5 -203.5v-15q0 -178 35 -178q30 0 90 74t90 125q24 42 88.5 155t97.5 172.5t81 152.5t83 173q23 51 62 145.5t72.5 170.5t68.5 139q9 15 28.5 24.5t39.5 9.5
q47 0 47 -47q0 -10 -8 -34q-126 -342 -193 -771q-37 -232 -37 -370q0 -217 76 -326q23 -33 41 -33q48 0 190 222q60 96 120 214.5t99 205t101.5 230.5t95.5 218q18 40 33 87t30.5 106t24.5 90q24 73 29 94l61 188q5 21 29 94q5 16 7.5 22t9 20t15 20t19.5 6z" />
    <glyph glyph-name="X" unicode="X" horiz-adv-x="1320" 
d="M-139 -340q0 40 26 90q213 426 731 936q29 29 29 55q0 15 -6 33q-100 272 -149 553q-2 11 -7.5 37t-8.5 47.5t-3 40.5q0 33 11.5 56.5t35.5 23.5q17 0 32 -13.5t21 -25t15 -31.5q48 -99 82.5 -264t34.5 -285l-3 -24q0 -36 23 -90q9 3 16.5 8t18 15t12.5 12
q349 315 576 483q168 121 249 166q71 37 99 37q17 0 31 -11.5t14 -31.5q0 -29 -31 -41q-96 -44 -201.5 -112t-169 -116.5t-180.5 -142.5q-401 -330 -401 -352q0 -13 10 -35q142 -370 311 -651q41 -68 94 -138t127 -141.5t136 -95.5q1 0 4 -1l4.5 -1.5l4.5 -1.5t4 -1.5
t3.5 -2t3 -2.5t2 -3t1.5 -4v-4.5t-1 -5.5q-8 -24 -41 -24q-41 0 -88 26q-61 34 -122.5 94t-112 125.5t-105 156t-93 164t-84 173t-70.5 159.5t-60 146q-29 -8 -167.5 -160.5t-201.5 -230.5q-25 -33 -43 -72q-106 -238 -262 -475q-2 -2 -11 -16.5t-14.5 -22.5t-16 -21.5
t-19.5 -21.5t-20.5 -14t-22.5 -6q-23 0 -35 17t-12 38zM6 -197q50 60 129 205q-86 -107 -129 -205z" />
    <glyph glyph-name="Y" unicode="Y" horiz-adv-x="1171" 
d="M307 166q-78 0 -78 110q0 49 19 123q129 533 377 928q27 43 38.5 60t37 49t49.5 51q20 14 38 14t28.5 -13t10.5 -34q0 -12 -2 -18q-22 -75 -67.5 -153.5t-90 -136.5t-95 -136t-78.5 -146q-44 -106 -69 -175t-51.5 -172t-35.5 -202v-20q0 -33 8 -49q8 -1 16.5 1.5
t13.5 5.5t14 9t13 8q176 104 320 242q409 393 690 793q57 82 72 125q8 20 39.5 61t52.5 41q22 0 22 -35q0 -23 -8 -43q-10 -21 -57.5 -96.5t-63.5 -124.5q-17 -53 -49.5 -163.5t-60 -195.5t-57.5 -161q-59 -153 -111.5 -270.5t-122 -248.5t-152.5 -242.5t-178 -199.5
q-153 -141 -360 -141q-76 0 -180 70q-27 20 -27 53q0 41 39 41q45 0 76 -39q33 -41 90 -41q93 0 178 38.5t150 104.5q164 167 270 352q245 435 393 916q0 6 2 22q-388 -486 -719 -759q-251 -203 -344 -203z" />
    <glyph glyph-name="Z" unicode="Z" horiz-adv-x="1210" 
d="M367 762q-26 0 -42 26.5t-16 59.5q0 42 17.5 85t34 66.5t47.5 63.5q151 188 410.5 317t498.5 129q88 0 144.5 -34.5t56.5 -100.5q0 -48 -19 -88.5t-53 -85.5q-59 -82 -133.5 -159.5t-164 -149t-165.5 -125.5t-180 -123q-33 -19 -41 -33q161 33 237 33q126 0 206.5 -54.5
t80.5 -154.5q0 -84 -54.5 -179t-135.5 -176t-184 -160t-191 -133.5t-166 -94.5q-75 -39 -191 -77t-184 -38q-63 0 -63 43q0 38 75 83.5t179.5 81t187 59.5t123.5 32q38 6 68 27q65 43 133.5 98.5t146 130t127 155.5t49.5 148q0 63 -57.5 95t-142.5 32q-252 0 -500 -143
q-5 -3 -18.5 -12.5t-25 -15t-22.5 -5.5q-12 0 -22 9.5t-10 21.5q0 9 5.5 17.5t11.5 13.5t15.5 12.5t12.5 9.5q81 67 196 149t210 148.5t196 144.5t191 169t157 188q41 59 41 104q0 70 -121 70q-52 0 -129 -15q-363 -72 -627 -307q-61 -55 -116.5 -132.5t-55.5 -137.5
q0 -8 2 -12l4 -29q2 -4 2 -12q0 -16 -10.5 -25.5t-25.5 -9.5z" />
    <glyph glyph-name="bracketleft" unicode="[" horiz-adv-x="425" 
d="M147 -154q-39 0 -55 10t-16 40q0 40 31 139t57 162q11 29 118.5 323t168.5 445q16 39 55 132.5t59 145.5q8 22 25 37t32.5 22.5t47.5 12t48.5 5t57.5 1.5q15 0 24.5 -1.5t17 -8t7.5 -19.5q0 -21 -34 -31t-77 -15.5t-55 -14.5q-10 -8 -16 -20.5t-11 -30.5t-9 -27
q-123 -287 -406 -1044q-1 -2 -49 -156q-9 -22 -2 -35q5 -1 39 -2.5t57 -9t23 -23.5q0 -37 -138 -37z" />
    <glyph glyph-name="backslash" unicode="\" horiz-adv-x="479" 
d="M373 -25q-51 0 -51 109q0 319 90 778q17 88 24.5 123.5t25.5 102.5t38 116q17 43 37 43q23 0 41 -19.5t18 -39.5q0 -16 -6 -31q-81 -221 -129 -522t-58 -578q0 -82 -30 -82z" />
    <glyph glyph-name="bracketright" unicode="]" horiz-adv-x="370" 
d="M623 1319q39 0 55 -10t16 -39q0 -26 -12 -62q-146 -468 -363 -1007q-15 -37 -54 -132t-60 -147q-8 -22 -25 -37t-32.5 -22.5t-47.5 -12t-48.5 -5t-57.5 -1.5q-15 0 -24.5 1.5t-17 8t-7.5 19.5q0 21 34 31t77 15.5t55 14.5q10 8 16 20.5t11 30.5t9 27q35 83 73.5 177
t66.5 164.5t70.5 183t63 166t69 184t63.5 170.5q3 9 49 155q9 22 2 35q-5 1 -39 2.5t-57 9t-23 23.5q0 37 138 37z" />
    <glyph glyph-name="asciicircum" unicode="^" horiz-adv-x="544" 
d="M385 905q0 6 2 8q137 183 266 277q6 4 17 4q30 0 57.5 -65.5t40.5 -125t18 -98.5v-12q0 -37 -36 -37q-27 0 -41 33q-19 42 -64 166q-25 -24 -76.5 -72t-74.5 -70q-3 -2 -15 -13.5t-17.5 -16.5t-16.5 -10t-21 -5q-11 0 -25 12.5t-14 24.5z" />
    <glyph glyph-name="underscore" unicode="_" 
d="M250 0q5 0 19.5 -0.5t23 -1.5t19.5 -3.5t16.5 -8.5t5.5 -15q0 -17 -18.5 -27t-39.5 -12q-22 -2 -71.5 -8.5t-86.5 -10t-71 -3.5q-51 0 -51 41t63 41q6 0 17.5 -0.5t21 -0.5t17.5 1z" />
    <glyph glyph-name="grave" unicode="`" horiz-adv-x="378" 
d="M573 858q-27 0 -41 29q-24 53 -35 79t-25.5 80.5t-14.5 100.5q0 49 39 49q28 0 55.5 -66.5t41.5 -128.5t19 -98v-8q0 -37 -39 -37z" />
    <glyph glyph-name="a" unicode="a" horiz-adv-x="618" 
d="M383 188q-47 -31 -128 -96t-124 -94q-17 -10 -31 -10q-19 0 -32 14t-13 35q0 24 19 67q17 39 39.5 76.5t53.5 78.5t70.5 66t79.5 25q59 0 101 -48.5t57 -113.5q9 -41 23.5 -59t38.5 -18q41 0 104 38.5t115 81.5q43 43 63 43q15 0 15 -10q0 -18 -19 -37q-1 -1 -21.5 -20
t-30.5 -28t-34 -29.5t-41 -32.5t-42 -28t-45 -25.5t-43.5 -16t-43.5 -6.5q-50 0 -78 37.5t-53 109.5zM178 109q7 5 21.5 14t21.5 14l86 56q24 17 43 28q8 5 8 12q0 10 -16 19.5t-25 9.5q-40 0 -80 -52t-59 -101z" />
    <glyph glyph-name="b" unicode="b" horiz-adv-x="679" 
d="M741 1229q37 0 57.5 -28.5t20.5 -76.5q0 -82 -61 -211q-136 -293 -387 -532q-51 -51 -95 -62q-16 -4 -22 -14.5t-8.5 -26.5t-7.5 -24q18 10 71 48.5t97.5 58.5t93.5 20q69 0 69 -78q0 -55 -34 -145q9 -3 36 8q270 108 308 108q20 0 20 -16q0 -6 -4 -11t-12 -10t-13 -7.5
t-15 -6.5t-11 -4q-50 -24 -145 -61t-119 -47q-5 -2 -23.5 -9.5t-24.5 -10t-20.5 -9.5t-22 -13t-17.5 -15t-17 -19q-41 -57 -106.5 -112.5t-117.5 -55.5q-18 0 -31.5 12t-13.5 31q0 32 39.5 65t81.5 54q29 15 53.5 36.5t40 41.5t32 52t25.5 53t23 58q6 17 -3 22t-21 -1
q-142 -53 -264 -168q-7 -6 -18.5 -25t-24 -32t-27.5 -13q-19 0 -28 12t-9 29q0 28 10 51q191 522 406 856q148 228 239 228zM731 1135q-59 -62 -114.5 -137.5t-93 -136.5t-87 -159.5t-73 -150.5t-74.5 -166q22 8 51 37q243 243 365 551q28 72 28 129q0 23 -2 33z" />
    <glyph glyph-name="c" unicode="c" horiz-adv-x="466" 
d="M670 274q12 0 12 -10q0 -4 -3 -9t-7 -8.5t-9 -8t-6 -5.5q-13 -10 -46 -37t-48.5 -39.5t-45 -35t-50 -36.5t-48.5 -30.5t-54 -29.5q-84 -43 -148 -43q-51 0 -84 35t-33 92q0 77 36.5 142t96.5 105q25 19 60 19q32 0 54 -15.5t22 -44.5q0 -16 -6.5 -27.5t-16.5 -11.5
q-6 0 -21.5 8.5t-21.5 8.5q-18 0 -39 -21q-68 -65 -78 -153q0 -38 12 -54t40 -16q42 0 96 21q39 17 84 43t68 41t80 56t67 48q24 16 37 16z" />
    <glyph glyph-name="d" unicode="d" horiz-adv-x="724" 
d="M915 274q6 0 11.5 -5.5t5.5 -10.5q0 -8 -17 -31q-313 -405 -491 -405q-43 0 -69.5 36.5t-26.5 100.5q0 13 1 26.5t4 28t5 25.5t7.5 27t7.5 24t9 25.5l9 22.5t9.5 23.5t8.5 20.5q14 28 14 49q-99 -102 -194 -184q-4 -3 -19.5 -17t-25 -21t-25.5 -14t-30 -7
q-23 0 -36.5 17.5t-13.5 43.5q0 15 2 23q50 185 199 295q43 32 74 32t80 -37q8 -4 10 -4q24 0 56 47t46 80q94 231 299 574q75 123 123 123q18 0 32.5 -15.5t14.5 -33.5q0 -9 -3 -20t-6 -18t-9 -20.5t-8 -17.5q-114 -269 -312 -561q-79 -118 -165 -293.5t-86 -268.5
q0 -49 38 -49q46 0 112.5 42t133 106.5t115 117.5t84.5 97q2 2 7 10.5t9.5 12t9.5 3.5zM848 928q-31 -37 -74 -117.5t-51 -114.5q93 152 125 232zM322 303q-106 -75 -152 -192l4 -2q35 28 114 100t79 84q0 16 -25 16q-11 0 -20 -6z" />
    <glyph glyph-name="e" unicode="e" horiz-adv-x="464" 
d="M176 106q0 -55 72 -55q114 0 303 135q3 2 29 27t50 43t38 18t14 -12q0 -19 -14 -33q-189 -174 -375 -229q-33 -10 -60 -10q-59 0 -97 34.5t-38 90.5q0 78 42.5 140.5t109.5 104.5q33 19 57 19q22 0 38.5 -15.5t16.5 -37.5q0 -3 -6 -27q-17 -52 -58.5 -96t-92.5 -66
q-1 -1 -8 -4.5t-8.5 -5t-5.5 -5t-5.5 -7.5t-1.5 -9zM270 279q-20 -17 -27.5 -24t-19 -24.5t-16.5 -37.5q35 29 45.5 43t17.5 43z" />
    <glyph glyph-name="f" unicode="f" horiz-adv-x="405" 
d="M199 74q-9 0 -12.5 -6.5t-6.5 -26.5q-45 -351 -147 -520q-47 -80 -90 -80q-49 0 -49 63q0 29 6 56q41 240 174 555q17 42 61.5 137t113.5 229t136.5 253.5t133.5 203.5t102 84q22 0 34.5 -15t12.5 -36q0 -25 -23 -82q-44 -95 -127 -225t-137 -142q-4 -1 -7 -2t-5.5 -4
t-3.5 -4.5t-3.5 -6t-3.5 -5.5q-86 -154 -157 -314q-4 -12 -4 -18q0 -23 29 -35t63 -12q16 0 24 2q17 4 34.5 9t32 10t33 13t30.5 13.5t31.5 16t29 16t30 17.5t28 16.5t29 18.5t27.5 17q4 4 11 4q8 0 8 -10q0 -29 -110 -94t-160 -84q-52 -20 -95 -20q-10 0 -16 2l-41 4
q-6 2 -16 2zM461 678q37 40 61 106q-43 -52 -61 -106zM-12 -430q107 189 135 420q-78 -172 -135 -420z" />
    <glyph glyph-name="g" unicode="g" horiz-adv-x="581" 
d="M475 276q26 0 39.5 -23.5t13.5 -59.5q0 -17 -2.5 -34.5t-5 -28.5t-8 -33l-8.5 -34q3 3 139 113q3 2 24 20.5t40 34t42.5 29.5t36.5 14q7 0 15 -8q5 -7 5.5 -12.5t-3 -11t-6.5 -8.5t-10 -8t-9 -7q-217 -180 -280 -231q-46 -37 -68 -84q-138 -297 -348 -512
q-40 -40 -91 -75.5t-89 -35.5q-25 0 -41.5 15t-16.5 47q0 40 22.5 86.5t65.5 96t70 78t70 68.5q84 78 252 230q25 20 62.5 110t57.5 154q1 3 3 8.5t2.5 8.5t1 7.5t-0.5 9t-4 9.5q-6 0 -11.5 -1.5t-12 -4t-10 -4t-10.5 -6t-9 -6t-10.5 -7t-9.5 -6.5q-25 -18 -81.5 -60.5
t-100 -72.5t-85.5 -55q-18 -11 -28 -11q-21 0 -35 16t-14 38q0 14 2 20q67 171 182 252q50 35 88 35q59 0 94 -94q4 2 22 13t31 16t27 5zM160 94q80 50 162 99q14 8 14 22q0 13 -10 23t-25 10q-6 0 -22 -8q-73 -42 -119 -146zM248 -248q-69 -59 -104 -90.5t-89.5 -85.5
t-93.5 -102q-2 -3 -13.5 -16.5t-17 -21t-14 -21t-12.5 -26t-4 -24.5t2 -18q105 75 185.5 174t160.5 231z" />
    <glyph glyph-name="h" unicode="h" horiz-adv-x="612" 
d="M809 1214q0 -31 -21 -69q-144 -288 -307 -451q-17 -17 -26 -35q-164 -308 -242 -464q-10 -15 -2 -27q18 15 66 56.5t84 69.5t73 50q38 21 64 21q49 0 49 -54q0 -49 -34 -124t-40 -109q50 0 88 28q34 24 95 70t83 62q45 36 68 36q8 0 14 -5.5t6 -14.5q0 -5 -2.5 -10
t-5.5 -9t-8 -9t-8.5 -7.5t-8.5 -6.5t-6 -5q-25 -20 -54.5 -42t-64.5 -48t-55 -41q-88 -70 -151 -70q-68 0 -68 68q0 21 7.5 49.5t13.5 45.5t19.5 48.5t13.5 32.5l-7 6q-161 -129 -338 -295q-2 -2 -9.5 -9t-12.5 -11t-12.5 -7.5t-14.5 -3.5q-14 0 -22 10t-8 23q0 8 22.5 72.5
t28.5 75.5q198 425 473 899q33 58 129 192q45 64 82 64q22 0 35.5 -15.5t13.5 -36.5z" />
    <glyph glyph-name="i" unicode="i" horiz-adv-x="337" 
d="M328 481q-9 -12 -25 -12q-22 0 -22 29q0 30 34.5 101t63.5 71q17 0 30 -12t13 -29q0 -7 -8 -23q-42 -66 -86 -125zM252 387q16 0 27.5 -13t11.5 -28q0 -13 -10 -33q-63 -114 -82 -169q-11 -34 -17 -68l-2 -6q0 -27 23 -27q37 0 92 39q50 31 128.5 101t100.5 87q4 4 13 4
q16 0 16 -16q0 -24 -91.5 -105t-148.5 -124q-27 -19 -38 -26.5t-36.5 -17.5t-50.5 -10q-37 0 -61.5 27t-24.5 72q3 46 20 98.5t32 84.5t43 83q26 47 55 47z" />
    <glyph glyph-name="j" unicode="j" horiz-adv-x="309" 
d="M311 627q18 0 28.5 -11.5t10.5 -29.5q0 -40 -27.5 -91t-58.5 -51l-4 2q-8 2 -13 7.5t-6 8t-2 12.5l-1 11q21 142 73 142zM248 297q0 -40 -22.5 -107.5t-50 -132.5t-30.5 -75l5 -2q131 119 317 272q29 22 43 22t14 -22q0 -5 -3.5 -10t-7 -8t-10 -8t-9.5 -7
q-23 -19 -114.5 -96t-148.5 -126.5t-112 -100.5q-28 -25 -47 -62q-107 -193 -198 -324.5t-208 -226.5q-1 -1 -9.5 -8t-11 -8.5t-10.5 -7.5t-12 -8.5t-12 -7t-13.5 -6.5t-12.5 -4.5t-14.5 -3.5t-14.5 -1q-39 0 -39 37q0 17 8 30q104 207 383 459q54 48 84 109
q119 237 172 430q15 55 45 55q39 0 39 -51zM-139 -354q-60 -60 -97.5 -100t-83.5 -99.5t-77 -116.5q164 129 258 316z" />
    <glyph glyph-name="k" unicode="k" horiz-adv-x="575" 
d="M406 -31q-16 0 -30 3.5t-27.5 12.5t-23 15t-22.5 22t-18 22t-18.5 25t-16.5 23q-42 -39 -92 -100q-32 -37 -54 -37q-16 0 -25 21t-9 44q0 21 10 48q229 549 438 907q56 94 113 168q45 57 82 57q32 0 32 -49q0 -26 -10 -49q-138 -302 -291 -457q-6 -7 -20 -29
q-11 -22 -38.5 -76.5t-40.5 -80.5t-36 -74.5t-38 -81.5t-33 -76.5t-33 -83.5q19 15 71 56.5t86.5 66.5t73.5 47q26 15 58 15q45 0 45 -35q0 -36 -35 -39q-23 -2 -48 -12t-37.5 -16.5t-43 -27.5t-35.5 -24q-16 -11 -16 -31q0 -36 33.5 -74t66.5 -38q48 0 133 61
q53 37 168 148q34 34 49 34q17 0 17 -12q0 -25 -92 -108t-152 -129q-78 -56 -141 -56z" />
    <glyph glyph-name="l" unicode="l" horiz-adv-x="423" 
d="M623 274q6 0 13 -7t7 -13q0 -4 -2.5 -8.5t-5 -7.5t-7.5 -7t-7 -6q-77 -73 -275 -225q-62 -47 -115 -47h-4q-102 0 -102 121q0 49 20 131q31 107 131 330q163 357 308 557q100 137 151 137q25 0 39 -18.5t14 -43.5q0 -30 -28 -106q-70 -176 -196 -364.5t-271 -354.5
q-11 -11 -12 -14q-82 -168 -82 -287q0 -33 34 -33q33 0 60 19q200 128 299 225q22 22 31 22zM705 1108q-60 -57 -177.5 -265t-152.5 -313q121 166 200 298t130 280z" />
    <glyph glyph-name="m" unicode="m" horiz-adv-x="727" 
d="M688 270q0 -27 -15.5 -73.5t-15.5 -69.5q0 -18 21 -18q7 0 43 18q25 12 52.5 31.5t42.5 32t48 41.5t41 36q6 6 15 6t15.5 -7t6.5 -17q0 -15 -20 -35l-24 -23q-25 -22 -28.5 -24.5t-25.5 -21.5t-30 -24t-27.5 -19.5t-32.5 -20.5t-31 -14.5t-35 -14.5q-18 -6 -35 -6
q-31 0 -49 22t-18 60q0 18 8 84q-53 -35 -143 -125q-44 -53 -70 -53q-21 0 -21 45q0 46 39 196q-22 -9 -49 -40l-108 -123q-70 -82 -105 -125q-1 -1 -4.5 -6t-4.5 -7t-4.5 -6t-6 -5.5t-5.5 -4t-6.5 -3.5t-7.5 -1q-16 0 -25.5 11t-9.5 24q0 5 5 30q10 39 31.5 102t52 139.5
t68.5 130.5t69 54q14 0 26.5 -12.5t12.5 -25.5q0 -19 -27 -62q-6 -10 -21.5 -34t-24 -37.5t-18.5 -35t-16 -40.5q7 2 12.5 6t11 11t7.5 9l20 23q20 22 30.5 33.5t33.5 35t39 38t36 30.5t36 23.5t28 7.5q33 0 33 -47q0 -22 -8 -46.5t-21.5 -52.5t-17.5 -41q-6 -18 -6 -22
q0 -8 2 -12q17 13 45 37.5t52 43.5t48 35q20 13 35 13q22 0 36.5 -15.5t14.5 -38.5z" />
    <glyph glyph-name="n" unicode="n" horiz-adv-x="692" 
d="M248 375q19 0 30 -12t11 -27q0 -8 -3.5 -18.5t-6.5 -16.5t-10.5 -18.5t-8.5 -14.5q-56 -92 -76 -149q23 17 49 38t42.5 36t47 42.5t42.5 38.5q3 3 15.5 15t19 17.5t18 11.5t20.5 6q63 0 68 -146q3 -35 45 -35q61 0 143.5 34t141.5 75q35 22 53 22t18 -14q0 -19 -16 -31
q-167 -140 -336 -166q-8 -2 -23 -2q-30 0 -50.5 9.5t-31.5 21.5t-18.5 38.5t-9.5 43.5t-5 54q-1 8 -1 12q-8 0 -15.5 -3.5t-11.5 -6.5t-12 -10t-10 -9q-25 -25 -37 -35l-76 -74q-18 -15 -37 -34q-3 -2 -19 -17t-25 -22.5t-24 -15t-28 -7.5q-21 0 -32 17t-11 45q0 81 131 286
q12 21 39 21z" />
    <glyph glyph-name="o" unicode="o" 
d="M49 72q0 57 36.5 131t80.5 114q46 43 78 43q37 0 88 -63q61 -80 143 -80q35 0 64 10q2 1 51 24t67 23q17 0 17 -12q0 -32 -87 -69t-130 -37t-133 37q-88 -203 -191 -203q-36 0 -60 24.5t-24 57.5zM139 68q34 12 55.5 36.5t43.5 63.5l9 18t10 20.5t6 18t3 21.5q0 9 -8 33
q-46 -23 -82 -86t-37 -125z" />
    <glyph glyph-name="p" unicode="p" horiz-adv-x="679" 
d="M502 350q25 0 42 -20.5t17 -53.5q0 -17 -9 -46.5t-9 -43.5q0 -10 2 -16q21 8 76 29t83.5 31t75 23.5t86.5 20.5h6q23 0 23 -18q0 -17 -18 -23q-9 -3 -336 -118q-37 -13 -52 -41q-15 -25 -26.5 -41.5t-31.5 -39t-44.5 -34.5t-52.5 -12q-20 0 -34.5 12t-14.5 33
q0 27 27.5 52.5t52.5 35.5q20 9 36 23.5t24.5 26t18 36.5t12.5 35t11 41q-17 -2 -41 -21q-331 -254 -547 -825q-1 -2 -3.5 -10t-3.5 -10.5t-4 -9t-5.5 -9l-6 -6t-8 -5t-10.5 -1.5q-37 0 -37 51q0 29 4 41q30 113 123 358q106 279 277 580q0 1 6 11t8.5 14.5t8.5 15
t10.5 16.5t11.5 15t13 14.5t13 11t14.5 8t14.5 2.5q39 0 39 -45q0 -41 -16 -75.5t-36 -54.5t-45 -47t-36 -50q-99 -194 -129 -268q-1 -3 -4.5 -11t-5.5 -15t-2 -15q6 4 11 10.5t9.5 14t7.5 10.5q153 224 320 366l6 6q7 6 8.5 7.5t8 6.5t9.5 7l9 6t10.5 6t10 4t11 3t11.5 1z
" />
    <glyph glyph-name="q" unicode="q" horiz-adv-x="491" 
d="M41 23q0 12 8 40q39 158 162 285q43 43 84 43q51 0 92 -63q6 -10 26.5 -29.5t20.5 -34.5q0 -13 -10 -33q-136 -275 -162 -333q6 -1 12 1t9 4t9 7t7 6q19 14 38.5 29.5t35 28t36.5 32t33 30t35.5 34t32 31.5t34.5 34.5t31 32t34 35.5t32 33q29 38 49 38q17 0 17 -12
q0 -16 -21 -37q-203 -235 -381 -377l-4 -2q-29 -13 -46.5 -35.5t-24 -44t-11.5 -55.5q-5 -37 -12 -80t-23.5 -117.5t-36 -130.5t-49.5 -98.5t-63 -42.5q-35 0 -53.5 27t-18.5 61q0 23 17 80q134 380 266 643q18 35 14 58l-27 -27l-55 -53q-2 -2 -11 -12t-15 -15
q-39 -35 -60 -35q-22 0 -36.5 17t-14.5 37zM150 92q116 109 180 158q8 5 8 14q0 11 -15 22t-24 11q-34 0 -87 -80t-62 -125zM147 -387q-25 -33 -62.5 -141.5t-37.5 -145.5v-16q10 14 19 29t16 27.5t13.5 30.5t11 29t9.5 32t7.5 29.5t7 32t5.5 30t5.5 32.5t5.5 31z" />
    <glyph glyph-name="r" unicode="r" horiz-adv-x="456" 
d="M88 -39q-16 0 -16 29q0 22 16 78q9 34 22.5 69.5t33.5 83t28 68.5q11 33 43 33q16 0 28.5 -12.5t12.5 -33.5q0 -12 -2 -21t-7.5 -24.5t-8.5 -23.5q92 79 106 90q37 29 55 29q30 0 56 -45q22 -37 67 -37q22 0 71 15t73 15q14 0 14 -12q0 -31 -76 -61.5t-112 -30.5
q-62 0 -93 53q-15 29 -43 10q-72 -49 -137 -124q-3 -4 -31.5 -44.5t-56 -72t-43.5 -31.5z" />
    <glyph glyph-name="s" unicode="s" horiz-adv-x="268" 
d="M-63 -80h-11q-32 0 -32 35q0 14 10 23.5t28 9.5h15q63 0 159 47q19 8 24 21t5 38v19q0 177 60 252q31 36 59 36q20 0 33.5 -15t13.5 -34q0 -21 -12 -44t-27 -34q-26 -23 -33.5 -49t-7.5 -69v-45q18 9 37.5 21t30.5 19.5t34.5 25t30.5 22.5q6 4 42.5 33t58.5 40q4 2 10 2
q18 0 18 -16q0 -11 -29.5 -38.5t-75.5 -60.5t-75 -53t-53 -36q-31 -19 -31 -56v-24q0 -64 -25 -119t-67 -55q-49 0 -141 82q-22 22 -49 22zM137 -43q0 23 -10 31q-15 -7 -47 -23t-49 -24q5 -4 17.5 -13.5t19 -14t16.5 -9t18 -4.5q35 0 35 57z" />
    <glyph glyph-name="t" unicode="t" horiz-adv-x="309" 
d="M618 1202q17 0 30.5 -14t13.5 -29q0 -26 -75 -163.5t-118 -207.5h23q17 0 35 2.5t40.5 7.5t32.5 7q14 2 82 12t95.5 13.5t78.5 7.5t92 4q39 0 80 -15t41 -43q0 -32 -51 -32q-18 0 -52 4t-44 4q-85 0 -237.5 -10t-186.5 -11q-34 -2 -54.5 -14.5t-33.5 -44.5
q-13 -30 -47 -110.5t-51 -121.5t-43.5 -107.5t-45.5 -124t-35 -114.5q-26 -98 -26 -141v-6l2 -10v-6q10 1 19.5 4.5t14.5 7t13.5 11t11.5 9.5q45 37 89 85t95.5 111.5t79.5 94.5q8 12 25 12q12 0 12 -14q0 -8 -5 -18.5t-13 -21.5t-15 -20t-15 -18t-9 -10
q-220 -293 -315 -293q-30 0 -48 32t-18 75q0 183 227 694q11 22 11 31v6q-20 4 -31 4q-27 0 -83 -5t-83 -5h-55q-45 0 -78.5 2t-73 9t-61 24t-21.5 42q0 15 11 27t24 12t25 -12q36 -37 89.5 -48t135.5 -11h123q50 0 80.5 10t44.5 41q103 223 161 313q38 63 65 76q11 6 21 6z
" />
    <glyph glyph-name="u" unicode="u" horiz-adv-x="530" 
d="M219 344q19 0 30 -12t11 -27q0 -17 -22 -67q-40 -81 -58 -148q-1 -4 -4.5 -15.5t-3.5 -19.5q0 -14 2 -20q35 20 76 65q80 89 151 172q27 31 45 31q17 0 29 -13t12 -32q0 -18 -24.5 -67t-24.5 -78q0 -41 33 -41q13 0 33 8q22 11 43 24.5t42.5 33.5t34.5 32.5t37 38.5
t33 35q30 30 43 30q8 0 8 -14q0 -33 -95 -122.5t-130 -110.5q-37 -21 -67 -21q-39 0 -65.5 32.5t-29.5 74.5q0 2 1 9.5t1 10.5q0 6 -8 14q-11 -14 -38.5 -50t-43.5 -55.5t-42.5 -45t-51.5 -41.5q-20 -14 -43 -14q-24 0 -37.5 19.5t-13.5 53.5q0 16 1.5 32t3.5 29.5t6.5 31
t7 28.5t9.5 30t10 27t11.5 28t11 25.5t12 27t11.5 24.5q19 47 53 47z" />
    <glyph glyph-name="v" unicode="v" horiz-adv-x="602" 
d="M229 395q15 0 29 -13t14 -28q0 -19 -8 -32q-43 -82 -43 -199v-23q0 -32 10 -45q22 9 52 43q53 60 100.5 132.5t50.5 123.5q2 25 14.5 44.5t32.5 19.5q18 0 27.5 -10t9.5 -23q0 -7 -4 -28t-4 -31q0 -46 38.5 -68t96.5 -22q80 0 133 32q12 6 23 6q16 0 16 -16
q0 -33 -62 -54.5t-104 -21.5h-14q-41 0 -66.5 2.5t-58 16t-55.5 39.5q-4 -6 -11 -18q-26 -43 -41 -66.5t-40.5 -59t-51 -61t-53.5 -45.5q-23 -17 -45 -17q-35 0 -55.5 38t-20.5 89q0 54 7 116t29 120.5t54 58.5z" />
    <glyph glyph-name="w" unicode="w" horiz-adv-x="761" 
d="M958 274q5 0 12 -8t7 -16q0 -5 -4 -9t-8 -6t-11.5 -5.5t-9.5 -4.5q-77 -49 -174 -49q-14 0 -43 4t-41 4q-31 0 -41 -20q-13 -24 -33 -54t-50 -69.5t-63.5 -65.5t-60.5 -26q-31 0 -50 32.5t-24.5 69.5t-5.5 78v55h-2l-4 2q-2 -2 -30.5 -42t-49 -65t-51.5 -50t-55 -25
q-27 0 -45.5 31.5t-18.5 68.5q0 39 14 101.5t44 119t65 56.5q21 0 34 -14.5t13 -34.5q0 -25 -15.5 -54t-31.5 -45q-11 -12 -19 -26t-12.5 -31t-6.5 -28t-5 -32.5t-4 -29.5h6q13 0 31 18q25 24 49.5 53.5t55 68t45.5 57.5q2 3 8.5 10.5t10.5 12t9.5 10t10.5 8t10 2.5
q28 0 28 -70q0 -29 -5 -78.5t-5 -58.5q0 -90 23 -90q29 0 79.5 80.5t77.5 138.5q5 12 7 37.5t6 36.5q23 79 61 79q18 0 28.5 -11.5t10.5 -27.5q0 -20 -16.5 -57t-16.5 -53q0 -13 32.5 -20t59.5 -7q68 0 142 33q27 16 32 16z" />
    <glyph glyph-name="x" unicode="x" horiz-adv-x="516" 
d="M156 295q0 47 34 47q12 0 22 -8t17.5 -24t11.5 -28.5t9.5 -33.5t7.5 -27q30 25 79.5 69t59.5 52q20 16 39 16q29 0 29 -34q0 -33 -49.5 -98.5t-96.5 -114.5q-14 -14 -14 -35q0 -23 24 -71t40 -48q43 0 146.5 106t154.5 173q5 8 23 23t28 15t10 -16q0 -17 -16 -37
q-127 -153 -187 -212q-46 -46 -92 -81q-47 -34 -80 -34q-17 0 -32 8.5t-28 25.5t-21 30.5t-19.5 37t-15.5 29.5q-12 -2 -27.5 -16.5t-19.5 -16.5q-56 -35 -95 -35q-51 0 -51 33q0 9 3.5 11.5t12.5 2.5h9q41 0 86 41.5t45 75.5q0 10 -2 14q-1 5 -14 38.5t-22 65.5t-9 56z" />
    <glyph glyph-name="y" unicode="y" horiz-adv-x="530" 
d="M-109 -705q0 34 37 97.5t93.5 134.5t98 119.5t75.5 85.5q5 5 26 27.5t27.5 30t24 28t26 32.5t21 30.5t21 36t15.5 36.5q62 175 76 229q4 12 4 19q0 4 -4 12q-7 -4 -14.5 -10t-11.5 -10.5t-12.5 -14.5t-10.5 -12q-8 -9 -40 -44.5t-47 -51t-43.5 -38t-55.5 -34.5
q-15 -6 -29 -6q-30 0 -49 26t-19 62q0 113 86 221q25 35 54 35q15 0 28 -13.5t13 -27.5q0 -10 -5 -20.5t-14.5 -23t-11.5 -15.5q-56 -80 -64 -166q29 15 55.5 32.5t56 44.5t43.5 41t48.5 51.5t42.5 45.5q17 20 39 20t35.5 -21t13.5 -53q0 -34 -17 -99.5t-18 -72.5h4
q91 88 220 207q8 8 20 8q16 0 16 -16q0 -12 -10 -22q-12 -12 -64 -61.5t-70 -67.5t-60 -63t-63.5 -74.5t-48.5 -73t-46 -86.5q-18 -41 -47.5 -100.5t-79.5 -147t-98.5 -158.5t-104 -122.5t-96.5 -51.5q-26 0 -46 19t-20 46zM-51 -686q69 31 166 167t112 224
q-15 -18 -63 -72.5t-68.5 -79t-54 -69.5t-55 -85.5t-37.5 -84.5z" />
    <glyph glyph-name="z" unicode="z" horiz-adv-x="512" 
d="M293 47q-11 0 -52 -12t-59 -12q-24 0 -24 20q0 5 2 10t7 9.5t9 8t10.5 7.5t10 6t9.5 5l7 3q93 49 156 139q4 8 4 11q0 6 -2 10q-16 4 -25 4q-17 0 -50 -6t-48 -6q-98 0 -98 73q0 34 25 80.5t58 46.5q18 0 32 -14.5t14 -30.5q0 -14 -10.5 -41t-10.5 -39q6 -4 18 -4
q10 0 34.5 4.5t33.5 4.5q45 0 76 -17.5t31 -48.5q0 -53 -78 -111q-41 -25 -49 -38q3 -1 17 -6.5t19 -8t15 -8t16.5 -11.5t11.5 -14q9 -12 17 -12t22 14q152 133 236 195q20 16 33 16q16 0 16 -12q0 -9 -9 -22t-16 -19q-50 -37 -138.5 -116t-100.5 -89q-21 -16 -21 -41
q0 -4 1 -18t1 -23q0 -63 -28 -127q-114 -257 -307 -397q-101 -72 -185 -72q-32 0 -51.5 18.5t-19.5 47.5q0 14 2.5 27.5t9 27.5t11.5 23.5t16 25t15 21t17 21.5t15 18q131 162 368 377q2 2 13.5 10.5t18 14.5t13 15.5t6.5 18.5q0 20 -21 31.5t-44 11.5zM367 -66
q-43 -39 -105.5 -98t-151.5 -148.5t-149.5 -165t-60.5 -106.5q0 -18 16 -18q4 0 16 4q78 19 152 80q88 76 185.5 214.5t97.5 227.5v10z" />
    <glyph glyph-name="braceleft" unicode="{" horiz-adv-x="421" 
d="M731 1319q19 0 32 -13.5t13 -29.5q0 -18 -20 -27q-11 -4 -21 -10.5t-17 -12t-16 -17t-12.5 -16.5t-13.5 -20l-12 -18q-37 -54 -71 -118t-72 -146t-60 -125q-56 -112 -129 -172q-18 -15 -10 -35q22 -54 22 -119q0 -58 -10.5 -113.5t-35.5 -137t-30 -101.5q-12 -54 -12 -78
q0 -67 39 -114q10 -13 10 -29q0 -23 -18 -23q-5 0 -17 4q-90 41 -90 166q0 81 41 230t41 213q0 58 -24 102q-17 32 12 55q96 75 170 234q11 23 48 103.5t55 117t52 93.5t68 98q46 59 88 59z" />
    <glyph glyph-name="bar" unicode="|" horiz-adv-x="274" 
d="M602 1270v-2q0 -54 -90 -299q-77 -205 -233.5 -611t-229.5 -587q-16 -40 -55.5 -134t-59.5 -145q-24 -61 -47 -61q-12 0 -19 18.5t-7 46.5q0 42 18 86q110 256 297 732.5t283 742.5q3 9 49 155q6 22 32.5 62.5t43.5 40.5q18 0 18 -45z" />
    <glyph glyph-name="braceright" unicode="}" horiz-adv-x="405" 
d="M41 -154q-19 0 -32 13.5t-13 29.5q0 20 20 29q21 8 40 25.5t26.5 28.5t26.5 38q37 54 70.5 118.5t71 145.5t60.5 125q56 112 129 172q18 15 11 35q-23 56 -23 119q0 58 10.5 113.5t35.5 137t30 101.5q12 54 12 78q0 66 -41 115q-8 11 -8 28q0 23 18 23q5 0 17 -4
q90 -41 90 -166q0 -81 -41 -229.5t-41 -212.5q0 -63 22 -103q17 -32 -12 -55q-93 -73 -168 -234q-5 -12 -37 -82.5t-44 -94.5t-39 -76t-51 -88t-52 -70q-47 -60 -88 -60z" />
    <glyph glyph-name="asciitilde" unicode="~" horiz-adv-x="634" 
d="M266 600q23 23 34.5 33.5t35 28.5t46 26t46.5 8q12 0 24 -4t20.5 -8t18 -14.5t15 -16t14 -20.5t11 -20t11 -21.5t9.5 -18.5q12 -26 24 -26q8 0 25 10q70 43 141 90q21 15 37 15q21 0 21 -21q0 -34 -98.5 -98t-131.5 -64q-16 0 -30.5 6.5t-28 20.5t-22 25.5t-22.5 32.5
l-20 30q-17 22 -26 22q-5 0 -14.5 -4.5t-21.5 -11.5t-15 -8l-45 -33q-4 -2 -12.5 -7t-12.5 -7q-12 -4 -14 -4q-12 0 -20.5 10t-8.5 24q0 15 10 25z" />
    <glyph glyph-name="uni00A0" unicode="&#xa0;" horiz-adv-x="0" 
 />
    <glyph glyph-name="exclamdown" unicode="&#xa1;" horiz-adv-x="290" 
d="M487 1085q2 5 11 36t17.5 53t24 42.5t33.5 20.5q15 0 27 -11t12 -26q0 -38 -26 -102t-58 -64q-41 0 -41 51zM455 889q30 0 30 -37q0 -29 -12 -61q-133 -388 -262 -713q-24 -70 -61 -70q-19 0 -30 12.5t-11 28.5q0 17 12 49q93 220 268 690q0 1 6.5 20t11 28.5t12 24
t17 21.5t19.5 7z" />
    <glyph glyph-name="cent" unicode="&#xa2;" horiz-adv-x="538" 
d="M438 338q-17 0 -27 12t-10 31q0 34 17 68.5t43 58.5q-35 3 -43 -19q-25 -62 -29 -75l-61 -154q-4 -12 -8.5 -25t-11 -28.5t-9.5 -24.5q6 -5 16 -3.5t14.5 3t12.5 6t12 5.5q82 36 166 104q43 37 88 53q15 6 22 -2t-3 -20q-93 -109 -260 -199q-27 -17 -56 -20
q-22 -1 -38 -14.5t-22.5 -27.5t-16.5 -40t-15 -37q-7 -13 -18 -13q-10 0 -17 8t-4 19q2 6 9.5 24t12.5 34.5t5 29.5q0 19 -14 27q-64 38 -64 119q0 31 8 55q62 188 223 272q40 22 50 56q1 2 7 24.5t10 34t12 29t17.5 26t20.5 8.5q27 0 27 -26q0 -19 -20.5 -62.5t-20.5 -54.5
q44 -19 64 -39.5t20 -48.5q0 -50 -33 -112t-76 -62zM236 180q19 31 55.5 131t38.5 123q-47 -42 -83 -95t-36 -103q0 -28 25 -56z" />
    <glyph glyph-name="sterling" unicode="&#xa3;" horiz-adv-x="675" 
d="M549 -16q-79 0 -234 -11.5t-229 -11.5q-24 0 -40 10.5t-17 30.5q-2 14 4 26t18 13q14 2 23 9.5t12.5 13.5t8.5 20t7 20q9 21 47 92t60 127t22 97q0 13 -12.5 28t-23.5 15q-23 0 -35.5 11t-12.5 26t8.5 24t25.5 13t31.5 5t37.5 1h2h13.5t9.5 1.5t6.5 2.5t4.5 5.5t4 7.5
t4.5 12t6.5 16q14 33 41 101t44 108t45 100.5t54 101.5t60 86.5t74 79.5t86 58q43 22 92 22q64 0 107.5 -41.5t43.5 -111.5q0 -170 -123 -349q-12 -18 -30 -18q-11 0 -18 7.5t-7 19.5t4 20q6 13 24.5 51.5t27.5 60.5t22 56.5t18.5 67t5.5 65.5q0 41 -18 65.5t-51 24.5
q-44 0 -79.5 -23.5t-72.5 -62.5q-45 -47 -85.5 -114.5t-63.5 -118.5t-60.5 -142.5t-54.5 -130.5q-2 -4 -2 -16q6 -2 25 -2h32q60 0 60 -23q0 -20 -43.5 -31t-81.5 -14q-29 -3 -37 -26q-13 -36 -56.5 -117t-74.5 -153.5t-31 -120.5q0 -11 39 -11l31 2h287q36 0 74 -11t38 -34
q0 -11 -8 -17.5t-25 -9t-27 -3t-30 -0.5h-8z" />
    <glyph glyph-name="currency" unicode="&#xa4;" horiz-adv-x="800" 
d="M872 625q0 -21 -16 -43q-16 -19 -35 -37.5t-47 -42t-39 -33.5q60 -85 60 -168q0 -118 -88 -203q2 -2 10.5 -11.5t13 -15t11 -14t9.5 -16.5t3 -16q0 -14 -14.5 -26.5t-28.5 -12.5q-8 0 -16.5 3t-18.5 10.5t-15.5 12t-17 15.5t-14.5 14q-79 -45 -174 -45q-113 0 -189 51
q-68 -61 -98 -94q-8 -8 -21 -8q-11 0 -18.5 8t-7.5 20q0 42 80 133q-54 66 -54 154q0 105 72 229q-59 59 -59 105q0 20 17.5 37.5t41.5 17.5q8 0 17 -3t15 -7t14.5 -11.5t12.5 -11.5t11.5 -13t9.5 -11q61 55 123 55q118 0 225 -86q2 2 6 5.5t6.5 6t4.5 5.5l36 32l17 17
q3 2 13.5 12.5t17.5 16.5t18 14t22.5 12t22.5 4q22 0 41.5 -19t19.5 -42zM483 111q75 0 134 56.5t59 133.5q0 52 -31 105q-11 21 -15.5 28.5t-19 26.5t-27.5 28t-36.5 17.5t-50.5 9.5q-33 -9 -59.5 -25.5t-45 -39.5t-29 -41.5t-22.5 -44.5q-2 -4 -10 -20.5t-11.5 -25.5
t-7.5 -26t-4 -33q0 -60 54 -104.5t122 -44.5z" />
    <glyph glyph-name="yen" unicode="&#xa5;" horiz-adv-x="788" 
d="M649 465h19q35 0 45 8.5t24 48.5q-6 2 -18 2q-11 0 -17 -2l-32 -4q-6 -2 -17 -2q-39 0 -39 41q0 14 8.5 23t27.5 13t32 5t39 1.5t31 0.5q26 0 39 29q77 176 153 411v19q-45 -52 -104 -141q-125 -184 -224 -283q-72 -72 -137 -72q-51 0 -80.5 45t-29.5 113
q0 87 48.5 225.5t102.5 245.5q24 47 55 47q18 0 29.5 -12t11.5 -27q0 -14 -22 -63q-46 -97 -93.5 -232.5t-47.5 -206.5q0 -59 39 -59q27 0 65 27t75 69t63.5 75.5t45.5 61.5q146 220 244 334q25 29 45 29q45 0 45 -51q0 -13 -3 -30t-6.5 -28.5t-9.5 -30t-7 -22.5
q-57 -194 -146 -414q-1 -4 -6 -15t-8 -20t-4 -18q3 -1 28 -5t39.5 -11t14.5 -19q0 -6 -5.5 -9.5t-15.5 -5.5t-19 -3t-20.5 -1.5t-15.5 -0.5q-11 -1 -20.5 -5t-15 -7.5t-11.5 -13.5t-8.5 -14t-8.5 -19t-8 -19h21l41 2h20q45 0 64 -14q-22 -40 -123 -45q-55 -3 -82 -58
q-85 -175 -197 -301q-24 -27 -36.5 -39.5t-37.5 -33.5t-52.5 -30t-59.5 -9q-60 0 -119 34t-59 89q0 11 13 27t24 16q10 0 16 -13q34 -67 104 -67q60 0 105 45q117 117 209 303q-10 10 -21 10q-8 0 -24 -5t-25 -5q-20 0 -32.5 13.5t-12.5 29.5q0 15 7.5 24t23 13t29 5t34.5 1
z" />
    <glyph glyph-name="brokenbar" unicode="&#xa6;" horiz-adv-x="274" 
d="M602 1270v-2q0 -54 -90 -299q-5 -13 -85 -211.5t-120 -323.5q-5 -22 -49 -22q-37 0 -37 18l2 2q48 137 132.5 355.5t103.5 269.5q3 9 49 155q6 22 32.5 62.5t43.5 40.5q18 0 18 -45zM260 313q-107 -282 -211 -542q-16 -40 -55.5 -134t-59.5 -145q-24 -61 -47 -61
q-12 0 -19 18.5t-7 46.5q0 42 18 86q33 76 132.5 329.5t162.5 399.5q4 11 20.5 18t32.5 7q35 0 35 -21z" />
    <glyph glyph-name="section" unicode="&#xa7;" horiz-adv-x="737" 
d="M276 471q0 71 66 141q0 11 -2 13q-49 49 -49 118q0 81 61 170q35 52 86.5 107.5t114.5 107.5t134 85.5t132 33.5q64 0 103 -47.5t39 -124.5q0 -113 -51.5 -219t-131.5 -172q-9 -8 -22 -5t-13 17q0 8 4.5 17t12 20t8.5 12q53 88 82 162t29 158q0 43 -17 69.5t-51 26.5
q-38 0 -96 -28q-189 -95 -312 -289q-36 -58 -36 -105q0 -33 18.5 -54t55.5 -30t71 -11.5t86 -2.5h61q34 0 56.5 -1.5t50.5 -6t42.5 -16.5t14.5 -31q0 -47 -108 -144q6 -7 21 -14l14 -6q49 -28 49 -76q0 -52 -56 -108q-212 -209 -481 -265q-28 -4 -45 -4q-78 0 -78 49
q0 25 33 43q51 28 162.5 45.5t161.5 47.5q124 74 194 149q1 1 8 7.5t8.5 8.5t6.5 9t3.5 9.5t-1.5 10.5q-10 25 -107 25q-28 0 -82 -5.5t-82 -5.5q-71 0 -119.5 29t-48.5 80zM430 575q-26 0 -55 -32.5t-29 -63.5q0 -39 109 -39q10 0 30.5 1t30.5 1l43 4q10 0 31 1.5t31 1.5
q20 0 30 12q4 4 11 11.5t10 10.5l41 49q13 13 18 25v6l-2 2q-26 0 -75.5 -1t-73.5 -1q-25 0 -76 6t-74 6z" />
    <glyph glyph-name="dieresis" unicode="&#xa8;" horiz-adv-x="516" 
d="M477 1032q21 0 39.5 -22t18.5 -45q0 -30 -20 -54t-46 -24q-24 0 -37.5 18t-13.5 41q0 32 17.5 59t41.5 27zM702 1032q21 0 39.5 -22t18.5 -45q0 -30 -20 -54t-46 -24q-24 0 -37.5 18t-13.5 41q0 32 17.5 59t41.5 27z" />
    <glyph glyph-name="copyright" unicode="&#xa9;" horiz-adv-x="528" 
d="M668 1266q77 0 121.5 -44.5t44.5 -117.5q0 -97 -79 -177.5t-173 -80.5q-73 0 -119.5 47t-46.5 119q0 103 76.5 178.5t175.5 75.5zM776 1100q0 53 -28 83.5t-74 30.5q-76 0 -139.5 -64.5t-63.5 -139.5q0 -50 29.5 -79.5t79.5 -29.5q77 0 136.5 61.5t59.5 137.5zM655 1114
q-25 0 -53.5 -39.5t-28.5 -66.5q0 -17 29 -17h23v2q4 0 12.5 1t13.5 1q31 0 31 -18q0 -20 -39 -30.5t-70 -10.5q-59 0 -59 70q0 57 44.5 117.5t100.5 60.5q32 0 57 -22.5t25 -51.5q0 -19 -14.5 -40t-32.5 -21q-20 0 -20 24l1 5q1 6 1 11.5t-1.5 11.5t-6.5 9.5t-13 3.5z" />
    <glyph glyph-name="ordfeminine" unicode="&#xaa;" horiz-adv-x="442" 
d="M428 1030q9 41 27.5 79.5t53 69.5t75.5 31q36 0 61 -28.5t35 -67.5q8 -43 41 -43q14 0 29 6q2 0 4 2q4 0 9 -8t5 -16q0 -13 -22 -20t-41 -7q-55 0 -82 86q-21 -14 -39 -29l-74 -57q-10 -8 -39 -29q-8 -8 -18 -8q-11 0 -18 9.5t-7 19.5v10zM502 1065l100 70q8 4 8 6
q0 7 -10 11.5t-16 4.5q-27 0 -49.5 -30t-32.5 -62z" />
    <glyph glyph-name="guillemotleft" unicode="&#xab;" horiz-adv-x="567" 
d="M422 344q7 -5 58 -44.5t75 -63.5q6 -6 6 -17q0 -8 -5.5 -14t-14.5 -6q-10 0 -19 6q-28 23 -81.5 64.5t-61.5 47.5q-29 23 0 52q121 117 213 184q21 16 35 16q12 0 18 -12q11 -20 -18 -39q-94 -63 -205 -174zM211 344q7 -5 58 -44.5t75 -63.5q6 -6 6 -17q0 -8 -5.5 -14
t-14.5 -6q-10 0 -19 6q-28 23 -81.5 64.5t-61.5 47.5q-29 23 0 52q121 117 213 184q21 16 35 16q12 0 18 -12q11 -20 -18 -39q-94 -63 -205 -174z" />
    <glyph glyph-name="logicalnot" unicode="&#xac;" 
d="M176 213q-53 0 -53 39q0 41 63 41q130 0 193 10q4 0 20.5 -0.5t23.5 -1.5t18 -4t15.5 -9.5t4.5 -17.5q0 -35 -41.5 -88.5t-79.5 -85.5q-2 -1 -7 -4.5t-8.5 -5.5t-8.5 -4t-11 -2q-20 0 -20 20q0 7 3 13.5t8 14t7 11.5q35 56 41 90q-13 -1 -51.5 -6t-65 -7.5t-51.5 -2.5z
" />
    <glyph glyph-name="uni00AD" unicode="&#xad;" 
d="M379 303q5 0 19.5 -0.5t23 -1.5t19.5 -3.5t16.5 -8.5t5.5 -15q0 -17 -19 -26.5t-41 -11.5q-24 -3 -71 -9.5t-84.5 -10t-71.5 -3.5q-53 0 -53 39q0 41 63 41q130 0 193 10z" />
    <glyph glyph-name="registered" unicode="&#xae;" horiz-adv-x="561" 
d="M866 1083q0 -101 -84 -170t-182 -69q-83 0 -134.5 49t-51.5 123q0 103 81.5 171t178.5 68q85 0 138.5 -49.5t53.5 -122.5zM674 1047q11 -4 40 -7.5t46.5 -11.5t17.5 -27v-2q25 45 25 84q0 49 -36.5 84t-96.5 35q-76 0 -139.5 -55.5t-63.5 -132.5q0 -66 51 -90q1 22 4 44
t11.5 47.5t13 39.5t17.5 45.5t16 40.5q8 26 63 26q37 0 61.5 -13.5t24.5 -39.5q0 -15 -9 -26.5t-25.5 -24t-20.5 -16.5zM637 1135q-25 0 -25 -54q0 -10 6 -10q46 0 46 33q0 12 -7.5 21.5t-19.5 9.5zM774 991h-78q-16 0 -50 4t-50 4q-12 0 -21.5 -12t-14.5 -26.5t-15 -26.5
t-23 -12q38 -25 90 -25q51 0 94.5 24.5t67.5 69.5z" />
    <glyph glyph-name="macron" unicode="&#xaf;" 
d="M733 1290q4 0 19 -0.5t23.5 -1.5t19.5 -3.5t16.5 -9t5.5 -15.5q0 -17 -18.5 -26t-40.5 -11q-24 -3 -71.5 -9.5t-85 -10t-71.5 -3.5q-53 0 -53 39q0 41 64 41q129 0 192 10z" />
    <glyph glyph-name="degree" unicode="&#xb0;" horiz-adv-x="307" 
d="M551 1221q41 0 74.5 -33t33.5 -70q0 -42 -32 -67t-72 -25q-38 0 -64 21t-26 59q0 42 28 78.5t58 36.5zM567 1085q13 0 20 12t7 27q0 29 -23 29q-10 -3 -21 -16.5t-11 -26.5q0 -9 9.5 -17t18.5 -8z" />
    <glyph glyph-name="plusminus" unicode="&#xb1;" horiz-adv-x="454" 
d="M463 707q17 0 28 -13t11 -28q0 -28 -36 -95.5t-36 -85.5q8 -6 53 -6h6q21 0 30 -0.5t23.5 -2.5t20.5 -7.5t6 -15.5q0 -21 -46 -29t-89 -8q-42 0 -57 -43q-3 -8 -16.5 -51.5t-20.5 -62.5t-23 -47t-34 -44q-9 27 -9 55q0 34 16 92.5t19 77.5q-5 8 -24 8h-15l-34 -6h-15
q-29 0 -44 8.5t-15 32.5q0 19 14 29.5t31 13t43 2.5h31q43 1 52.5 8t24.5 48q1 2 11.5 32t18 47t20.5 41.5t27 37t28 12.5zM250 0q5 0 19.5 -0.5t23 -1.5t19.5 -3.5t16.5 -8.5t5.5 -15q0 -17 -18.5 -27t-39.5 -12q-22 -2 -71.5 -8.5t-86.5 -10t-71 -3.5q-51 0 -51 41t63 41
q6 0 17.5 -0.5t21 -0.5t17.5 1z" />
    <glyph glyph-name="twosuperior" unicode="&#xb2;" horiz-adv-x="440" 
d="M451 698q-21 0 -55 -12t-54 -12q-16 0 -30.5 7.5t-14.5 18.5q0 21 29.5 30.5t67.5 14.5t48 11q97 66 184 187.5t87 223.5q0 35 -13.5 58.5t-40.5 23.5q-65 0 -110 -41t-51 -108q-1 -11 -9 -16t-16.5 -1t-11.5 15q-5 18 2 43q16 60 71 104.5t123 44.5q47 0 72 -35.5
t25 -89.5q0 -103 -80 -222.5t-174 -197.5q-1 -1 -4.5 -3.5t-5.5 -4.5t-3 -6q68 -17 84 -43q9 -12 -2 -19t-22 1q-44 28 -96 28z" />
    <glyph glyph-name="threesuperior" unicode="&#xb3;" horiz-adv-x="423" 
d="M344 670q-23 0 -43 9t-20 26q0 12 22 12q6 0 18 -1t17 -1q111 0 223 112q51 51 51 101q0 27 -25 43t-59 16q-14 0 -44 -6t-44 -6q-18 0 -18 12q0 15 16 25q18 13 77 47t93.5 63t57.5 68q10 17 10 27q0 30 -60 30q-56 0 -101.5 -21t-49.5 -59q-1 -9 -7 -14.5t-12 -5.5
q-8 0 -14 7.5t-6 19.5q0 51 60 82.5t120 31.5q46 0 79.5 -17.5t33.5 -49.5q0 -42 -51 -94.5t-99 -82.5l-5 -2.5l-5 -2.5t-4.5 -3.5t-3.5 -5.5q49 -9 76.5 -38.5t27.5 -69.5q0 -48 -34 -91q-91 -121 -250 -157q-16 -4 -27 -4z" />
    <glyph glyph-name="acute" unicode="&#xb4;" horiz-adv-x="358" 
d="M649 1196q11 0 26 -13.5t15 -25.5q0 -4 -2 -6q-137 -183 -266 -277q-9 -6 -19 -6q-28 0 -28 23q0 28 50 91.5t91 105t64 61.5l14.5 14.5t17 16t17 11t20.5 5.5z" />
    <glyph glyph-name="uni00B5" unicode="&#xb5;" horiz-adv-x="528" 
d="M219 348q19 0 30 -12t11 -27q0 -17 -22 -67q-40 -81 -58 -148q-1 -3 -3.5 -11.5t-3.5 -13t-1 -13t2 -17.5q35 20 76 65q80 89 151 172q27 31 45 31q17 0 29 -13t12 -32q0 -18 -24.5 -67t-24.5 -78q0 -41 33 -41q13 0 33 8q22 11 43 24.5t42.5 33.5t34.5 32.5t37 38.5
t33 35q31 31 43 31q8 0 8 -15q0 -33 -95 -122.5t-130 -110.5q-37 -21 -67 -21q-39 0 -65.5 32.5t-29.5 74.5q0 1 1 9.5t-0.5 14.5t-6.5 11q-11 -14 -38.5 -50t-43.5 -56t-42.5 -45.5t-51.5 -41.5q-20 -14 -43 -14q-24 0 -37.5 19.5t-13.5 53.5q0 16 1.5 32t3.5 29.5t6.5 31
t7 28.5t9.5 30t10 27t11.5 28t11 25.5t12 27t11.5 24.5q19 47 53 47z" />
    <glyph glyph-name="paragraph" unicode="&#xb6;" horiz-adv-x="563" 
d="M514 930q-43 6 -70.5 40.5t-27.5 86.5q0 86 58.5 175t139.5 89q16 0 40 -3t32 -3q19 0 19 -45v-2q0 -12 -11 -62q-40 -138 -78 -237q-19 -50 -123.5 -335t-164.5 -433q-6 -17 -29 -70l-59 -139q-5 -12 -14.5 -35.5t-14.5 -34.5q-24 -61 -45 -61q-12 0 -19.5 19.5
t-7.5 47.5q0 43 17 84q112 262 358 918zM891 1270v-2q0 -17 -10 -62q-40 -138 -78 -237q-13 -34 -120.5 -326t-168.5 -442q-6 -17 -29 -70l-57 -139q-5 -11 -14.5 -35t-14.5 -35q-24 -61 -47 -61q-24 0 -24 67q0 45 16 84q35 83 73.5 177t66.5 164.5t70.5 183t63 166t69 184
t63.5 170.5q3 9 49 155q6 24 30.5 63.5t42.5 39.5q19 0 19 -45zM623 1237q-20 3 -41 -18q-74 -71 -80 -154q0 -63 37 -68q11 31 39 114.5t45 125.5z" />
    <glyph glyph-name="periodcentered" unicode="&#xb7;" horiz-adv-x="290" 
d="M215 326q21 0 39 -22.5t18 -45.5q0 -30 -19.5 -54t-45.5 -24q-24 0 -37.5 18.5t-13.5 41.5q0 32 17.5 59t41.5 27z" />
    <glyph glyph-name="cedilla" unicode="&#xb8;" horiz-adv-x="348" 
d="M233 -98q0 -41 -45 -70t-100 -29q-43 0 -43 33q0 17 15 25t34 8.5t37 7t23 21.5q-10 7 -30.5 7t-33 5.5t-12.5 26.5q0 34 18 83.5t43 49.5q13 0 23 -10.5t10 -20.5q0 -8 -6 -26t-6 -25q0 -16 16 -21q57 -20 57 -65z" />
    <glyph glyph-name="onesuperior" unicode="&#xb9;" horiz-adv-x="241" 
d="M477 1208q-6 0 -11 5.5t-5 11.5q0 21 37 45t63 24q21 0 21 -20q0 -12 -11 -39q-158 -377 -209 -528q-3 -8 -6 -14t-10 -12.5t-14 -4.5q-17 4 -6 49q31 103 105 281t95 235q-3 -2 -12.5 -11t-19.5 -15.5t-17 -6.5z" />
    <glyph glyph-name="ordmasculine" unicode="&#xba;" horiz-adv-x="307" 
d="M440 1038q0 47 37 103.5t74 56.5q26 0 56 -26.5t30 -51.5q0 -20 -16 -20q-5 0 -17 4q-50 -123 -108 -123q-24 0 -40 16.5t-16 40.5zM496 1030q26 9 50.5 43.5t24.5 63.5q0 12 -4 18q-28 -13 -48.5 -50.5t-22.5 -74.5z" />
    <glyph glyph-name="guillemotright" unicode="&#xbb;" horiz-adv-x="585" 
d="M571 385q-14 12 -42 33.5t-49.5 39.5t-39.5 36q-8 8 -8 16t6 14t15 6q6 0 18 -8q28 -23 81.5 -64.5t61.5 -47.5q28 -22 0 -50q-127 -123 -211 -184q-21 -16 -36 -16q-13 0 -19 12q-10 18 19 37q85 57 204 176zM360 385q-14 12 -42 33.5t-49.5 39.5t-39.5 36q-8 8 -8 16
t6 14t15 6q6 0 18 -8q28 -23 81.5 -64t61.5 -48q28 -22 0 -50q-130 -126 -210 -184q-21 -16 -37 -16q-13 0 -19 12q-10 18 19 37q85 57 204 176z" />
    <glyph glyph-name="onequarter" unicode="&#xbc;" horiz-adv-x="761" 
d="M336 676q-17 0 -17 18q0 3 7 31q31 103 105 281t95 235q-3 -2 -12.5 -11t-19.5 -15.5t-17 -6.5q-6 0 -11 5.5t-5 11.5q0 21 37 45t63 24q21 0 21 -20q0 -12 -11 -39q-158 -377 -209 -528q-12 -31 -26 -31zM92 -25q-22 0 -22 25q0 30 45 102q232 387 512 758
q177 234 280 344l8.5 8.5l12 12t12 10.5t15 9t14.5 3q12 0 23.5 -11.5t11.5 -23.5q0 -18 -29 -53q-414 -450 -805 -1102q-1 -1 -5.5 -9t-7 -12.5t-8.5 -13t-10 -14t-10.5 -12.5t-12 -11t-12 -7t-12.5 -3zM598 -33q-18 0 -18 23q0 27 35.5 102t35.5 88v4q-10 2 -34 5.5
t-37 7.5q-62 23 -62 86q0 107 158 303q11 14 31 14q22 0 22 -18q0 -26 -30.5 -70.5t-53.5 -48.5q-5 0 -10 -10q-25 -39 -34.5 -55.5t-23.5 -53.5t-14 -68q0 -25 24.5 -38t63.5 -13q21 0 29 17q16 38 63.5 157t77.5 181q11 28 29 28t18 -20q0 -7 -4 -19q-24 -50 -49 -108
t-53 -128.5t-45 -109.5q3 -1 20 -2.5t28 -6t11 -13.5q0 -13 -11.5 -18t-26 -4t-29 -2.5t-19.5 -14.5q-49 -112 -65 -162q-11 -33 -27 -33z" />
    <glyph glyph-name="onehalf" unicode="&#xbd;" horiz-adv-x="806" 
d="M477 1208q-6 0 -11 5.5t-5 11.5q0 21 37 45t63 24q21 0 21 -20q0 -12 -11 -39q-158 -377 -209 -528q-3 -8 -6 -14t-10 -12.5t-14 -4.5q-17 4 -6 49q31 103 105 281t95 235q-3 -2 -12.5 -11t-19.5 -15.5t-17 -6.5zM92 -25q-22 0 -22 25q0 30 45 102q232 387 512 758
q177 234 280 344l8.5 8.5l12 12t12 10.5t15 9t14.5 3q12 0 23.5 -11.5t11.5 -23.5q0 -18 -29 -53q-414 -450 -805 -1102q-1 -1 -5.5 -9t-7 -12.5t-8.5 -13t-10 -14t-10.5 -12.5t-12 -11t-12 -7t-12.5 -3zM559 6q-21 0 -54.5 -13t-53.5 -13q-16 0 -30.5 8.5t-14.5 19.5
q0 19 29.5 28.5t68 14t47.5 10.5q95 64 182.5 187.5t87.5 224.5q0 82 -53 82q-65 0 -110.5 -40t-51.5 -107q-2 -17 -17 -19.5t-20 14.5q-6 19 2 46q16 59 71.5 103t123.5 44q47 0 71.5 -35.5t24.5 -89.5q0 -102 -79.5 -220.5t-174.5 -197.5q-1 -1 -4 -3.5t-5 -4.5t-3 -6
q68 -17 84 -43q9 -12 -1.5 -19.5t-21.5 0.5q-45 29 -98 29z" />
    <glyph glyph-name="threequarters" unicode="&#xbe;" horiz-adv-x="962" 
d="M344 670q-23 0 -43 9t-20 26q0 12 22 12q6 0 18 -1t17 -1q111 0 223 112q51 51 51 101q0 27 -25 43t-59 16q-14 0 -44 -6t-44 -6q-18 0 -18 12q0 15 16 25q18 13 77 47t93.5 63t57.5 68q10 17 10 27q0 30 -60 30q-56 0 -101.5 -21t-49.5 -59q-1 -9 -7 -14.5t-12 -5.5
q-8 0 -14 7.5t-6 19.5q0 51 60 82.5t120 31.5q46 0 79.5 -17.5t33.5 -49.5q0 -42 -51 -94.5t-99 -82.5l-5 -2.5l-5 -2.5t-4.5 -3.5t-3.5 -5.5q49 -9 76.5 -38.5t27.5 -69.5q0 -48 -34 -91q-91 -121 -250 -157q-16 -4 -27 -4zM256 -25q-23 0 -23 25q0 28 46 102
q232 387 512 758q177 234 280 344l8.5 8.5l12 12t12 10.5t15 9t14.5 3q12 0 23 -11.5t11 -23.5q0 -19 -28 -53q-414 -450 -805 -1102q-1 -1 -5.5 -9t-7 -12.5t-8.5 -13t-10 -14t-10.5 -12.5t-12 -11t-12 -7t-12.5 -3zM782 -33q-18 0 -18 23q0 27 36 102t36 88v4
q-10 2 -34.5 5.5t-37.5 7.5q-62 23 -62 86q0 107 158 303q11 14 31 14q22 0 22 -18q0 -26 -30.5 -70.5t-53.5 -48.5q-5 0 -10 -10q-24 -37 -34 -55t-23.5 -54.5t-13.5 -67.5q0 -25 24.5 -38t63.5 -13q20 0 28 17q15 35 63.5 155t78.5 183q11 28 28 28q9 0 14 -6t5 -14
q0 -7 -4 -19q-25 -50 -49.5 -107.5t-53.5 -129.5t-45 -109q3 -1 20.5 -2.5t28.5 -6t11 -13.5q0 -13 -11.5 -18t-26.5 -4t-29.5 -2.5t-19.5 -14.5q-49 -112 -65 -162q-11 -33 -27 -33z" />
    <glyph glyph-name="questiondown" unicode="&#xbf;" horiz-adv-x="579" 
d="M582 1087q5 18 12 36.5t18.5 43t26.5 39.5t31 15q11 0 18.5 -8t7.5 -21q0 -24 -6.5 -59t-24.5 -68t-42 -33q-41 0 -41 49v6zM643 412q14 0 26.5 -12t12.5 -25q0 -21 -31 -58q-157 -191 -409 -301q-41 -18 -82 -18q-44 0 -72.5 22t-28.5 66q0 27 9.5 56t18.5 45t28 46
q15 23 31 46t36 49t33 42t38.5 46.5t35.5 42.5q179 216 264 350q-13 0 -45 -19.5t-47 -19.5q-11 0 -22 10.5t-11 24.5q0 35 60 67.5t100 32.5q53 0 53 -55q0 -80 -158 -275q-38 -46 -114.5 -139t-114.5 -139q-27 -31 -74 -103.5t-47 -95.5q0 -10 9 -19t20 -9q7 0 15 3
t20 8.5t14 6.5q228 104 373 279q1 1 7.5 9.5t11 13t11.5 10.5t14 9t15 3z" />
    <glyph glyph-name="Agrave" unicode="&#xc0;" horiz-adv-x="1787" 
d="M1864 1765q24 -17 66 -62.5t42 -64.5q0 -13 -12 -22.5t-25 -9.5q-23 0 -73 52.5t-50 74.5q0 13 11.5 24.5t25.5 11.5q11 0 15 -4zM1430 -385q0 30 20 80q38 84 76 186.5t60 173t60.5 197t55.5 180.5l6 25q1 5 -1 7.5t-6.5 3.5t-7.5 1.5t-9 0t-7 -0.5q-149 -3 -434 -20
t-420 -21q-38 0 -59 -37q-14 -24 -42 -74t-45 -80t-39.5 -73t-39.5 -80q-18 -40 -18 -78l2 -18q0 -53 -23.5 -117t-66.5 -64q-46 0 -46 60q0 59 39 147q7 18 7 27q0 22 -19 41q-40 43 -92 79t-140.5 84t-109.5 60q-74 41 -74 72q0 16 16.5 29.5t42.5 22.5t45.5 14t37.5 8
q186 31 413 41q83 2 108 12q27 10 42 33q190 295 399 534q56 64 131.5 134.5t168.5 142.5t192.5 118.5t177.5 46.5q60 0 97 -35t49 -81t12 -105q0 -26 -9 -100q-7 -64 -18 -127t-31.5 -144t-29.5 -117t-39.5 -141t-34.5 -120h49q27 0 41 -7t14 -28q0 -6 -1.5 -11t-5 -8.5
t-7 -6t-10 -4.5t-11 -3t-13 -1.5t-12.5 -1t-13 -1t-13 -0.5q-19 -1 -23.5 -1t-11.5 -4.5t-9 -10t-7 -21.5q-118 -386 -180 -571q-8 -24 -27 -117t-43 -133q-10 -17 -29 -33t-40 -16t-33 15t-12 36zM1817 1440q-64 0 -160 -56q-101 -57 -198 -134t-174.5 -155.5t-159 -180.5
t-141 -187t-132.5 -197q-10 -14 -8 -22q4 -4 10 -4.5t13 1t10 1.5q63 3 192 11t208 12t191.5 8t208.5 4h19q22 0 32.5 6.5t16.5 27.5q9 34 46.5 164t58 213.5t34.5 167.5q19 108 19 172q0 148 -86 148zM532 125q21 45 46 92t61 111.5t51 93.5q-37 -2 -128.5 -7.5t-140 -9
t-122.5 -12.5t-137 -22q23 -14 76.5 -44.5t82 -47.5t70.5 -43.5t76 -53.5t65 -57z" />
    <glyph glyph-name="Aacute" unicode="&#xc1;" horiz-adv-x="1787" 
d="M1845 1602q-33 0 -33 26t25 47q90 79 96 84q24 19 43 19q11 0 23 -11t12 -24q0 -22 -61.5 -72.5t-94.5 -68.5h-10zM1430 -385q0 30 20 80q38 84 76 186.5t60 173t60.5 197t55.5 180.5l6 25q1 5 -1 7.5t-6.5 3.5t-7.5 1.5t-9 0t-7 -0.5q-149 -3 -434 -20t-420 -21
q-38 0 -59 -37q-14 -24 -42 -74t-45 -80t-39.5 -73t-39.5 -80q-18 -40 -18 -78l2 -18q0 -53 -23.5 -117t-66.5 -64q-46 0 -46 60q0 59 39 147q7 18 7 27q0 22 -19 41q-40 43 -92 79t-140.5 84t-109.5 60q-74 41 -74 72q0 16 16.5 29.5t42.5 22.5t45.5 14t37.5 8
q186 31 413 41q83 2 108 12q27 10 42 33q190 295 399 534q56 64 131.5 134.5t168.5 142.5t192.5 118.5t177.5 46.5q60 0 97 -35t49 -81t12 -105q0 -26 -9 -100q-7 -64 -18 -127t-31.5 -144t-29.5 -117t-39.5 -141t-34.5 -120h49q27 0 41 -7t14 -28q0 -6 -1.5 -11t-5 -8.5
t-7 -6t-10 -4.5t-11 -3t-13 -1.5t-12.5 -1t-13 -1t-13 -0.5q-19 -1 -23.5 -1t-11.5 -4.5t-9 -10t-7 -21.5q-118 -386 -180 -571q-8 -24 -27 -117t-43 -133q-10 -17 -29 -33t-40 -16t-33 15t-12 36zM1817 1440q-64 0 -160 -56q-101 -57 -198 -134t-174.5 -155.5t-159 -180.5
t-141 -187t-132.5 -197q-10 -14 -8 -22q4 -4 10 -4.5t13 1t10 1.5q63 3 192 11t208 12t191.5 8t208.5 4h19q22 0 32.5 6.5t16.5 27.5q9 34 46.5 164t58 213.5t34.5 167.5q19 108 19 172q0 148 -86 148zM532 125q21 45 46 92t61 111.5t51 93.5q-37 -2 -128.5 -7.5t-140 -9
t-122.5 -12.5t-137 -22q23 -14 76.5 -44.5t82 -47.5t70.5 -43.5t76 -53.5t65 -57z" />
    <glyph glyph-name="Acircumflex" unicode="&#xc2;" horiz-adv-x="1787" 
d="M1946 1604q-11 0 -19.5 5.5t-14.5 17t-10 20.5t-9 24.5t-7 20.5q-23 -20 -61 -58q-29 -24 -43 -24t-26.5 14.5t-2.5 26.5q25 36 77 91.5t75 55.5q27 0 49 -64t22 -100q0 -14 -8.5 -22t-21.5 -8zM1430 -385q0 30 20 80q38 84 76 186.5t60 173t60.5 197t55.5 180.5l6 25
q1 5 -1 7.5t-6.5 3.5t-7.5 1.5t-9 0t-7 -0.5q-149 -3 -434 -20t-420 -21q-38 0 -59 -37q-14 -24 -42 -74t-45 -80t-39.5 -73t-39.5 -80q-18 -40 -18 -78l2 -18q0 -53 -23.5 -117t-66.5 -64q-46 0 -46 60q0 59 39 147q7 18 7 27q0 22 -19 41q-40 43 -92 79t-140.5 84
t-109.5 60q-74 41 -74 72q0 16 16.5 29.5t42.5 22.5t45.5 14t37.5 8q186 31 413 41q83 2 108 12q27 10 42 33q190 295 399 534q56 64 131.5 134.5t168.5 142.5t192.5 118.5t177.5 46.5q60 0 97 -35t49 -81t12 -105q0 -26 -9 -100q-7 -64 -18 -127t-31.5 -144t-29.5 -117
t-39.5 -141t-34.5 -120h49q27 0 41 -7t14 -28q0 -6 -1.5 -11t-5 -8.5t-7 -6t-10 -4.5t-11 -3t-13 -1.5t-12.5 -1t-13 -1t-13 -0.5q-19 -1 -23.5 -1t-11.5 -4.5t-9 -10t-7 -21.5q-118 -386 -180 -571q-8 -24 -27 -117t-43 -133q-10 -17 -29 -33t-40 -16t-33 15t-12 36z
M1817 1440q-64 0 -160 -56q-101 -57 -198 -134t-174.5 -155.5t-159 -180.5t-141 -187t-132.5 -197q-10 -14 -8 -22q4 -4 10 -4.5t13 1t10 1.5q63 3 192 11t208 12t191.5 8t208.5 4h19q22 0 32.5 6.5t16.5 27.5q9 34 46.5 164t58 213.5t34.5 167.5q19 108 19 172
q0 148 -86 148zM532 125q21 45 46 92t61 111.5t51 93.5q-37 -2 -128.5 -7.5t-140 -9t-122.5 -12.5t-137 -22q23 -14 76.5 -44.5t82 -47.5t70.5 -43.5t76 -53.5t65 -57z" />
    <glyph glyph-name="Atilde" unicode="&#xc3;" horiz-adv-x="1787" 
d="M1933 1597q-42 0 -78 91q-16 -9 -29.5 -22t-27.5 -29.5t-24 -26.5q-13 -13 -29 -13q-11 0 -20 8t-9 21q0 7 3.5 15.5t7.5 14.5t10.5 14.5t7.5 10.5q67 88 123 88q45 0 74 -90q9 1 17.5 5t13 8.5t11.5 13t11 12.5q2 2 15.5 18.5t25 26t22.5 9.5q9 0 17 -7.5t8 -17.5
q0 -7 -6 -16q-83 -134 -144 -134zM1430 -385q0 30 20 80q38 84 76 186.5t60 173t60.5 197t55.5 180.5l6 25q1 5 -1 7.5t-6.5 3.5t-7.5 1.5t-9 0t-7 -0.5q-149 -3 -434 -20t-420 -21q-38 0 -59 -37q-14 -24 -42 -74t-45 -80t-39.5 -73t-39.5 -80q-18 -40 -18 -78l2 -18
q0 -53 -23.5 -117t-66.5 -64q-46 0 -46 60q0 59 39 147q7 18 7 27q0 22 -19 41q-40 43 -92 79t-140.5 84t-109.5 60q-74 41 -74 72q0 16 16.5 29.5t42.5 22.5t45.5 14t37.5 8q186 31 413 41q83 2 108 12q27 10 42 33q190 295 399 534q56 64 131.5 134.5t168.5 142.5
t192.5 118.5t177.5 46.5q60 0 97 -35t49 -81t12 -105q0 -26 -9 -100q-7 -64 -18 -127t-31.5 -144t-29.5 -117t-39.5 -141t-34.5 -120h49q27 0 41 -7t14 -28q0 -6 -1.5 -11t-5 -8.5t-7 -6t-10 -4.5t-11 -3t-13 -1.5t-12.5 -1t-13 -1t-13 -0.5q-19 -1 -23.5 -1t-11.5 -4.5
t-9 -10t-7 -21.5q-118 -386 -180 -571q-8 -24 -27 -117t-43 -133q-10 -17 -29 -33t-40 -16t-33 15t-12 36zM1817 1440q-64 0 -160 -56q-101 -57 -198 -134t-174.5 -155.5t-159 -180.5t-141 -187t-132.5 -197q-10 -14 -8 -22q4 -4 10 -4.5t13 1t10 1.5q63 3 192 11t208 12
t191.5 8t208.5 4h19q22 0 32.5 6.5t16.5 27.5q9 34 46.5 164t58 213.5t34.5 167.5q19 108 19 172q0 148 -86 148zM532 125q21 45 46 92t61 111.5t51 93.5q-37 -2 -128.5 -7.5t-140 -9t-122.5 -12.5t-137 -22q23 -14 76.5 -44.5t82 -47.5t70.5 -43.5t76 -53.5t65 -57z" />
    <glyph glyph-name="Adieresis" unicode="&#xc4;" horiz-adv-x="1787" 
d="M1769 1812q21 0 39.5 -22.5t18.5 -44.5q0 -30 -20 -54t-46 -24q-24 0 -37.5 18t-13.5 41q0 32 17.5 59t41.5 27zM1995 1812q21 0 39 -22t18 -45q0 -30 -19.5 -54t-45.5 -24q-24 0 -38 18t-14 41q0 32 18 59t42 27zM1430 -385q0 30 20 80q38 84 76 186.5t60 173t60.5 197
t55.5 180.5l6 25q1 5 -1 7.5t-6.5 3.5t-7.5 1.5t-9 0t-7 -0.5q-149 -3 -434 -20t-420 -21q-38 0 -59 -37q-14 -24 -42 -74t-45 -80t-39.5 -73t-39.5 -80q-18 -40 -18 -78l2 -18q0 -53 -23.5 -117t-66.5 -64q-46 0 -46 60q0 59 39 147q7 18 7 27q0 22 -19 41q-40 43 -92 79
t-140.5 84t-109.5 60q-74 41 -74 72q0 16 16.5 29.5t42.5 22.5t45.5 14t37.5 8q186 31 413 41q83 2 108 12q27 10 42 33q190 295 399 534q56 64 131.5 134.5t168.5 142.5t192.5 118.5t177.5 46.5q60 0 97 -35t49 -81t12 -105q0 -26 -9 -100q-7 -64 -18 -127t-31.5 -144
t-29.5 -117t-39.5 -141t-34.5 -120h49q27 0 41 -7t14 -28q0 -6 -1.5 -11t-5 -8.5t-7 -6t-10 -4.5t-11 -3t-13 -1.5t-12.5 -1t-13 -1t-13 -0.5q-19 -1 -23.5 -1t-11.5 -4.5t-9 -10t-7 -21.5q-118 -386 -180 -571q-8 -24 -27 -117t-43 -133q-10 -17 -29 -33t-40 -16t-33 15
t-12 36zM1817 1440q-64 0 -160 -56q-101 -57 -198 -134t-174.5 -155.5t-159 -180.5t-141 -187t-132.5 -197q-10 -14 -8 -22q4 -4 10 -4.5t13 1t10 1.5q63 3 192 11t208 12t191.5 8t208.5 4h19q22 0 32.5 6.5t16.5 27.5q9 34 46.5 164t58 213.5t34.5 167.5q19 108 19 172
q0 148 -86 148zM532 125q21 45 46 92t61 111.5t51 93.5q-37 -2 -128.5 -7.5t-140 -9t-122.5 -12.5t-137 -22q23 -14 76.5 -44.5t82 -47.5t70.5 -43.5t76 -53.5t65 -57z" />
    <glyph glyph-name="Aring" unicode="&#xc5;" horiz-adv-x="1787" 
d="M1907 1847q41 0 75.5 -32.5t34.5 -69.5q0 -42 -32 -67t-72 -25q-38 0 -65 21t-27 59q0 42 28 78t58 36zM1923 1712q13 0 21 11.5t8 25.5q0 12 -7 21.5t-18 9.5q-10 -3 -21.5 -16.5t-11.5 -26.5q0 -9 10 -17t19 -8zM1430 -385q0 30 20 80q38 84 76 186.5t60 173t60.5 197
t55.5 180.5l6 25q1 5 -1 7.5t-6.5 3.5t-7.5 1.5t-9 0t-7 -0.5q-149 -3 -434 -20t-420 -21q-38 0 -59 -37q-14 -24 -42 -74t-45 -80t-39.5 -73t-39.5 -80q-18 -40 -18 -78l2 -18q0 -53 -23.5 -117t-66.5 -64q-46 0 -46 60q0 59 39 147q7 18 7 27q0 22 -19 41q-40 43 -92 79
t-140.5 84t-109.5 60q-74 41 -74 72q0 16 16.5 29.5t42.5 22.5t45.5 14t37.5 8q186 31 413 41q83 2 108 12q27 10 42 33q190 295 399 534q56 64 131.5 134.5t168.5 142.5t192.5 118.5t177.5 46.5q60 0 97 -35t49 -81t12 -105q0 -26 -9 -100q-7 -64 -18 -127t-31.5 -144
t-29.5 -117t-39.5 -141t-34.5 -120h49q27 0 41 -7t14 -28q0 -6 -1.5 -11t-5 -8.5t-7 -6t-10 -4.5t-11 -3t-13 -1.5t-12.5 -1t-13 -1t-13 -0.5q-19 -1 -23.5 -1t-11.5 -4.5t-9 -10t-7 -21.5q-118 -386 -180 -571q-8 -24 -27 -117t-43 -133q-10 -17 -29 -33t-40 -16t-33 15
t-12 36zM1817 1440q-64 0 -160 -56q-101 -57 -198 -134t-174.5 -155.5t-159 -180.5t-141 -187t-132.5 -197q-10 -14 -8 -22q4 -4 10 -4.5t13 1t10 1.5q63 3 192 11t208 12t191.5 8t208.5 4h19q22 0 32.5 6.5t16.5 27.5q9 34 46.5 164t58 213.5t34.5 167.5q19 108 19 172
q0 148 -86 148zM532 125q21 45 46 92t61 111.5t51 93.5q-37 -2 -128.5 -7.5t-140 -9t-122.5 -12.5t-137 -22q23 -14 76.5 -44.5t82 -47.5t70.5 -43.5t76 -53.5t65 -57z" />
    <glyph glyph-name="AE" unicode="&#xc6;" horiz-adv-x="1146" 
d="M680 90q0 58 27 152q13 47 30 95t42.5 114t35.5 92q15 36 14 47q-9 7 -34 2l-326 -49q-30 -3 -45 -27q-38 -65 -111 -215q-6 -10 -6 -33q0 -7 1 -22t1 -23q0 -40 -5 -80.5t-15.5 -81t-31 -65.5t-48.5 -25q-34 0 -50 23t-16 57q0 46 21.5 103.5t42.5 89.5q18 26 18 65
q0 19 -6 43t-12 39t-18 42.5t-15 33.5q-10 23 -10 37q0 37 34 57t76.5 24.5t86 17.5t57.5 36q34 58 81 127t114.5 154.5t133.5 153.5t137 114.5t126 46.5q51 0 73 -49q10 -20 23 -22.5t27 5.5q113 43 251 62h5l10 2q31 0 67.5 -12.5t36.5 -36.5q0 -10 -7.5 -17.5t-18.5 -7.5
t-33 4t-35 4q-15 0 -23 -2q-140 -25 -256 -71q-17 -7 -25 -14.5t-11 -24.5q-19 -117 -103 -320q-12 -24 -12 -35q0 -14 31 -14q6 0 21 1t24 1q61 0 61 -31q0 -23 -43 -30.5t-90.5 -14t-54.5 -26.5q-13 -33 -44 -110t-47.5 -120t-37 -108.5t-31.5 -122.5q-6 -30 -6 -49
q0 -21 7.5 -29t27.5 -8q39 0 75 9t91 30.5t65 25.5q67 23 90 23h17q-2 -18 -27 -33q-222 -125 -324 -125q-104 0 -104 121zM506 629q67 6 185 23.5t155 21.5q24 2 39 33q3 7 17.5 39t19 42.5t17 40t17.5 44t15 41.5t15 46t11 44t9.5 48.5t5.5 47.5q5 44 -11 55q-4 5 -12 3
t-12.5 -4t-12.5 -7.5t-12 -7.5q-63 -34 -120.5 -83t-111 -114t-89.5 -115.5t-89 -128.5l-24 -36q-15 -20 -12 -33zM240 500q20 -60 43 -101q45 84 57 121q-38 -2 -100 -20z" />
    <glyph glyph-name="Ccedilla" unicode="&#xc7;" horiz-adv-x="1310" 
d="M215 78q0 -191 95.5 -293t269.5 -102q148 0 317.5 78.5t286.5 187.5q18 17 60.5 56.5t66 62t58 56.5t63.5 65t55 63q3 5 17 12.5t24 7.5q14 0 14 -20q0 -8 -5.5 -17t-14 -18t-9.5 -10q-26 -29 -53 -58t-59.5 -61t-54.5 -53.5t-61.5 -58.5t-56 -52t-62.5 -57t-58 -53
q-94 -85 -249.5 -145t-285.5 -60q-1 -4 -4 -12l-4.5 -12t-1.5 -10t4.5 -10t12.5 -7q57 -20 57 -66q0 -41 -45 -69.5t-100 -28.5q-43 0 -43 33q0 17 15 24.5t33.5 8t36.5 7t23 21.5q-2 5 -19.5 4.5t-19.5 -0.5q-35 5 -35 41q0 20 21 80q-196 24 -283.5 145t-87.5 348
q0 159 72 371q32 94 75.5 190.5t102.5 200.5t126.5 197t150.5 177.5t171.5 146t193.5 97.5t212 36q126 0 191 -71t65 -196q0 -107 -35 -210.5t-94 -217.5q-31 -59 -78 -59q-35 0 -35 51q0 25 13 60q41 92 114 196q49 69 49 154q0 103 -42.5 159t-143.5 56q-120 0 -241 -58
t-222 -149q-191 -172 -335 -421t-201 -519q-27 -121 -27 -219z" />
    <glyph glyph-name="Egrave" unicode="&#xc8;" horiz-adv-x="1372" 
d="M1444 1778q24 -17 66 -62.5t42 -64.5q0 -13 -11.5 -23t-24.5 -10q-23 0 -73 52.5t-50 74.5q0 13 11.5 25t25.5 12q10 0 14 -4zM1196 1520q19 0 30 -11t11 -28q0 -16 -6 -37h14q10 0 21 2t24 5.5t19 4.5q284 53 499 53q134 0 134 -41q0 -26 -37 -26q-326 -7 -705 -84
q-48 -10 -74 -55q-151 -251 -264 -515q-7 -17 -27.5 -66t-30 -73t-24.5 -64t-26.5 -74t-20.5 -69h10q11 0 22 2t23 6t17 5q171 40 477 84q10 2 29 2q47 0 47 -23q0 -30 -45 -55q-82 -41 -207 -41l-35 2h-18q-40 0 -88.5 -8t-72 -13.5t-91 -26t-76.5 -22.5q-26 -6 -31 -28
q-67 -247 -67 -396q0 -107 52.5 -175t141.5 -68q19 0 27 2q59 7 123 28t104 39.5t109.5 54t97.5 48.5q65 28 84 28q11 0 20 -5t9 -15q0 -14 -41 -41q-343 -215 -527 -215q-139 0 -212.5 98.5t-73.5 251.5q0 34 3 69t10 75.5t12 64.5t16 72.5t14 62.5q-25 -1 -68 -21t-69 -20
q-18 0 -28.5 11.5t-10.5 27.5q0 14 11.5 25t23 16t32 12t25.5 9q13 5 38 11.5t43.5 14t29.5 21.5q10 13 17 29.5t14 43.5t10 35q130 385 329 733q24 38 27 54h-4q-68 0 -312.5 -83t-293.5 -124q85 -45 174 -45q22 0 35.5 -1.5t26.5 -11t13 -26.5q0 -41 -61 -41
q-29 0 -96.5 15t-134 45t-66.5 63q0 21 26.5 45t77 48t104 46t128 45.5t127.5 40t125 35t97 25t65 16.5q18 4 33 15t23 21t20.5 27.5t19.5 26.5q25 31 49 31z" />
    <glyph glyph-name="Eacute" unicode="&#xc9;" horiz-adv-x="1372" 
d="M1436 1602q-33 0 -33 26q0 27 24 47q76 67 97 84q24 19 43 19q11 0 23 -11t12 -24q0 -22 -61.5 -72.5t-94.5 -68.5h-10zM1196 1520q19 0 30 -11t11 -28q0 -16 -6 -37h14q10 0 21 2t24 5.5t19 4.5q284 53 499 53q134 0 134 -41q0 -26 -37 -26q-326 -7 -705 -84
q-48 -10 -74 -55q-151 -251 -264 -515q-7 -17 -27.5 -66t-30 -73t-24.5 -64t-26.5 -74t-20.5 -69h10q11 0 22 2t23 6t17 5q171 40 477 84q10 2 29 2q47 0 47 -23q0 -30 -45 -55q-82 -41 -207 -41l-35 2h-18q-40 0 -88.5 -8t-72 -13.5t-91 -26t-76.5 -22.5q-26 -6 -31 -28
q-67 -247 -67 -396q0 -107 52.5 -175t141.5 -68q19 0 27 2q59 7 123 28t104 39.5t109.5 54t97.5 48.5q65 28 84 28q11 0 20 -5t9 -15q0 -14 -41 -41q-343 -215 -527 -215q-139 0 -212.5 98.5t-73.5 251.5q0 34 3 69t10 75.5t12 64.5t16 72.5t14 62.5q-25 -1 -68 -21t-69 -20
q-18 0 -28.5 11.5t-10.5 27.5q0 14 11.5 25t23 16t32 12t25.5 9q13 5 38 11.5t43.5 14t29.5 21.5q10 13 17 29.5t14 43.5t10 35q130 385 329 733q24 38 27 54h-4q-68 0 -312.5 -83t-293.5 -124q85 -45 174 -45q22 0 35.5 -1.5t26.5 -11t13 -26.5q0 -41 -61 -41
q-29 0 -96.5 15t-134 45t-66.5 63q0 21 26.5 45t77 48t104 46t128 45.5t127.5 40t125 35t97 25t65 16.5q18 4 33 15t23 21t20.5 27.5t19.5 26.5q25 31 49 31z" />
    <glyph glyph-name="Ecircumflex" unicode="&#xca;" horiz-adv-x="1372" 
d="M1556 1583q-11 0 -19 5.5t-14.5 17t-10 21t-8.5 24t-7 20.5q-31 -27 -61 -57q-30 -25 -43 -25q-14 0 -26.5 14.5t-2.5 26.5q25 36 77 92t75 56q27 0 49 -64t22 -100q0 -14 -9 -22.5t-22 -8.5zM1196 1520q19 0 30 -11t11 -28q0 -16 -6 -37h14q10 0 21 2t24 5.5t19 4.5
q284 53 499 53q134 0 134 -41q0 -26 -37 -26q-326 -7 -705 -84q-48 -10 -74 -55q-151 -251 -264 -515q-7 -17 -27.5 -66t-30 -73t-24.5 -64t-26.5 -74t-20.5 -69h10q11 0 22 2t23 6t17 5q171 40 477 84q10 2 29 2q47 0 47 -23q0 -30 -45 -55q-82 -41 -207 -41l-35 2h-18
q-40 0 -88.5 -8t-72 -13.5t-91 -26t-76.5 -22.5q-26 -6 -31 -28q-67 -247 -67 -396q0 -107 52.5 -175t141.5 -68q19 0 27 2q59 7 123 28t104 39.5t109.5 54t97.5 48.5q65 28 84 28q11 0 20 -5t9 -15q0 -14 -41 -41q-343 -215 -527 -215q-139 0 -212.5 98.5t-73.5 251.5
q0 34 3 69t10 75.5t12 64.5t16 72.5t14 62.5q-25 -1 -68 -21t-69 -20q-18 0 -28.5 11.5t-10.5 27.5q0 14 11.5 25t23 16t32 12t25.5 9q13 5 38 11.5t43.5 14t29.5 21.5q10 13 17 29.5t14 43.5t10 35q130 385 329 733q24 38 27 54h-4q-68 0 -312.5 -83t-293.5 -124
q85 -45 174 -45q22 0 35.5 -1.5t26.5 -11t13 -26.5q0 -41 -61 -41q-29 0 -96.5 15t-134 45t-66.5 63q0 21 26.5 45t77 48t104 46t128 45.5t127.5 40t125 35t97 25t65 16.5q18 4 33 15t23 21t20.5 27.5t19.5 26.5q25 31 49 31z" />
    <glyph glyph-name="Edieresis" unicode="&#xcb;" horiz-adv-x="1372" 
d="M1278 1812q21 0 39 -22t18 -45q0 -30 -19.5 -54t-45.5 -24q-24 0 -37.5 18t-13.5 41q0 32 17.5 59t41.5 27zM1503 1812q21 0 39.5 -22.5t18.5 -44.5q0 -30 -20 -54t-46 -24q-24 0 -37.5 18t-13.5 41q0 32 17.5 59t41.5 27zM1196 1520q19 0 30 -11t11 -28q0 -16 -6 -37h14
q10 0 21 2t24 5.5t19 4.5q284 53 499 53q134 0 134 -41q0 -26 -37 -26q-326 -7 -705 -84q-48 -10 -74 -55q-151 -251 -264 -515q-7 -17 -27.5 -66t-30 -73t-24.5 -64t-26.5 -74t-20.5 -69h10q11 0 22 2t23 6t17 5q171 40 477 84q10 2 29 2q47 0 47 -23q0 -30 -45 -55
q-82 -41 -207 -41l-35 2h-18q-40 0 -88.5 -8t-72 -13.5t-91 -26t-76.5 -22.5q-26 -6 -31 -28q-67 -247 -67 -396q0 -107 52.5 -175t141.5 -68q19 0 27 2q59 7 123 28t104 39.5t109.5 54t97.5 48.5q65 28 84 28q11 0 20 -5t9 -15q0 -14 -41 -41q-343 -215 -527 -215
q-139 0 -212.5 98.5t-73.5 251.5q0 34 3 69t10 75.5t12 64.5t16 72.5t14 62.5q-25 -1 -68 -21t-69 -20q-18 0 -28.5 11.5t-10.5 27.5q0 14 11.5 25t23 16t32 12t25.5 9q13 5 38 11.5t43.5 14t29.5 21.5q10 13 17 29.5t14 43.5t10 35q130 385 329 733q24 38 27 54h-4
q-68 0 -312.5 -83t-293.5 -124q85 -45 174 -45q22 0 35.5 -1.5t26.5 -11t13 -26.5q0 -41 -61 -41q-29 0 -96.5 15t-134 45t-66.5 63q0 21 26.5 45t77 48t104 46t128 45.5t127.5 40t125 35t97 25t65 16.5q18 4 33 15t23 21t20.5 27.5t19.5 26.5q25 31 49 31z" />
    <glyph glyph-name="Igrave" unicode="&#xcc;" horiz-adv-x="1085" 
d="M1239 1778q24 -17 66.5 -62.5t42.5 -64.5q0 -13 -12 -23t-25 -10q-23 0 -73 52.5t-50 74.5q0 13 12 25t25 12q10 0 14 -4zM1294 1315q0 65 -14 93t-63 28q-77 0 -173 -35q-426 -159 -690 -508q-51 -66 -90.5 -146.5t-42.5 -146.5q-3 -49 -35 -49q-39 0 -39 59
q0 47 23 113q47 123 138 241t206 212t239.5 168t250.5 124q110 45 206 45q147 0 168 -129q0 -3 6 -84q-3 -106 -36 -229q-182 -650 -494 -1165q-28 -46 -57.5 -89t-77 -104t-96.5 -98t-88 -37q-20 0 -35 12t-15 31q0 39 74 113q22 24 97.5 100t121 131t78.5 117
q83 154 179 372.5t177.5 471t81.5 389.5z" />
    <glyph glyph-name="Iacute" unicode="&#xcd;" horiz-adv-x="1085" 
d="M1190 1602q-33 0 -33 26t25 47q90 79 96 84q24 19 43 19q11 0 23 -11t12 -24q0 -22 -61.5 -72.5t-94.5 -68.5h-10zM1294 1315q0 65 -14 93t-63 28q-77 0 -173 -35q-426 -159 -690 -508q-51 -66 -90.5 -146.5t-42.5 -146.5q-3 -49 -35 -49q-39 0 -39 59q0 47 23 113
q47 123 138 241t206 212t239.5 168t250.5 124q110 45 206 45q147 0 168 -129q0 -3 6 -84q-3 -106 -36 -229q-182 -650 -494 -1165q-28 -46 -57.5 -89t-77 -104t-96.5 -98t-88 -37q-20 0 -35 12t-15 31q0 39 74 113q22 24 97.5 100t121 131t78.5 117q83 154 179 372.5
t177.5 471t81.5 389.5z" />
    <glyph glyph-name="Icircumflex" unicode="&#xce;" horiz-adv-x="1085" 
d="M1311 1665q-11 0 -19.5 5.5t-14.5 17t-10 20.5t-9 24.5t-7 20.5q-31 -27 -61 -57q-30 -25 -43 -25q-14 0 -26.5 14.5t-2.5 26.5q25 36 77 92t75 56q27 0 49 -64t22 -100q0 -14 -8.5 -22.5t-21.5 -8.5zM1294 1315q0 65 -14 93t-63 28q-77 0 -173 -35q-426 -159 -690 -508
q-51 -66 -90.5 -146.5t-42.5 -146.5q-3 -49 -35 -49q-39 0 -39 59q0 47 23 113q47 123 138 241t206 212t239.5 168t250.5 124q110 45 206 45q147 0 168 -129q0 -3 6 -84q-3 -106 -36 -229q-182 -650 -494 -1165q-28 -46 -57.5 -89t-77 -104t-96.5 -98t-88 -37q-20 0 -35 12
t-15 31q0 39 74 113q22 24 97.5 100t121 131t78.5 117q83 154 179 372.5t177.5 471t81.5 389.5z" />
    <glyph glyph-name="Idieresis" unicode="&#xcf;" horiz-adv-x="1085" 
d="M1053 1812q21 0 39 -22t18 -45q0 -30 -20 -54t-46 -24q-24 0 -37.5 18t-13.5 41q0 32 18 59t42 27zM1278 1812q21 0 39 -22t18 -45q0 -30 -19.5 -54t-45.5 -24q-24 0 -37.5 18t-13.5 41q0 32 17.5 59t41.5 27zM1294 1315q0 65 -14 93t-63 28q-77 0 -173 -35
q-426 -159 -690 -508q-51 -66 -90.5 -146.5t-42.5 -146.5q-3 -49 -35 -49q-39 0 -39 59q0 47 23 113q47 123 138 241t206 212t239.5 168t250.5 124q110 45 206 45q147 0 168 -129q0 -3 6 -84q-3 -106 -36 -229q-182 -650 -494 -1165q-28 -46 -57.5 -89t-77 -104t-96.5 -98
t-88 -37q-20 0 -35 12t-15 31q0 39 74 113q22 24 97.5 100t121 131t78.5 117q83 154 179 372.5t177.5 471t81.5 389.5z" />
    <glyph glyph-name="Eth" unicode="&#xd0;" horiz-adv-x="1839" 
d="M631 293h31q128 362 325 743q61 116 109 183q32 45 59 45q16 0 27.5 -12.5t11.5 -26.5q0 -19 -12 -47q-146 -347 -328 -631q-13 -21 -24.5 -44t-23.5 -52.5t-19.5 -48t-20.5 -55.5t-18 -50q28 4 40 6q5 0 19.5 -0.5t23 -1.5t19.5 -3.5t16.5 -8.5t5.5 -15q0 -13 -10 -22
t-32 -14t-36 -7t-42.5 -4t-30.5 -2q-36 -98 -94 -295q-2 -4 -2 -22q390 206 837 352q8 2 22.5 7.5t24 9t22.5 6t25 2.5q17 0 31 14q318 318 453 664q37 95 37 178q0 67 -29 120t-76.5 86.5t-112 56t-130.5 31.5t-138 9q-205 0 -449 -73.5t-463 -205t-337 -286.5
q-92 -122 -92 -226q0 -67 41 -116q20 -25 20 -39t-10.5 -24.5t-24.5 -10.5q-6 0 -14 4q-42 18 -64 67.5t-22 110.5q0 76 36 154.5t91 143t128.5 126.5t141 105.5t136.5 80.5q109 59 197 98.5t198.5 77.5t230.5 57t250 19q76 0 148.5 -9t150.5 -34.5t135 -64.5t94 -104.5
t37 -149.5q0 -66 -12.5 -128t-40.5 -126t-49 -103t-61 -108q-181 -310 -512 -586q-214 -179 -312 -250q-287 -205 -557 -258q-48 -10 -82 -10q-54 0 -108 26.5t-54 67.5q0 10 3.5 21t8.5 20.5t14 20.5t16.5 19.5t20 19.5t20.5 17.5t21.5 16.5t19 14t18 13t14.5 10
q17 10 24 19t7 26l-4 17v6q0 10 6.5 29t7.5 24q33 125 78 254q-32 -4 -47 -4q-58 0 -58 39q0 14 8 23t24 12.5t30 4.5t37 1zM1489 211h-4q-10 0 -21 -2.5t-17.5 -4.5t-18.5 -7.5t-15 -6.5q-31 -12 -136 -53.5t-145.5 -57.5t-129 -53t-141 -62t-123 -61.5t-130.5 -72.5
q-98 -61 -133 -92q-39 -35 -47 -62q26 -26 84 -26q30 0 102 14q360 81 875 547z" />
    <glyph glyph-name="Ntilde" unicode="&#xd1;" horiz-adv-x="1372" 
d="M1339 1659q-42 0 -77 90q-16 -9 -29.5 -22t-28 -30t-24.5 -26q-12 -12 -29 -12q-11 0 -20 8t-9 21q0 7 3.5 15.5t7.5 14.5t10.5 14.5t7.5 10.5q67 88 123 88q45 0 74 -90q9 1 17.5 5t13 8.5t11.5 13t11 12.5q2 2 15.5 18.5t25 25.5t22.5 9q9 0 17 -7.5t8 -17.5
q0 -7 -6 -16q-83 -133 -144 -133zM88 -100q0 22 2 32q120 653 608 1516q35 61 88 61q70 0 70 -65q0 -62 -22 -225q-74 -546 -74 -957q0 -368 86 -526q11 -19 26 -19q22 0 61 46t82 116t69 115t44 80q326 605 570 1315q3 9 8.5 31.5t10.5 36t13 29.5t20.5 24t29.5 8
q20 0 32.5 -13.5t12.5 -38.5t-7.5 -53t-15.5 -46.5t-23 -49.5t-20 -43q-23 -54 -116.5 -275t-132.5 -308.5t-116 -256t-145 -297t-143 -252.5q-75 -126 -121 -178q-68 -78 -123 -78q-41 0 -74.5 40t-53.5 107t-34 140.5t-20.5 153.5t-9 132.5t-2.5 90.5q0 398 77 944
q-10 -4 -20 -29q-65 -163 -200 -462t-191 -433q-6 -15 -18.5 -44.5t-18.5 -45.5l-76 -180q-6 -16 -18.5 -45.5t-18.5 -44.5q-1 -2 -5 -12.5t-6.5 -17t-7.5 -17.5t-9.5 -18t-10.5 -14.5t-12.5 -11t-13.5 -3.5q-31 0 -31 41zM248 258q37 89 162.5 376.5t185.5 448.5
q-219 -404 -348 -825z" />
    <glyph glyph-name="Ograve" unicode="&#xd2;" horiz-adv-x="1660" 
d="M1526 1655q24 -17 66 -62.5t42 -64.5q0 -13 -12 -23t-25 -10q-23 0 -72.5 52.5t-49.5 74.5q0 14 11.5 25.5t24.5 11.5q11 0 15 -4zM1862 1012q0 -118 -50 -303q-54 -204 -139.5 -387.5t-213.5 -347.5t-279 -265q-128 -84 -267 -84q-92 0 -162.5 39t-111 104.5t-60.5 144
t-20 165.5q0 230 88 503t217 488q2 3 5 7t4.5 7t3 7t0.5 8q-10 5 -31 -8q-82 -45 -168.5 -103.5t-182 -140.5t-168.5 -167t-121 -186t-48 -194q0 -36 16 -55.5t57 -32.5q181 -59 181 -139q0 -14 -11 -23.5t-28 -9.5q-11 0 -17 2q-260 68 -260 278q0 112 59 232t151.5 222
t208.5 194.5t228 159t211 106.5q30 11 54 41q23 29 56 64.5t78 78.5t90.5 71t76.5 28q19 0 34 -12.5t15 -30.5q0 -12 -10 -24.5t-27 -18.5q-28 -9 -58.5 -28t-48 -33t-49.5 -42q-14 -11 -16 -24q188 36 307 36q406 0 406 -327zM637 102q0 -82 15 -152t46 -128t85.5 -91.5
t127.5 -33.5q117 0 230 76q220 150 376 426t232 596q33 149 33 219q0 95 -34.5 146t-117.5 79q-76 25 -176 25q-168 0 -367 -70q-54 -18 -88 -66q-218 -321 -307 -684q-55 -214 -55 -342zM262 145q21 -31 74 -45q-40 40 -74 45z" />
    <glyph glyph-name="Oacute" unicode="&#xd3;" horiz-adv-x="1660" 
d="M1538 1479q-33 0 -33 26t25 47q90 79 96 84q24 19 43 19q11 0 23 -11t12 -24q0 -22 -61.5 -72.5t-94.5 -68.5h-10zM1862 1012q0 -118 -50 -303q-54 -204 -139.5 -387.5t-213.5 -347.5t-279 -265q-128 -84 -267 -84q-92 0 -162.5 39t-111 104.5t-60.5 144t-20 165.5
q0 230 88 503t217 488q2 3 5 7t4.5 7t3 7t0.5 8q-10 5 -31 -8q-82 -45 -168.5 -103.5t-182 -140.5t-168.5 -167t-121 -186t-48 -194q0 -36 16 -55.5t57 -32.5q181 -59 181 -139q0 -14 -11 -23.5t-28 -9.5q-11 0 -17 2q-260 68 -260 278q0 112 59 232t151.5 222t208.5 194.5
t228 159t211 106.5q30 11 54 41q23 29 56 64.5t78 78.5t90.5 71t76.5 28q19 0 34 -12.5t15 -30.5q0 -12 -10 -24.5t-27 -18.5q-28 -9 -58.5 -28t-48 -33t-49.5 -42q-14 -11 -16 -24q188 36 307 36q406 0 406 -327zM637 102q0 -82 15 -152t46 -128t85.5 -91.5t127.5 -33.5
q117 0 230 76q220 150 376 426t232 596q33 149 33 219q0 95 -34.5 146t-117.5 79q-76 25 -176 25q-168 0 -367 -70q-54 -18 -88 -66q-218 -321 -307 -684q-55 -214 -55 -342zM262 145q21 -31 74 -45q-40 40 -74 45z" />
    <glyph glyph-name="Ocircumflex" unicode="&#xd4;" horiz-adv-x="1660" 
d="M1638 1460q-11 0 -19 5.5t-14.5 17t-10 21t-8.5 24t-7 20.5q-31 -27 -61 -57q-30 -25 -43 -25q-14 0 -26.5 14.5t-2.5 26.5q25 37 76.5 92.5t74.5 55.5q27 0 49.5 -64.5t22.5 -99.5q0 -14 -9 -22.5t-22 -8.5zM1862 1012q0 -118 -50 -303q-54 -204 -139.5 -387.5
t-213.5 -347.5t-279 -265q-128 -84 -267 -84q-92 0 -162.5 39t-111 104.5t-60.5 144t-20 165.5q0 230 88 503t217 488q2 3 5 7t4.5 7t3 7t0.5 8q-10 5 -31 -8q-82 -45 -168.5 -103.5t-182 -140.5t-168.5 -167t-121 -186t-48 -194q0 -36 16 -55.5t57 -32.5q181 -59 181 -139
q0 -14 -11 -23.5t-28 -9.5q-11 0 -17 2q-260 68 -260 278q0 112 59 232t151.5 222t208.5 194.5t228 159t211 106.5q30 11 54 41q23 29 56 64.5t78 78.5t90.5 71t76.5 28q19 0 34 -12.5t15 -30.5q0 -12 -10 -24.5t-27 -18.5q-28 -9 -58.5 -28t-48 -33t-49.5 -42
q-14 -11 -16 -24q188 36 307 36q406 0 406 -327zM637 102q0 -82 15 -152t46 -128t85.5 -91.5t127.5 -33.5q117 0 230 76q220 150 376 426t232 596q33 149 33 219q0 95 -34.5 146t-117.5 79q-76 25 -176 25q-168 0 -367 -70q-54 -18 -88 -66q-218 -321 -307 -684
q-55 -214 -55 -342zM262 145q21 -31 74 -45q-40 40 -74 45z" />
    <glyph glyph-name="Otilde" unicode="&#xd5;" horiz-adv-x="1660" 
d="M1626 1516q-43 0 -78 90q-16 -9 -29.5 -22t-28 -30t-24.5 -26q-12 -12 -28 -12q-11 0 -20 7.5t-9 20.5q0 7 3.5 15.5t7.5 14.5t10.5 14.5t7.5 10.5q67 89 123 89q43 0 73 -91q9 1 17.5 5.5t13 8.5t12.5 13t11 12q2 2 15.5 18.5t25 26t22.5 9.5q9 0 17 -7.5t8 -17.5
q0 -5 -7 -16q-83 -133 -143 -133zM1862 1012q0 -118 -50 -303q-54 -204 -139.5 -387.5t-213.5 -347.5t-279 -265q-128 -84 -267 -84q-92 0 -162.5 39t-111 104.5t-60.5 144t-20 165.5q0 230 88 503t217 488q2 3 5 7t4.5 7t3 7t0.5 8q-10 5 -31 -8q-82 -45 -168.5 -103.5
t-182 -140.5t-168.5 -167t-121 -186t-48 -194q0 -36 16 -55.5t57 -32.5q181 -59 181 -139q0 -14 -11 -23.5t-28 -9.5q-11 0 -17 2q-260 68 -260 278q0 112 59 232t151.5 222t208.5 194.5t228 159t211 106.5q30 11 54 41q23 29 56 64.5t78 78.5t90.5 71t76.5 28
q19 0 34 -12.5t15 -30.5q0 -12 -10 -24.5t-27 -18.5q-28 -9 -58.5 -28t-48 -33t-49.5 -42q-14 -11 -16 -24q188 36 307 36q406 0 406 -327zM637 102q0 -82 15 -152t46 -128t85.5 -91.5t127.5 -33.5q117 0 230 76q220 150 376 426t232 596q33 149 33 219q0 95 -34.5 146
t-117.5 79q-76 25 -176 25q-168 0 -367 -70q-54 -18 -88 -66q-218 -321 -307 -684q-55 -214 -55 -342zM262 145q21 -31 74 -45q-40 40 -74 45z" />
    <glyph glyph-name="Odieresis" unicode="&#xd6;" horiz-adv-x="1660" 
d="M1421 1772q21 0 39.5 -22.5t18.5 -45.5q0 -30 -20 -54t-46 -24q-24 0 -37.5 18.5t-13.5 41.5q0 32 17.5 59t41.5 27zM1647 1772q21 0 39 -22.5t18 -45.5q0 -30 -20 -54t-46 -24q-24 0 -37.5 18.5t-13.5 41.5q0 32 18 59t42 27zM1862 1012q0 -118 -50 -303
q-54 -204 -139.5 -387.5t-213.5 -347.5t-279 -265q-128 -84 -267 -84q-92 0 -162.5 39t-111 104.5t-60.5 144t-20 165.5q0 230 88 503t217 488q2 3 5 7t4.5 7t3 7t0.5 8q-10 5 -31 -8q-82 -45 -168.5 -103.5t-182 -140.5t-168.5 -167t-121 -186t-48 -194q0 -36 16 -55.5
t57 -32.5q181 -59 181 -139q0 -14 -11 -23.5t-28 -9.5q-11 0 -17 2q-260 68 -260 278q0 112 59 232t151.5 222t208.5 194.5t228 159t211 106.5q30 11 54 41q23 29 56 64.5t78 78.5t90.5 71t76.5 28q19 0 34 -12.5t15 -30.5q0 -12 -10 -24.5t-27 -18.5q-28 -9 -58.5 -28
t-48 -33t-49.5 -42q-14 -11 -16 -24q188 36 307 36q406 0 406 -327zM637 102q0 -82 15 -152t46 -128t85.5 -91.5t127.5 -33.5q117 0 230 76q220 150 376 426t232 596q33 149 33 219q0 95 -34.5 146t-117.5 79q-76 25 -176 25q-168 0 -367 -70q-54 -18 -88 -66
q-218 -321 -307 -684q-55 -214 -55 -342zM262 145q21 -31 74 -45q-40 40 -74 45z" />
    <glyph glyph-name="multiply" unicode="&#xd7;" horiz-adv-x="518" 
d="M98 745q0 13 11.5 25t25.5 12q9 0 18.5 -5.5t15 -10t14.5 -14.5t10 -11q17 -20 55 -67q51 49 149 143q39 39 62 39q13 0 26 -13t13 -26q0 -6 -3 -13t-6 -12t-9.5 -12t-9.5 -10t-11 -10l-8 -6q-9 -9 -33 -29l-64 -55q-5 -5 -16 -14.5t-16 -14.5q-27 -24 -27 -31
q0 -13 30.5 -50t30.5 -60q0 -10 -8.5 -17.5t-17.5 -7.5q-13 0 -28 11t-25.5 23t-23 28.5t-15.5 19.5q-15 -4 -92.5 -75t-96.5 -93q-9 -10 -19 -3t-10 20q4 42 138 176q26 26 26 34q0 4 -2.5 7.5t-9.5 11.5t-12 14q-1 2 -11 12.5t-17 18.5t-16 20t-13.5 23.5t-4.5 21.5z" />
    <glyph glyph-name="Oslash" unicode="&#xd8;" horiz-adv-x="778" 
d="M135 -10q0 27 25 65q27 47 65 105q11 16 11 49q0 18 -5.5 53.5t-5.5 52.5q0 102 43 267q25 102 60.5 193.5t85 178.5t118.5 154.5t150 105.5q46 21 92 21q52 0 93 -26t61 -74q2 -4 4 -12.5t5.5 -14t10.5 -8.5q21 16 55 58.5t52 58.5q19 16 37 16q17 0 27.5 -11.5
t10.5 -27.5q0 -20 -20 -37t-40.5 -38.5t-44.5 -49t-38 -41.5q-18 -18 -18 -53v-35q0 -163 -72 -368t-170 -375q-129 -222 -278 -222q-53 0 -88.5 23.5t-67.5 67.5q-2 3 -6.5 10.5t-9.5 12.5t-11 9q-5 -7 -25 -44.5t-41.5 -65t-39.5 -27.5q-11 0 -18 9.5t-7 19.5zM786 1151
q-73 0 -153 -67.5t-123 -141.5q-181 -311 -199 -637q10 4 17 11t13.5 17t8.5 13q105 143 171.5 230.5t164 209t184.5 218.5q13 16 13 30q0 47 -28.5 82t-68.5 35zM453 55q60 0 121 59.5t106 143.5t85.5 189t63.5 183t37 138q21 90 21 135q-5 -1 -9.5 -2.5t-8 -5l-5 -5
t-4.5 -6.5l-4 -5q-212 -249 -496 -635q-22 -32 -22 -62q0 -45 36 -86t79 -41z" />
    <glyph glyph-name="Ugrave" unicode="&#xd9;" horiz-adv-x="974" 
d="M1096 1737q24 -17 66 -62.5t42 -64.5q0 -13 -12 -23t-25 -10q-23 0 -73 52.5t-50 74.5q0 14 12 25.5t25 11.5q11 0 15 -4zM160 -41q0 44 4 64q23 161 108 464q142 518 375 928q11 21 18 33t21.5 32.5t31 31t34.5 10.5q16 0 27.5 -11t11.5 -30q0 -3 -5 -23
q-101 -357 -331 -692q-22 -32 -29 -57q-130 -392 -184 -682q-9 -56 -9 -90q0 -50 14 -83.5t44 -33.5q80 0 280 274q245 354 539 897q22 42 47 109q45 111 162 334q13 26 39 56t51 30q13 0 28 -14.5t15 -30.5q0 -14 -12 -23q-9 -7 -17 -17.5t-12 -18.5t-10.5 -21.5
t-9.5 -20.5q-175 -309 -336 -758q-18 -52 -62.5 -172t-68.5 -190t-57 -174.5t-54.5 -201t-34.5 -193.5q-8 -56 -22 -69q-8 -7 -19 -7q-32 0 -32 49q0 19 2 27q8 51 17 101t23 107t23 96.5t29 105t28 93t32.5 101.5t30 90.5t33.5 99t31 90.5q4 9 -2 19q-85 -142 -135 -223
t-129 -197.5t-153 -208.5q-158 -201 -256 -201q-37 0 -65.5 34t-41 78.5t-12.5 88.5zM604 1145q3 5 10.5 15.5t7 12.5t-0.5 13q-15 -19 -17 -41z" />
    <glyph glyph-name="Uacute" unicode="&#xda;" horiz-adv-x="974" 
d="M1026 1581q-33 0 -33 27q0 26 25 47q90 79 96 84q22 18 43 18q11 0 23 -11t12 -24q0 -22 -61.5 -72.5t-94.5 -68.5h-10zM160 -41q0 44 4 64q23 161 108 464q142 518 375 928q11 21 18 33t21.5 32.5t31 31t34.5 10.5q16 0 27.5 -11t11.5 -30q0 -3 -5 -23
q-101 -357 -331 -692q-22 -32 -29 -57q-130 -392 -184 -682q-9 -56 -9 -90q0 -50 14 -83.5t44 -33.5q80 0 280 274q245 354 539 897q22 42 47 109q45 111 162 334q13 26 39 56t51 30q13 0 28 -14.5t15 -30.5q0 -14 -12 -23q-9 -7 -17 -17.5t-12 -18.5t-10.5 -21.5
t-9.5 -20.5q-175 -309 -336 -758q-18 -52 -62.5 -172t-68.5 -190t-57 -174.5t-54.5 -201t-34.5 -193.5q-8 -56 -22 -69q-8 -7 -19 -7q-32 0 -32 49q0 19 2 27q8 51 17 101t23 107t23 96.5t29 105t28 93t32.5 101.5t30 90.5t33.5 99t31 90.5q4 9 -2 19q-85 -142 -135 -223
t-129 -197.5t-153 -208.5q-158 -201 -256 -201q-37 0 -65.5 34t-41 78.5t-12.5 88.5zM604 1145q3 5 10.5 15.5t7 12.5t-0.5 13q-15 -19 -17 -41z" />
    <glyph glyph-name="Ucircumflex" unicode="&#xdb;" horiz-adv-x="974" 
d="M1229 1665q-11 0 -19.5 5.5t-14.5 17t-10 20.5t-9 24.5t-7 20.5q-31 -27 -61 -57q-30 -25 -43 -25q-14 0 -26.5 14.5t-2.5 26.5q25 36 77 92t75 56q27 0 49.5 -64.5t22.5 -99.5q0 -14 -9 -22.5t-22 -8.5zM160 -41q0 44 4 64q23 161 108 464q142 518 375 928q11 21 18 33
t21.5 32.5t31 31t34.5 10.5q16 0 27.5 -11t11.5 -30q0 -3 -5 -23q-101 -357 -331 -692q-22 -32 -29 -57q-130 -392 -184 -682q-9 -56 -9 -90q0 -50 14 -83.5t44 -33.5q80 0 280 274q245 354 539 897q22 42 47 109q45 111 162 334q13 26 39 56t51 30q13 0 28 -14.5t15 -30.5
q0 -14 -12 -23q-9 -7 -17 -17.5t-12 -18.5t-10.5 -21.5t-9.5 -20.5q-175 -309 -336 -758q-18 -52 -62.5 -172t-68.5 -190t-57 -174.5t-54.5 -201t-34.5 -193.5q-8 -56 -22 -69q-8 -7 -19 -7q-32 0 -32 49q0 19 2 27q8 51 17 101t23 107t23 96.5t29 105t28 93t32.5 101.5
t30 90.5t33.5 99t31 90.5q4 9 -2 19q-85 -142 -135 -223t-129 -197.5t-153 -208.5q-158 -201 -256 -201q-37 0 -65.5 34t-41 78.5t-12.5 88.5zM604 1145q3 5 10.5 15.5t7 12.5t-0.5 13q-15 -19 -17 -41z" />
    <glyph glyph-name="Udieresis" unicode="&#xdc;" horiz-adv-x="974" 
d="M971 1812q21 0 39 -22t18 -45q0 -30 -19.5 -54t-45.5 -24q-24 0 -38 18t-14 41q0 32 18 59t42 27zM1196 1812q21 0 39 -22t18 -45q0 -30 -19.5 -54t-45.5 -24q-24 0 -37.5 18t-13.5 41q0 32 17.5 59t41.5 27zM160 -41q0 44 4 64q23 161 108 464q142 518 375 928
q11 21 18 33t21.5 32.5t31 31t34.5 10.5q16 0 27.5 -11t11.5 -30q0 -3 -5 -23q-101 -357 -331 -692q-22 -32 -29 -57q-130 -392 -184 -682q-9 -56 -9 -90q0 -50 14 -83.5t44 -33.5q80 0 280 274q245 354 539 897q22 42 47 109q45 111 162 334q13 26 39 56t51 30
q13 0 28 -14.5t15 -30.5q0 -14 -12 -23q-9 -7 -17 -17.5t-12 -18.5t-10.5 -21.5t-9.5 -20.5q-175 -309 -336 -758q-18 -52 -62.5 -172t-68.5 -190t-57 -174.5t-54.5 -201t-34.5 -193.5q-8 -56 -22 -69q-8 -7 -19 -7q-32 0 -32 49q0 19 2 27q8 51 17 101t23 107t23 96.5
t29 105t28 93t32.5 101.5t30 90.5t33.5 99t31 90.5q4 9 -2 19q-85 -142 -135 -223t-129 -197.5t-153 -208.5q-158 -201 -256 -201q-37 0 -65.5 34t-41 78.5t-12.5 88.5zM604 1145q3 5 10.5 15.5t7 12.5t-0.5 13q-15 -19 -17 -41z" />
    <glyph glyph-name="Yacute" unicode="&#xdd;" horiz-adv-x="1171" 
d="M1149 1663q-33 0 -33 27q0 26 25 47q90 79 96 84q23 18 43 18q11 0 23 -11t12 -24q0 -22 -61.5 -72.5t-94.5 -68.5h-10zM307 166q-78 0 -78 110q0 49 19 123q129 533 377 928q27 43 38.5 60t37 49t49.5 51q20 14 38 14t28.5 -13t10.5 -34q0 -12 -2 -18
q-22 -75 -67.5 -153.5t-90 -136.5t-95 -136t-78.5 -146q-44 -106 -69 -175t-51.5 -172t-35.5 -202v-20q0 -33 8 -49q8 -1 16.5 1.5t13.5 5.5t14 9t13 8q176 104 320 242q409 393 690 793q57 82 72 125q8 20 39.5 61t52.5 41q22 0 22 -35q0 -23 -8 -43q-10 -21 -57.5 -96.5
t-63.5 -124.5q-17 -53 -49.5 -163.5t-60 -195.5t-57.5 -161q-59 -153 -111.5 -270.5t-122 -248.5t-152.5 -242.5t-178 -199.5q-153 -141 -360 -141q-76 0 -180 70q-27 20 -27 53q0 41 39 41q45 0 76 -39q33 -41 90 -41q93 0 178 38.5t150 104.5q164 167 270 352
q245 435 393 916q0 6 2 22q-388 -486 -719 -759q-251 -203 -344 -203z" />
    <glyph glyph-name="germandbls" unicode="&#xdf;" horiz-adv-x="845" 
d="M123 -20q-37 0 -37 38q0 20 6 35q55 177 78.5 251.5t74 212.5t99.5 243q36 77 66.5 132.5t74 119t96 111.5t113.5 79q38 19 72 19q55 0 55 -45q0 -10 -2 -20.5t-4 -17.5t-8 -18.5t-8 -16t-10 -17.5t-9 -15q-30 -50 -73 -108.5t-68.5 -89.5t-88.5 -104t-77 -89q27 3 73 18
t64 19q69 16 135 16q100 0 166 -38t66 -113q0 -67 -39 -127q-197 -319 -514 -469l-22 -10q-23 -10 -32 -13t-27 -7.5t-32 -4.5q-27 0 -48 17t-21 44q0 15 8 39q10 26 22 50t31.5 48t32.5 41t41 40.5t39.5 34.5t46.5 35.5t43 30t48 32t44 28.5q17 10 29 10q13 0 21.5 -9
t8.5 -21q0 -19 -12 -31q-85 -100 -215 -164q-10 -5 -18.5 -10.5t-17 -13t-14 -12.5t-13.5 -16t-11.5 -15.5t-11.5 -18t-10 -16.5t-11 -19t-10 -18q6 -4 13 -4t10 0.5t10 4.5l8 3q296 130 494 414q49 69 49 123q0 43 -43.5 64.5t-105.5 21.5q-150 0 -314 -95q-27 -16 -41 -16
q-12 0 -19 9t-7 22q0 44 65 118l209 271q77 98 111 176q-13 6 -31 -8q-107 -62 -184 -183q-109 -170 -209.5 -429t-165.5 -502q-11 -47 -39 -47z" />
    <glyph glyph-name="agrave" unicode="&#xe0;" horiz-adv-x="618" 
d="M299 594q24 -17 66.5 -62.5t42.5 -64.5q0 -13 -12 -23t-25 -10q-23 0 -73 52.5t-50 74.5q0 13 12 25t25 12q10 0 14 -4zM383 188q-47 -31 -128 -96t-124 -94q-17 -10 -31 -10q-19 0 -32 14t-13 35q0 24 19 67q17 39 39.5 76.5t53.5 78.5t70.5 66t79.5 25q59 0 101 -48.5
t57 -113.5q9 -41 23.5 -59t38.5 -18q41 0 104 38.5t115 81.5q43 43 63 43q15 0 15 -10q0 -18 -19 -37q-1 -1 -21.5 -20t-30.5 -28t-34 -29.5t-41 -32.5t-42 -28t-45 -25.5t-43.5 -16t-43.5 -6.5q-50 0 -78 37.5t-53 109.5zM178 109q7 5 21.5 14t21.5 14l86 56q24 17 43 28
q8 5 8 12q0 10 -16 19.5t-25 9.5q-40 0 -80 -52t-59 -101z" />
    <glyph glyph-name="aacute" unicode="&#xe1;" horiz-adv-x="618" 
d="M332 438q-33 0 -33 27q0 26 25 47q90 79 96 84q22 18 43 18q11 0 23 -10.5t12 -23.5q0 -22 -61.5 -73t-94.5 -69h-10zM383 188q-47 -31 -128 -96t-124 -94q-17 -10 -31 -10q-19 0 -32 14t-13 35q0 24 19 67q17 39 39.5 76.5t53.5 78.5t70.5 66t79.5 25q59 0 101 -48.5
t57 -113.5q9 -41 23.5 -59t38.5 -18q41 0 104 38.5t115 81.5q43 43 63 43q15 0 15 -10q0 -18 -19 -37q-1 -1 -21.5 -20t-30.5 -28t-34 -29.5t-41 -32.5t-42 -28t-45 -25.5t-43.5 -16t-43.5 -6.5q-50 0 -78 37.5t-53 109.5zM178 109q7 5 21.5 14t21.5 14l86 56q24 17 43 28
q8 5 8 12q0 10 -16 19.5t-25 9.5q-40 0 -80 -52t-59 -101z" />
    <glyph glyph-name="acircumflex" unicode="&#xe2;" horiz-adv-x="618" 
d="M412 440q-11 0 -19.5 5.5t-14.5 17t-10 20.5t-9 24.5t-7 20.5q-31 -27 -61 -57q-30 -25 -43 -25q-14 0 -26.5 14.5t-2.5 26.5q25 36 77 92t75 56q27 0 49 -64t22 -100q0 -14 -8.5 -22.5t-21.5 -8.5zM383 188q-47 -31 -128 -96t-124 -94q-17 -10 -31 -10q-19 0 -32 14
t-13 35q0 24 19 67q17 39 39.5 76.5t53.5 78.5t70.5 66t79.5 25q59 0 101 -48.5t57 -113.5q9 -41 23.5 -59t38.5 -18q41 0 104 38.5t115 81.5q43 43 63 43q15 0 15 -10q0 -18 -19 -37q-1 -1 -21.5 -20t-30.5 -28t-34 -29.5t-41 -32.5t-42 -28t-45 -25.5t-43.5 -16
t-43.5 -6.5q-50 0 -78 37.5t-53 109.5zM178 109q7 5 21.5 14t21.5 14l86 56q24 17 43 28q8 5 8 12q0 10 -16 19.5t-25 9.5q-40 0 -80 -52t-59 -101z" />
    <glyph glyph-name="atilde" unicode="&#xe3;" horiz-adv-x="618" 
d="M399 434q-42 0 -77 90q-16 -9 -29.5 -22t-28 -30t-24.5 -26q-12 -12 -29 -12q-11 0 -20 8t-9 21q0 7 3.5 15.5t7.5 14.5t10.5 14.5t7.5 10.5q67 88 123 88q45 0 74 -90q9 1 17.5 5t13 8.5t11.5 13t11 12.5q2 2 15.5 18.5t25 25.5t22.5 9q9 0 17 -7t8 -17q0 -8 -6 -17
q-83 -133 -144 -133zM383 188q-47 -31 -128 -96t-124 -94q-17 -10 -31 -10q-19 0 -32 14t-13 35q0 24 19 67q17 39 39.5 76.5t53.5 78.5t70.5 66t79.5 25q59 0 101 -48.5t57 -113.5q9 -41 23.5 -59t38.5 -18q41 0 104 38.5t115 81.5q43 43 63 43q15 0 15 -10q0 -18 -19 -37
q-1 -1 -21.5 -20t-30.5 -28t-34 -29.5t-41 -32.5t-42 -28t-45 -25.5t-43.5 -16t-43.5 -6.5q-50 0 -78 37.5t-53 109.5zM178 109q7 5 21.5 14t21.5 14l86 56q24 17 43 28q8 5 8 12q0 10 -16 19.5t-25 9.5q-40 0 -80 -52t-59 -101z" />
    <glyph glyph-name="adieresis" unicode="&#xe4;" horiz-adv-x="618" 
d="M297 793q21 0 39 -22.5t18 -45.5q0 -30 -19.5 -54t-45.5 -24q-24 0 -37.5 18.5t-13.5 41.5q0 32 17.5 59t41.5 27zM522 793q21 0 39.5 -22.5t18.5 -45.5q0 -30 -20 -54t-46 -24q-24 0 -37.5 18.5t-13.5 41.5q0 32 17.5 59t41.5 27zM383 188q-47 -31 -128 -96t-124 -94
q-17 -10 -31 -10q-19 0 -32 14t-13 35q0 24 19 67q17 39 39.5 76.5t53.5 78.5t70.5 66t79.5 25q59 0 101 -48.5t57 -113.5q9 -41 23.5 -59t38.5 -18q41 0 104 38.5t115 81.5q43 43 63 43q15 0 15 -10q0 -18 -19 -37q-1 -1 -21.5 -20t-30.5 -28t-34 -29.5t-41 -32.5t-42 -28
t-45 -25.5t-43.5 -16t-43.5 -6.5q-50 0 -78 37.5t-53 109.5zM178 109q7 5 21.5 14t21.5 14l86 56q24 17 43 28q8 5 8 12q0 10 -16 19.5t-25 9.5q-40 0 -80 -52t-59 -101z" />
    <glyph glyph-name="aring" unicode="&#xe5;" horiz-adv-x="618" 
d="M434 827q41 0 76 -32.5t35 -69.5q0 -42 -32.5 -67t-72.5 -25q-38 0 -65 21t-27 59q0 42 28 78t58 36zM451 692q13 0 20.5 11t7.5 26q0 12 -6.5 21.5t-17.5 9.5q-10 -3 -21.5 -16.5t-11.5 -26.5q0 -9 10 -17t19 -8zM383 188q-47 -31 -128 -96t-124 -94q-17 -10 -31 -10
q-19 0 -32 14t-13 35q0 24 19 67q17 39 39.5 76.5t53.5 78.5t70.5 66t79.5 25q59 0 101 -48.5t57 -113.5q9 -41 23.5 -59t38.5 -18q41 0 104 38.5t115 81.5q43 43 63 43q15 0 15 -10q0 -18 -19 -37q-1 -1 -21.5 -20t-30.5 -28t-34 -29.5t-41 -32.5t-42 -28t-45 -25.5
t-43.5 -16t-43.5 -6.5q-50 0 -78 37.5t-53 109.5zM178 109q7 5 21.5 14t21.5 14l86 56q24 17 43 28q8 5 8 12q0 10 -16 19.5t-25 9.5q-40 0 -80 -52t-59 -101z" />
    <glyph glyph-name="ae" unicode="&#xe6;" horiz-adv-x="856" 
d="M600 356q0 -50 -64 -95t-114 -58q-4 -1 -14 -2t-15 -2.5t-11 -6.5t-9 -14q-13 -39 -13 -55q0 -32 17.5 -51t44.5 -19q41 0 105 37.5t104 70.5t61 54q1 1 8 9t14.5 15.5t16.5 16t18.5 13.5t16.5 5q11 0 14.5 -5.5t0.5 -14t-6.5 -15t-6.5 -10.5q-69 -87 -143 -148t-168 -95
q-18 -6 -39 -6q-54 0 -95.5 40.5t-41.5 96.5q0 5 2 17.5t0.5 21.5t-7.5 16q-53 -43 -155 -125q-2 -2 -10 -7.5t-10.5 -7.5t-10 -7t-11.5 -7l-11 -5.5t-13 -5t-13.5 -2.5t-14.5 -1q-25 0 -38.5 15.5t-13.5 41.5q0 4 5 29q11 47 31 94t50 94t74 76t94 29q52 0 90 -41
q3 -4 7 -11t7 -11t7 -5q2 2 20 18t28.5 25t31 25t36.5 24.5t35.5 15.5t36.5 7q26 0 49 -22t23 -52zM526 352q-44 -15 -66.5 -34.5t-37.5 -53.5q68 25 104 88zM57 86q17 2 45 25q124 99 154 125q2 2 9 6t11 7t6.5 8t0.5 11q-11 35 -54 35q-53 0 -110 -79t-62 -138z" />
    <glyph glyph-name="ccedilla" unicode="&#xe7;" horiz-adv-x="454" 
d="M346 287q-6 0 -21.5 8t-21.5 8q-19 0 -39 -20q-68 -65 -78 -154q0 -38 12 -54t40 -16q42 0 96 21q39 17 84 43t68 41t80 56t67 48q38 29 47 11q2 -5 -0.5 -11t-6 -9.5t-9.5 -8.5t-7 -6q-12 -10 -54 -44.5t-60.5 -48.5t-52.5 -39.5t-64 -43.5t-61 -33q-66 -32 -111 -39
q-1 -6 -7.5 -22.5t-6.5 -22.5q0 -14 16 -19q57 -20 57 -65q0 -41 -45 -69.5t-100 -28.5q-43 0 -43 32q0 17 15 25t33.5 8.5t36.5 7t23 21.5q-2 5 -19 4.5t-19 -0.5q-35 5 -35 41q0 13 3.5 27.5t11.5 35.5t9 25q-37 9 -60.5 43.5t-23.5 81.5q0 77 36.5 141.5t96.5 104.5
q24 18 60 18q32 0 54 -15t22 -44q0 -16 -6.5 -27.5t-16.5 -11.5z" />
    <glyph glyph-name="egrave" unicode="&#xe8;" horiz-adv-x="464" 
d="M295 608q24 -17 66 -62.5t42 -64.5q0 -13 -11.5 -22.5t-24.5 -9.5q-23 0 -73 52t-50 74q0 13 12 25t25 12q10 0 14 -4zM176 106q0 -55 72 -55q114 0 303 135q3 2 29 27t50 43t38 18t14 -12q0 -19 -14 -33q-189 -174 -375 -229q-33 -10 -60 -10q-59 0 -97 34.5t-38 90.5
q0 78 42.5 140.5t109.5 104.5q33 19 57 19q22 0 38.5 -15.5t16.5 -37.5q0 -3 -6 -27q-17 -52 -58.5 -96t-92.5 -66q-1 -1 -8 -4.5t-8.5 -5t-5.5 -5t-5.5 -7.5t-1.5 -9zM270 279q-20 -17 -27.5 -24t-19 -24.5t-16.5 -37.5q35 29 45.5 43t17.5 43z" />
    <glyph glyph-name="eacute" unicode="&#xe9;" horiz-adv-x="464" 
d="M307 453q-33 0 -33 26t25 47q90 79 96 84q24 19 43 19q11 0 23 -11t12 -24q0 -22 -61.5 -72.5t-94.5 -68.5h-10zM176 106q0 -55 72 -55q114 0 303 135q3 2 29 27t50 43t38 18t14 -12q0 -19 -14 -33q-189 -174 -375 -229q-33 -10 -60 -10q-59 0 -97 34.5t-38 90.5
q0 78 42.5 140.5t109.5 104.5q33 19 57 19q22 0 38.5 -15.5t16.5 -37.5q0 -3 -6 -27q-17 -52 -58.5 -96t-92.5 -66q-1 -1 -8 -4.5t-8.5 -5t-5.5 -5t-5.5 -7.5t-1.5 -9zM270 279q-20 -17 -27.5 -24t-19 -24.5t-16.5 -37.5q35 29 45.5 43t17.5 43z" />
    <glyph glyph-name="ecircumflex" unicode="&#xea;" horiz-adv-x="464" 
d="M387 455q-11 0 -19 5.5t-14.5 17t-10 21t-8.5 24t-7 20.5q-31 -27 -62 -58q-29 -24 -43 -24t-26 14.5t-2 26.5q25 36 76.5 91.5t74.5 55.5q27 0 49.5 -64.5t22.5 -99.5q0 -14 -9 -22t-22 -8zM176 106q0 -55 72 -55q114 0 303 135q3 2 29 27t50 43t38 18t14 -12
q0 -19 -14 -33q-189 -174 -375 -229q-33 -10 -60 -10q-59 0 -97 34.5t-38 90.5q0 78 42.5 140.5t109.5 104.5q33 19 57 19q22 0 38.5 -15.5t16.5 -37.5q0 -3 -6 -27q-17 -52 -58.5 -96t-92.5 -66q-1 -1 -8 -4.5t-8.5 -5t-5.5 -5t-5.5 -7.5t-1.5 -9zM270 279
q-20 -17 -27.5 -24t-19 -24.5t-16.5 -37.5q35 29 45.5 43t17.5 43z" />
    <glyph glyph-name="edieresis" unicode="&#xeb;" horiz-adv-x="464" 
d="M272 807q21 0 39.5 -22.5t18.5 -45.5q0 -30 -20 -53.5t-46 -23.5q-24 0 -37.5 18t-13.5 41q0 32 17.5 59t41.5 27zM498 807q21 0 39 -22.5t18 -45.5q0 -30 -20 -53.5t-46 -23.5q-24 0 -37.5 18t-13.5 41q0 32 18 59t42 27zM176 106q0 -55 72 -55q114 0 303 135q3 2 29 27
t50 43t38 18t14 -12q0 -19 -14 -33q-189 -174 -375 -229q-33 -10 -60 -10q-59 0 -97 34.5t-38 90.5q0 78 42.5 140.5t109.5 104.5q33 19 57 19q22 0 38.5 -15.5t16.5 -37.5q0 -3 -6 -27q-17 -52 -58.5 -96t-92.5 -66q-1 -1 -8 -4.5t-8.5 -5t-5.5 -5t-5.5 -7.5t-1.5 -9z
M270 279q-20 -17 -27.5 -24t-19 -24.5t-16.5 -37.5q35 29 45.5 43t17.5 43z" />
    <glyph glyph-name="igrave" unicode="&#xec;" horiz-adv-x="337" 
d="M258 623q24 -17 66.5 -62.5t42.5 -64.5q0 -13 -12 -23t-25 -10q-23 0 -73 52.5t-50 74.5q0 14 11.5 25.5t25.5 11.5q10 0 14 -4zM252 387q16 0 27.5 -13t11.5 -28q0 -13 -10 -33q-63 -114 -82 -169q-11 -34 -17 -68l-2 -6q0 -27 23 -27q37 0 92 39q50 31 128.5 101
t100.5 87q4 4 13 4q16 0 16 -16q0 -24 -91.5 -105t-148.5 -124q-27 -19 -38 -26.5t-36.5 -17.5t-50.5 -10q-37 0 -61.5 27t-24.5 72q3 46 20 98.5t32 84.5t43 83q26 47 55 47z" />
    <glyph glyph-name="iacute" unicode="&#xed;" horiz-adv-x="337" 
d="M250 467q-33 0 -33 27q0 26 25 47q90 79 96 84q22 18 43 18q11 0 23 -11t12 -24q0 -22 -61.5 -72.5t-94.5 -68.5h-10zM252 387q16 0 27.5 -13t11.5 -28q0 -13 -10 -33q-63 -114 -82 -169q-11 -34 -17 -68l-2 -6q0 -27 23 -27q37 0 92 39q50 31 128.5 101t100.5 87
q4 4 13 4q16 0 16 -16q0 -24 -91.5 -105t-148.5 -124q-27 -19 -38 -26.5t-36.5 -17.5t-50.5 -10q-37 0 -61.5 27t-24.5 72q3 46 20 98.5t32 84.5t43 83q26 47 55 47z" />
    <glyph glyph-name="icircumflex" unicode="&#xee;" horiz-adv-x="337" 
d="M473 674q-11 0 -19 5.5t-14.5 17t-10 21t-8.5 24t-7 20.5q-38 -33 -62 -57q-30 -25 -43 -25q-14 0 -26 14.5t-2 26.5q25 36 76.5 91.5t74.5 55.5q27 0 49.5 -64t22.5 -99q0 -14 -9 -22.5t-22 -8.5zM252 387q16 0 27.5 -13t11.5 -28q0 -13 -10 -33q-63 -114 -82 -169
q-11 -34 -17 -68l-2 -6q0 -27 23 -27q37 0 92 39q50 31 128.5 101t100.5 87q4 4 13 4q16 0 16 -16q0 -24 -91.5 -105t-148.5 -124q-27 -19 -38 -26.5t-36.5 -17.5t-50.5 -10q-37 0 -61.5 27t-24.5 72q3 46 20 98.5t32 84.5t43 83q26 47 55 47z" />
    <glyph glyph-name="idieresis" unicode="&#xef;" horiz-adv-x="337" 
d="M215 821q21 0 39 -22t18 -45q0 -30 -19.5 -54t-45.5 -24q-24 0 -37.5 18t-13.5 41q0 32 17.5 59t41.5 27zM440 821q21 0 39.5 -22.5t18.5 -44.5q0 -30 -20 -54t-46 -24q-24 0 -37.5 18t-13.5 41q0 32 17.5 59t41.5 27zM252 387q16 0 27.5 -13t11.5 -28q0 -13 -10 -33
q-63 -114 -82 -169q-11 -34 -17 -68l-2 -6q0 -27 23 -27q37 0 92 39q50 31 128.5 101t100.5 87q4 4 13 4q16 0 16 -16q0 -24 -91.5 -105t-148.5 -124q-27 -19 -38 -26.5t-36.5 -17.5t-50.5 -10q-37 0 -61.5 27t-24.5 72q3 46 20 98.5t32 84.5t43 83q26 47 55 47z" />
    <glyph glyph-name="eth" unicode="&#xf0;" horiz-adv-x="532" 
d="M743 741q0 -11 -10 -24q-9 -13 -22.5 -27t-21.5 -21t-28 -22.5t-24 -19.5q-13 -110 -62 -212t-117.5 -177t-146 -129t-155.5 -82q-18 -7 -29 -7q-29 0 -45 22t-16 48q0 39 46 116.5t111 142.5t111 65q31 0 80 -37q9 -6 14 -6q28 0 55 26.5t43 61.5t26 64t11 40
q-44 -33 -63 -33q-13 0 -25 12.5t-12 26.5q0 11 14.5 26t30.5 26t38 25.5t27 17.5v14l2 27q0 91 -17.5 159.5t-63.5 141.5q-11 18 -11 32q0 29 19.5 51.5t46.5 22.5q37 0 47 -33q16 -55 24.5 -164.5t12.5 -140.5q4 -36 4 -57q1 1 10.5 8.5t13.5 11t13.5 10t16 9.5t15.5 5.5
t17 2.5q9 0 14.5 -7t5.5 -16zM342 326q-27 0 -88 -61t-61 -91q0 -27 34 -27q46 0 93 44t47 116q0 8 -8 13.5t-17 5.5z" />
    <glyph glyph-name="ntilde" unicode="&#xf1;" horiz-adv-x="692" 
d="M492 637q-43 0 -78 90q-16 -9 -29.5 -22t-28 -30t-24.5 -26q-12 -12 -29 -12q-11 0 -20 8t-9 21q0 7 3.5 15.5t7.5 14.5t10.5 14.5t7.5 10.5q67 88 123 88q45 0 74 -90q9 1 17.5 5t13 8.5t11.5 13t11 12.5q2 2 15.5 18.5t25 25.5t22.5 9q9 0 17 -7.5t8 -17.5q0 -7 -6 -16
q-83 -133 -143 -133zM248 375q19 0 30 -12t11 -27q0 -8 -3.5 -18.5t-6.5 -16.5t-10.5 -18.5t-8.5 -14.5q-56 -92 -76 -149q23 17 49 38t42.5 36t47 42.5t42.5 38.5q3 3 15.5 15t19 17.5t18 11.5t20.5 6q63 0 68 -146q3 -35 45 -35q61 0 143.5 34t141.5 75q35 22 53 22
t18 -14q0 -19 -16 -31q-167 -140 -336 -166q-8 -2 -23 -2q-30 0 -50.5 9.5t-31.5 21.5t-18.5 38.5t-9.5 43.5t-5 54q-1 8 -1 12q-8 0 -15.5 -3.5t-11.5 -6.5t-12 -10t-10 -9q-25 -25 -37 -35l-76 -74q-18 -15 -37 -34q-3 -2 -19 -17t-25 -22.5t-24 -15t-28 -7.5
q-21 0 -32 17t-11 45q0 81 131 286q12 21 39 21z" />
    <glyph glyph-name="ograve" unicode="&#xf2;" 
d="M256 586q24 -17 66.5 -62.5t42.5 -64.5q0 -13 -12 -23t-25 -10q-23 0 -73 52.5t-50 74.5q0 13 11.5 25t25.5 12q10 0 14 -4zM49 72q0 57 36.5 131t80.5 114q46 43 78 43q37 0 88 -63q61 -80 143 -80q35 0 64 10q2 1 51 24t67 23q17 0 17 -12q0 -32 -87 -69t-130 -37
t-133 37q-88 -203 -191 -203q-36 0 -60 24.5t-24 57.5zM139 68q34 12 55.5 36.5t43.5 63.5l9 18t10 20.5t6 18t3 21.5q0 9 -8 33q-46 -23 -82 -86t-37 -125z" />
    <glyph glyph-name="oacute" unicode="&#xf3;" 
d="M268 430q-32 0 -32 27t24 47q90 79 96 84q22 18 43 18q11 0 23 -11t12 -24q0 -22 -61 -72.5t-94 -68.5h-11zM49 72q0 57 36.5 131t80.5 114q46 43 78 43q37 0 88 -63q61 -80 143 -80q35 0 64 10q2 1 51 24t67 23q17 0 17 -12q0 -32 -87 -69t-130 -37t-133 37
q-88 -203 -191 -203q-36 0 -60 24.5t-24 57.5zM139 68q34 12 55.5 36.5t43.5 63.5l9 18t10 20.5t6 18t3 21.5q0 9 -8 33q-46 -23 -82 -86t-37 -125z" />
    <glyph glyph-name="ocircumflex" unicode="&#xf4;" 
d="M369 432q-11 0 -19.5 5.5t-14.5 17t-10 20.5t-9 24.5t-7 20.5q-31 -27 -61 -57q-30 -25 -43 -25q-14 0 -26.5 14.5t-2.5 26.5q25 36 77 92t75 56q27 0 49 -64t22 -100q0 -14 -8.5 -22.5t-21.5 -8.5zM49 72q0 57 36.5 131t80.5 114q46 43 78 43q37 0 88 -63
q61 -80 143 -80q35 0 64 10q2 1 51 24t67 23q17 0 17 -12q0 -32 -87 -69t-130 -37t-133 37q-88 -203 -191 -203q-36 0 -60 24.5t-24 57.5zM139 68q34 12 55.5 36.5t43.5 63.5l9 18t10 20.5t6 18t3 21.5q0 9 -8 33q-46 -23 -82 -86t-37 -125z" />
    <glyph glyph-name="otilde" unicode="&#xf5;" 
d="M377 426q-43 0 -78 90q-16 -9 -29.5 -22t-28 -30t-24.5 -26q-12 -12 -29 -12q-11 0 -19.5 8t-8.5 21q0 7 3.5 16t7 14.5t10 14.5t7.5 10q67 88 123 88q45 0 74 -90q9 1 17.5 5t13 8.5t11.5 13t11 12.5q1 1 15.5 18t26 26t22.5 9q9 0 16.5 -7.5t7.5 -17.5q0 -7 -6 -16
q-83 -133 -143 -133zM49 72q0 57 36.5 131t80.5 114q46 43 78 43q37 0 88 -63q61 -80 143 -80q35 0 64 10q2 1 51 24t67 23q17 0 17 -12q0 -32 -87 -69t-130 -37t-133 37q-88 -203 -191 -203q-36 0 -60 24.5t-24 57.5zM139 68q34 12 55.5 36.5t43.5 63.5l9 18t10 20.5t6 18
t3 21.5q0 9 -8 33q-46 -23 -82 -86t-37 -125z" />
    <glyph glyph-name="odieresis" unicode="&#xf6;" 
d="M213 784q21 0 39 -22t18 -45q0 -30 -19.5 -54t-45.5 -24q-24 0 -37.5 18t-13.5 41q0 32 17.5 59t41.5 27zM438 784q21 0 39.5 -22t18.5 -45q0 -30 -20 -54t-46 -24q-24 0 -37.5 18t-13.5 41q0 32 17.5 59t41.5 27zM49 72q0 57 36.5 131t80.5 114q46 43 78 43q37 0 88 -63
q61 -80 143 -80q35 0 64 10q2 1 51 24t67 23q17 0 17 -12q0 -32 -87 -69t-130 -37t-133 37q-88 -203 -191 -203q-36 0 -60 24.5t-24 57.5zM139 68q34 12 55.5 36.5t43.5 63.5l9 18t10 20.5t6 18t3 21.5q0 9 -8 33q-46 -23 -82 -86t-37 -125z" />
    <glyph glyph-name="divide" unicode="&#xf7;" 
d="M393 592q21 0 39.5 -22.5t18.5 -45.5q0 -30 -20 -54t-46 -24q-24 0 -37.5 18.5t-13.5 41.5q0 32 17.5 59t41.5 27zM379 303q5 0 19.5 -0.5t23 -1.5t19.5 -3.5t16.5 -8.5t5.5 -15q0 -17 -19 -26.5t-41 -11.5q-24 -3 -71 -9.5t-84.5 -10t-71.5 -3.5q-53 0 -53 39
q0 41 63 41q130 0 193 10zM168 59q21 0 39 -22t18 -45q0 -30 -19.5 -54t-45.5 -24q-24 0 -37.5 18t-13.5 41q0 32 17.5 59t41.5 27z" />
    <glyph glyph-name="oslash" unicode="&#xf8;" horiz-adv-x="456" 
d="M49 -129q0 29 40 85.5t40 76.5q0 12 -10 37t-10 41q0 34 19 87.5t53.5 98.5t70.5 45q32 0 59 -37q14 18 40 55t47.5 65.5t43.5 51.5q12 12 25 12t23 -8t10 -20q0 -7 -10 -23.5t-26 -37.5t-30.5 -39.5t-30 -37t-18.5 -22.5q-16 -16 -16 -37q0 -14 16 -48t16 -50
q0 -60 -62.5 -106.5t-119.5 -51.5q-34 -3 -51 -31q-64 -124 -100 -124q-8 0 -13.5 5.5t-5.5 12.5zM262 264q-20 0 -42.5 -56.5t-24.5 -84.5q1 2 22 32.5t38 59.5t17 41q0 8 -10 8zM242 82q32 9 62 31.5t30 48.5q0 16 -19 35q-46 -59 -73 -115z" />
    <glyph glyph-name="ugrave" unicode="&#xf9;" horiz-adv-x="530" 
d="M311 551q24 -17 66.5 -62.5t42.5 -64.5q0 -13 -12 -23t-25 -10q-23 0 -73 52.5t-50 74.5q0 14 12 25.5t25 11.5q10 0 14 -4zM219 344q19 0 30 -12t11 -27q0 -17 -22 -67q-40 -81 -58 -148q-1 -4 -4.5 -15.5t-3.5 -19.5q0 -14 2 -20q35 20 76 65q80 89 151 172
q27 31 45 31q17 0 29 -13t12 -32q0 -18 -24.5 -67t-24.5 -78q0 -41 33 -41q13 0 33 8q22 11 43 24.5t42.5 33.5t34.5 32.5t37 38.5t33 35q30 30 43 30q8 0 8 -14q0 -33 -95 -122.5t-130 -110.5q-37 -21 -67 -21q-39 0 -65.5 32.5t-29.5 74.5q0 2 1 9.5t1 10.5q0 6 -8 14
q-11 -14 -38.5 -50t-43.5 -55.5t-42.5 -45t-51.5 -41.5q-20 -14 -43 -14q-24 0 -37.5 19.5t-13.5 53.5q0 16 1.5 32t3.5 29.5t6.5 31t7 28.5t9.5 30t10 27t11.5 28t11 25.5t12 27t11.5 24.5q19 47 53 47z" />
    <glyph glyph-name="uacute" unicode="&#xfa;" horiz-adv-x="530" 
d="M344 395q-33 0 -33 27q0 26 25 47q90 79 96 84q22 18 43 18q11 0 23 -10.5t12 -23.5q0 -22 -61.5 -73t-94.5 -69h-10zM219 344q19 0 30 -12t11 -27q0 -17 -22 -67q-40 -81 -58 -148q-1 -4 -4.5 -15.5t-3.5 -19.5q0 -14 2 -20q35 20 76 65q80 89 151 172q27 31 45 31
q17 0 29 -13t12 -32q0 -18 -24.5 -67t-24.5 -78q0 -41 33 -41q13 0 33 8q22 11 43 24.5t42.5 33.5t34.5 32.5t37 38.5t33 35q30 30 43 30q8 0 8 -14q0 -33 -95 -122.5t-130 -110.5q-37 -21 -67 -21q-39 0 -65.5 32.5t-29.5 74.5q0 2 1 9.5t1 10.5q0 6 -8 14
q-11 -14 -38.5 -50t-43.5 -55.5t-42.5 -45t-51.5 -41.5q-20 -14 -43 -14q-24 0 -37.5 19.5t-13.5 53.5q0 16 1.5 32t3.5 29.5t6.5 31t7 28.5t9.5 30t10 27t11.5 28t11 25.5t12 27t11.5 24.5q19 47 53 47z" />
    <glyph glyph-name="ucircumflex" unicode="&#xfb;" horiz-adv-x="530" 
d="M547 602q-11 0 -19.5 5.5t-14.5 17t-10 20.5t-9 24.5t-7 20.5q-31 -27 -61 -57q-30 -25 -43 -25q-14 0 -26.5 14.5t-2.5 26.5q25 36 77 92t75 56q27 0 49.5 -64.5t22.5 -99.5q0 -14 -9 -22.5t-22 -8.5zM219 344q19 0 30 -12t11 -27q0 -17 -22 -67q-40 -81 -58 -148
q-1 -4 -4.5 -15.5t-3.5 -19.5q0 -14 2 -20q35 20 76 65q80 89 151 172q27 31 45 31q17 0 29 -13t12 -32q0 -18 -24.5 -67t-24.5 -78q0 -41 33 -41q13 0 33 8q22 11 43 24.5t42.5 33.5t34.5 32.5t37 38.5t33 35q30 30 43 30q8 0 8 -14q0 -33 -95 -122.5t-130 -110.5
q-37 -21 -67 -21q-39 0 -65.5 32.5t-29.5 74.5q0 2 1 9.5t1 10.5q0 6 -8 14q-11 -14 -38.5 -50t-43.5 -55.5t-42.5 -45t-51.5 -41.5q-20 -14 -43 -14q-24 0 -37.5 19.5t-13.5 53.5q0 16 1.5 32t3.5 29.5t6.5 31t7 28.5t9.5 30t10 27t11.5 28t11 25.5t12 27t11.5 24.5
q19 47 53 47z" />
    <glyph glyph-name="udieresis" unicode="&#xfc;" horiz-adv-x="530" 
d="M289 750q21 0 39 -22.5t18 -45.5q0 -30 -19.5 -54t-45.5 -24q-24 0 -38 18.5t-14 41.5q0 32 18 59t42 27zM514 750q21 0 39 -22.5t18 -45.5q0 -30 -19.5 -54t-45.5 -24q-24 0 -37.5 18.5t-13.5 41.5q0 32 17.5 59t41.5 27zM219 344q19 0 30 -12t11 -27q0 -17 -22 -67
q-40 -81 -58 -148q-1 -4 -4.5 -15.5t-3.5 -19.5q0 -14 2 -20q35 20 76 65q80 89 151 172q27 31 45 31q17 0 29 -13t12 -32q0 -18 -24.5 -67t-24.5 -78q0 -41 33 -41q13 0 33 8q22 11 43 24.5t42.5 33.5t34.5 32.5t37 38.5t33 35q30 30 43 30q8 0 8 -14q0 -33 -95 -122.5
t-130 -110.5q-37 -21 -67 -21q-39 0 -65.5 32.5t-29.5 74.5q0 2 1 9.5t1 10.5q0 6 -8 14q-11 -14 -38.5 -50t-43.5 -55.5t-42.5 -45t-51.5 -41.5q-20 -14 -43 -14q-24 0 -37.5 19.5t-13.5 53.5q0 16 1.5 32t3.5 29.5t6.5 31t7 28.5t9.5 30t10 27t11.5 28t11 25.5t12 27
t11.5 24.5q19 47 53 47z" />
    <glyph glyph-name="yacute" unicode="&#xfd;" horiz-adv-x="530" 
d="M352 418q-33 0 -33 26q0 27 25 48q74 65 96 83q24 19 43 19q11 0 23 -11t12 -24q0 -22 -61.5 -72.5t-94.5 -68.5h-10zM-109 -705q0 34 37 97.5t93.5 134.5t98 119.5t75.5 85.5q5 5 26 27.5t27.5 30t24 28t26 32.5t21 30.5t21 36t15.5 36.5q62 175 76 229q4 12 4 19
q0 4 -4 12q-7 -4 -14.5 -10t-11.5 -10.5t-12.5 -14.5t-10.5 -12q-8 -9 -40 -44.5t-47 -51t-43.5 -38t-55.5 -34.5q-15 -6 -29 -6q-30 0 -49 26t-19 62q0 113 86 221q25 35 54 35q15 0 28 -13.5t13 -27.5q0 -10 -5 -20.5t-14.5 -23t-11.5 -15.5q-56 -80 -64 -166
q29 15 55.5 32.5t56 44.5t43.5 41t48.5 51.5t42.5 45.5q17 20 39 20t35.5 -21t13.5 -53q0 -34 -17 -99.5t-18 -72.5h4q91 88 220 207q8 8 20 8q16 0 16 -16q0 -12 -10 -22q-12 -12 -64 -61.5t-70 -67.5t-60 -63t-63.5 -74.5t-48.5 -73t-46 -86.5q-18 -41 -47.5 -100.5
t-79.5 -147t-98.5 -158.5t-104 -122.5t-96.5 -51.5q-26 0 -46 19t-20 46zM-51 -686q69 31 166 167t112 224q-15 -18 -63 -72.5t-68.5 -79t-54 -69.5t-55 -85.5t-37.5 -84.5z" />
    <glyph glyph-name="ydieresis" unicode="&#xff;" horiz-adv-x="530" 
d="M338 772q21 0 39 -22t18 -45q0 -30 -19.5 -54t-45.5 -24q-24 0 -37.5 18t-13.5 41q0 32 17.5 59t41.5 27zM563 772q21 0 39.5 -22t18.5 -45q0 -30 -20 -54t-46 -24q-24 0 -37.5 18t-13.5 41q0 32 17.5 59t41.5 27zM-109 -705q0 34 37 97.5t93.5 134.5t98 119.5t75.5 85.5
q5 5 26 27.5t27.5 30t24 28t26 32.5t21 30.5t21 36t15.5 36.5q62 175 76 229q4 12 4 19q0 4 -4 12q-7 -4 -14.5 -10t-11.5 -10.5t-12.5 -14.5t-10.5 -12q-8 -9 -40 -44.5t-47 -51t-43.5 -38t-55.5 -34.5q-15 -6 -29 -6q-30 0 -49 26t-19 62q0 113 86 221q25 35 54 35
q15 0 28 -13.5t13 -27.5q0 -10 -5 -20.5t-14.5 -23t-11.5 -15.5q-56 -80 -64 -166q29 15 55.5 32.5t56 44.5t43.5 41t48.5 51.5t42.5 45.5q17 20 39 20t35.5 -21t13.5 -53q0 -34 -17 -99.5t-18 -72.5h4q91 88 220 207q8 8 20 8q16 0 16 -16q0 -12 -10 -22q-12 -12 -64 -61.5
t-70 -67.5t-60 -63t-63.5 -74.5t-48.5 -73t-46 -86.5q-18 -41 -47.5 -100.5t-79.5 -147t-98.5 -158.5t-104 -122.5t-96.5 -51.5q-26 0 -46 19t-20 46zM-51 -686q69 31 166 167t112 224q-15 -18 -63 -72.5t-68.5 -79t-54 -69.5t-55 -85.5t-37.5 -84.5z" />
    <glyph glyph-name="Abreve" unicode="&#x102;" horiz-adv-x="1787" 
d="M1855 1765q35 0 35 -34q0 -5 -3 -26.5t-3 -31.5q0 -24 12 -24q31 0 66 59q1 1 5.5 9t8 12.5t9 11t11.5 9.5t13 3q13 0 20 -10t5 -23q-5 -42 -52.5 -90.5t-91.5 -48.5q-38 0 -61 30.5t-23 78.5q0 29 13 52t36 23zM1430 -385q0 30 20 80q38 84 76 186.5t60 173t60.5 197
t55.5 180.5l6 25q1 5 -1 7.5t-6.5 3.5t-7.5 1.5t-9 0t-7 -0.5q-149 -3 -434 -20t-420 -21q-38 0 -59 -37q-14 -24 -42 -74t-45 -80t-39.5 -73t-39.5 -80q-18 -40 -18 -78l2 -18q0 -53 -23.5 -117t-66.5 -64q-46 0 -46 60q0 59 39 147q7 18 7 27q0 22 -19 41q-40 43 -92 79
t-140.5 84t-109.5 60q-74 41 -74 72q0 16 16.5 29.5t42.5 22.5t45.5 14t37.5 8q186 31 413 41q83 2 108 12q27 10 42 33q190 295 399 534q56 64 131.5 134.5t168.5 142.5t192.5 118.5t177.5 46.5q60 0 97 -35t49 -81t12 -105q0 -26 -9 -100q-7 -64 -18 -127t-31.5 -144
t-29.5 -117t-39.5 -141t-34.5 -120h49q27 0 41 -7t14 -28q0 -6 -1.5 -11t-5 -8.5t-7 -6t-10 -4.5t-11 -3t-13 -1.5t-12.5 -1t-13 -1t-13 -0.5q-19 -1 -23.5 -1t-11.5 -4.5t-9 -10t-7 -21.5q-118 -386 -180 -571q-8 -24 -27 -117t-43 -133q-10 -17 -29 -33t-40 -16t-33 15
t-12 36zM1817 1440q-64 0 -160 -56q-101 -57 -198 -134t-174.5 -155.5t-159 -180.5t-141 -187t-132.5 -197q-10 -14 -8 -22q4 -4 10 -4.5t13 1t10 1.5q63 3 192 11t208 12t191.5 8t208.5 4h19q22 0 32.5 6.5t16.5 27.5q9 34 46.5 164t58 213.5t34.5 167.5q19 108 19 172
q0 148 -86 148zM532 125q21 45 46 92t61 111.5t51 93.5q-37 -2 -128.5 -7.5t-140 -9t-122.5 -12.5t-137 -22q23 -14 76.5 -44.5t82 -47.5t70.5 -43.5t76 -53.5t65 -57z" />
    <glyph glyph-name="abreve" unicode="&#x103;" horiz-adv-x="618" 
d="M383 188q-47 -31 -128 -96t-124 -94q-17 -10 -31 -10q-19 0 -32 14t-13 35q0 24 19 67q17 39 39.5 76.5t53.5 78.5t70.5 66t79.5 25q59 0 101 -48.5t57 -113.5q9 -41 23.5 -59t38.5 -18q41 0 104 38.5t115 81.5q43 43 63 43q15 0 15 -10q0 -18 -19 -37q-1 -1 -21.5 -20
t-30.5 -28t-34 -29.5t-41 -32.5t-42 -28t-45 -25.5t-43.5 -16t-43.5 -6.5q-50 0 -78 37.5t-53 109.5zM178 109q7 5 21.5 14t21.5 14l86 56q24 17 43 28q8 5 8 12q0 10 -16 19.5t-25 9.5q-40 0 -80 -52t-59 -101zM299 618q35 0 35 -34q0 -5 -3 -26.5t-3 -31.5q0 -24 12 -24
q31 0 66 59q1 1 5.5 9t8 12.5t9 11t11.5 9.5t13 3q13 0 19.5 -10t4.5 -23q-5 -42 -52 -90.5t-91 -48.5q-38 0 -61 30.5t-23 78.5q0 29 13 52t36 23z" />
    <glyph glyph-name="Dcroat" unicode="&#x110;" horiz-adv-x="1839" 
d="M1591 1444q-205 0 -449 -73.5t-463 -205t-337 -286.5q-92 -122 -92 -226q0 -67 41 -116q20 -25 20 -39t-10.5 -24.5t-24.5 -10.5q-6 0 -14 4q-42 18 -64 67.5t-22 110.5q0 76 36 154.5t91 143t128.5 126.5t141 105.5t136.5 80.5q109 59 197 98.5t198.5 77.5t230.5 57
t250 19q76 0 148.5 -9t150.5 -34.5t135 -64.5t94 -104.5t37 -149.5q0 -66 -12.5 -128t-40.5 -126t-49 -103t-61 -108q-181 -310 -512 -586q-214 -179 -312 -250q-287 -205 -557 -258q-48 -10 -82 -10q-54 0 -108 26.5t-54 67.5q0 10 3.5 21t8.5 20.5t14 20.5t16.5 19.5
t20 19.5t20.5 17.5t21.5 16.5t19 14t18 13t14.5 10q17 10 24 19t7 26l-4 17v6q0 10 6.5 29t7.5 24q75 274 178 531q-89 -7 -119 -7q-53 0 -53 39q0 41 64 41q47 0 141 6q103 246 217 463q61 116 109 183q32 45 59 45q16 0 27.5 -12.5t11.5 -26.5q0 -19 -12 -47
q-146 -344 -308 -598q162 12 193 18q3 0 19 -0.5t23.5 -1.5t19.5 -4t17 -9.5t5 -15.5q0 -17 -18.5 -26t-40.5 -11q-9 -1 -105 -11.5t-158 -16.5q-4 -4 -4 -8q-116 -281 -198 -564q-2 -4 -2 -22q390 206 837 352q8 2 22.5 7.5t24 9t22.5 6t25 2.5q17 0 31 14q318 318 453 664
q37 95 37 178q0 67 -29 120t-76.5 86.5t-112 56t-130.5 31.5t-138 9zM1489 211h-4q-10 0 -21 -2.5t-17.5 -4.5t-18.5 -7.5t-15 -6.5q-31 -12 -136 -53.5t-145.5 -57.5t-129 -53t-141 -62t-123 -61.5t-130.5 -72.5q-98 -61 -133 -92q-39 -35 -47 -62q26 -26 84 -26
q30 0 102 14q360 81 875 547z" />
    <glyph glyph-name="dcroat" unicode="&#x111;" horiz-adv-x="724" 
d="M915 274q6 0 11.5 -5.5t5.5 -10.5q0 -8 -17 -31q-313 -405 -491 -405q-43 0 -69.5 36.5t-26.5 100.5q0 13 1 26.5t4 28t5 25.5t7.5 27t7.5 24t9 25.5l9 22.5t9.5 23.5t8.5 20.5q14 28 14 49q-99 -102 -194 -184q-4 -3 -19.5 -17t-25 -21t-25.5 -14t-30 -7
q-23 0 -36.5 17.5t-13.5 43.5q0 15 2 23q50 185 199 295q43 32 74 32t80 -37q8 -4 10 -4q24 0 56 47t46 80q1 3 47 109q-98 -4 -120 -4q-58 0 -58 39q0 41 70 41h145q76 153 215 389q75 123 123 123q18 0 32.5 -15.5t14.5 -33.5q0 -9 -3 -20t-6 -18t-9 -20.5t-8 -17.5
q-84 -197 -197 -381q23 0 47 4q5 0 21 -0.5t25.5 -1.5t21.5 -3.5t18 -8.5t6 -15q0 -17 -21 -27t-44 -12q-5 -1 -119 -10q-66 -100 -70 -106q-79 -118 -165 -293.5t-86 -268.5q0 -49 38 -49q46 0 112.5 42t133 106.5t115 117.5t84.5 97q2 2 7 10.5t9.5 12t9.5 3.5zM322 303
q-106 -75 -152 -192l4 -2q35 28 114 100t79 84q0 16 -25 16q-11 0 -20 -6zM848 928q-31 -37 -74 -117.5t-51 -114.5q93 152 125 232z" />
    <glyph glyph-name="Itilde" unicode="&#x128;" horiz-adv-x="1085" 
d="M1341 1620q-42 0 -77 90q-16 -9 -29.5 -22t-28 -30t-24.5 -26q-12 -12 -29 -12q-11 0 -20 8t-9 21q0 7 3.5 15.5t7.5 14.5t10.5 14.5t7.5 10.5q67 88 123 88q45 0 74 -90q9 1 17.5 5t13 8.5t11.5 13t11 12.5q2 2 15.5 18.5t25 25.5t22.5 9q9 0 17 -7.5t8 -17.5
q0 -7 -6 -16q-83 -133 -144 -133zM1294 1315q0 65 -14 93t-63 28q-77 0 -173 -35q-426 -159 -690 -508q-51 -66 -90.5 -146.5t-42.5 -146.5q-3 -49 -35 -49q-39 0 -39 59q0 47 23 113q47 123 138 241t206 212t239.5 168t250.5 124q110 45 206 45q147 0 168 -129q0 -3 6 -84
q-3 -106 -36 -229q-182 -650 -494 -1165q-28 -46 -57.5 -89t-77 -104t-96.5 -98t-88 -37q-20 0 -35 12t-15 31q0 39 74 113q22 24 97.5 100t121 131t78.5 117q83 154 179 372.5t177.5 471t81.5 389.5z" />
    <glyph glyph-name="itilde" unicode="&#x129;" horiz-adv-x="337" 
d="M252 387q16 0 27.5 -13t11.5 -28q0 -13 -10 -33q-63 -114 -82 -169q-11 -34 -17 -68l-2 -6q0 -27 23 -27q37 0 92 39q50 31 128.5 101t100.5 87q4 4 13 4q16 0 16 -16q0 -24 -91.5 -105t-148.5 -124q-27 -19 -38 -26.5t-36.5 -17.5t-50.5 -10q-37 0 -61.5 27t-24.5 72
q3 46 20 98.5t32 84.5t43 83q26 47 55 47zM326 489q-42 0 -78 91q-16 -9 -29.5 -22t-28 -30t-24.5 -26q-13 -13 -29 -13q-11 0 -19.5 8t-8.5 21q0 7 3.5 16t7 14.5t10 14.5t7.5 10q67 89 123 89q44 0 74 -91q9 1 17.5 5t13 8.5t11.5 13t11 12.5q2 2 15.5 18.5t25.5 26
t23 9.5q9 0 16.5 -7.5t7.5 -17.5q0 -7 -6 -16q-83 -134 -143 -134z" />
    <glyph glyph-name="dotlessi" unicode="&#x131;" horiz-adv-x="337" 
d="M252 387q16 0 27.5 -13t11.5 -28q0 -13 -10 -33q-63 -114 -82 -169q-11 -34 -17 -68l-2 -6q0 -27 23 -27q37 0 92 39q50 31 128.5 101t100.5 87q4 4 13 4q16 0 16 -16q0 -24 -91.5 -105t-148.5 -124q-27 -19 -38 -26.5t-36.5 -17.5t-50.5 -10q-37 0 -61.5 27t-24.5 72
q3 46 20 98.5t32 84.5t43 83q26 47 55 47z" />
    <glyph glyph-name="Lslash" unicode="&#x141;" horiz-adv-x="1267" 
d="M1200 -152q0 -33 -65 -79q-193 -140 -408 -140q-162 0 -299 54.5t-276 148.5q-11 8 -27 8q-14 0 -38.5 -10t-37.5 -10q-65 0 -109 57.5t-44 122.5v72q0 13 8.5 20.5t21.5 7.5q12 0 25 -10q21 -21 67 -57l72 -56q24 -18 31 -18q16 0 99 126.5t110 176.5q-16 -5 -39 -13
t-38 -12.5t-24 -7.5q-16 -4 -24 -4q-31 0 -37 31l-2 6q0 35 53 47q14 4 170 58q35 63 154 293t192 352q32 54 58 95t66.5 96t77.5 95.5t87.5 83t101.5 69.5t113.5 44.5t128.5 17.5q111 0 175.5 -62.5t64.5 -172.5q0 -44 -11 -84q-86 -333 -313 -557q-3 -3 -18 -17.5
t-22.5 -21t-22 -16.5t-28 -14.5t-28.5 -4.5q-45 0 -45 35q0 28 21.5 50t61.5 43.5t48 27.5q171 123 277 457q18 56 18 110q0 78 -39 127t-114 49q-206 0 -346 -155q-111 -125 -175 -234q-19 -31 -38 -65t-35.5 -62.5t-37 -67.5t-33.5 -63.5t-35.5 -68.5t-33 -64.5t-34.5 -69
t-32 -65t-34 -69.5t-33 -66q64 18 66 18q40 10 59 10q29 0 29 -22q0 -26 -47 -47q-4 -1 -158 -58q-128 -240 -272 -403q-1 -1 -4 -10q145 -97 278 -156t271 -59q148 0 280 77q11 6 37.5 37t53.5 56.5t48 25.5q12 0 22.5 -10.5t10.5 -22.5zM-47 -25q23 -81 90 -81q2 0 6.5 1
t7.5 1q-16 12 -51 38t-53 41z" />
    <glyph glyph-name="lslash" unicode="&#x142;" horiz-adv-x="423" 
d="M162 256q-20 -4 -25 -4q-33 0 -39 29q-2 4 -2 10t2 11.5t6 9.5t8 7.5t12 7t12.5 5.5t14.5 5t14.5 4t15.5 3.5t14 3.5q40 101 81 187q163 357 308 557q100 137 151 137q25 0 39 -18.5t14 -43.5q0 -30 -28 -106q-128 -314 -422 -668q40 10 57 10q27 0 27 -22q0 -25 -49 -47
l-111 -43q-63 -140 -63 -250q0 -33 34 -33q33 0 60 19q200 128 299 225q22 22 31 22q6 0 13 -7t7 -13q0 -4 -2.5 -8.5t-5 -7.5t-7.5 -7t-7 -6q-77 -73 -275 -225q-62 -47 -115 -47h-4q-102 0 -102 121q0 64 37 182zM705 1108q-60 -57 -177.5 -265t-152.5 -313
q121 166 200 298t130 280z" />
    <glyph glyph-name="OE" unicode="&#x152;" horiz-adv-x="1167" 
d="M1544 1206q-11 -13 -51 -18q-117 -6 -313 -66q-28 -8 -43 -35q-54 -107 -181 -417v-19q2 0 42 9t79.5 15.5t63.5 6.5q35 0 35 -12q0 -21 -61.5 -38t-127 -34t-72.5 -37q-110 -296 -110 -430q0 -88 51 -88q47 0 127 33q8 3 23.5 9t23.5 9l94 35q8 3 23.5 9t23.5 9
q19 9 19 0q0 -31 -155 -98t-197 -67q-107 0 -107 178q0 43 2 63q0 3 3 14t2.5 14.5t-3.5 16.5q-15 -15 -51 -71q-54 -83 -129 -148t-152 -65q-78 0 -132 66t-54 157q0 556 336 926q45 50 106.5 84t122.5 34q91 0 154 -82q18 -24 29.5 -52.5t16 -47t12.5 -64.5q2 -11 3 -16
q68 129 90 170q36 72 68 72q16 0 27 -14q17 -19 47 -11q73 21 194 21l27 2h14q60 0 80 -23zM666 553q0 22 32 33q13 5 41 11.5t44.5 11t33.5 17t23 31.5q4 12 16 49t21 61.5t20 47.5q31 67 31 137q0 83 -41.5 152.5t-110.5 69.5q-74 0 -164 -95q-142 -147 -230.5 -381
t-88.5 -475q0 -63 32.5 -119.5t80.5 -56.5q74 0 172 139q7 10 37 52.5t39.5 57t33.5 51.5t36.5 60t29 56.5t28.5 66.5h-12q-13 0 -38 -8t-34 -8q-11 0 -21.5 11.5t-10.5 27.5z" />
    <glyph glyph-name="oe" unicode="&#x153;" horiz-adv-x="661" 
d="M100 74q0 14 6.5 38t6.5 35q0 20 -23.5 33.5t-28.5 22.5q-12 21 -12 43q0 20 12 41q32 58 94 94.5t136 36.5q95 0 141 -119q115 98 182 98q27 0 50.5 -20t23.5 -53q0 -25 -20 -52q-49 -58 -158 -108q-6 -3 -17.5 -6t-20.5 -7.5t-15 -11.5q18 -47 88 -47q119 0 276 144
q43 43 64 43q18 0 18 -15q0 -10 -8.5 -23.5t-13.5 -17.5q-4 -4 -28.5 -27t-32.5 -29.5t-31.5 -27.5t-36.5 -29.5t-36.5 -24.5t-42 -23.5t-42 -16.5t-47 -12.5t-47.5 -3.5q-113 0 -160 102q-41 -53 -79.5 -86.5t-90.5 -52.5q-16 -4 -21 -4q-33 0 -59.5 25t-26.5 61zM281 346
q-43 0 -93.5 -25.5t-70.5 -58.5q-8 -12 -3 -25.5t21 -13.5q12 0 27.5 20.5t32.5 41t34 20.5q11 0 24 -11t13 -24t-16.5 -35t-18.5 -30q42 -10 64 -10q61 0 61 81q0 31 -20.5 50.5t-54.5 19.5zM621 322q-47 -6 -82.5 -34t-46.5 -65q31 15 49 25t41.5 29.5t38.5 44.5zM174 76
q0 -17 14 -17q19 0 39 13t31 25t29 34q-5 1 -32 6.5t-40 5.5q-41 0 -41 -67z" />
    <glyph glyph-name="Scaron" unicode="&#x160;" horiz-adv-x="1159" 
d="M1102 1806q0 45 37 45q22 0 31 -17t15 -43.5t15 -37.5q20 13 43 44.5t31 39.5q10 10 26 10q29 0 29 -24q0 -32 -61.5 -100t-93.5 -68q-28 0 -50 52.5t-22 98.5zM1198 1520q95 0 153 -54.5t58 -169.5q0 -90 -36.5 -189.5t-99 -193t-124.5 -168.5t-133 -147
q-45 -45 -76 -45q-11 0 -18 9t-7 22q0 25 13 47q108 218 260 370l8 8l8.5 8.5t8.5 7.5t10.5 7t11 4t12.5 2q13 0 17.5 4t9.5 15q57 125 57 229q0 66 -31.5 107t-101.5 41q-109 0 -248 -78t-258 -176q-66 -55 -127 -115.5t-128 -140t-107.5 -164.5t-40.5 -158
q0 -133 143 -192q63 -26 157 -39t174.5 -16t171.5 -20t152 -50q82 -47 82 -117q0 -68 -59 -143t-129 -134q-70 -58 -126 -97t-132 -80t-161.5 -63t-180.5 -24q-154 4 -154 88q0 45 35 80q223 233 469 303q32 8 51 8q47 0 52 -36q2 -14 -8 -27t-27 -14q-61 -8 -118.5 -28
t-116.5 -54t-99 -61t-103 -74q-17 -11 -43 -38t-26 -44q0 -21 63 -21h2q174 0 353 96.5t309 239.5q70 75 70 121q0 25 -19.5 44t-56 29.5t-59 15t-56.5 9.5q-59 9 -170 16.5t-193.5 21t-146.5 42.5q-90 41 -134 112t-44 158q0 130 84 254q274 406 678 596q115 56 225 56z
" />
    <glyph glyph-name="scaron" unicode="&#x161;" horiz-adv-x="268" 
d="M305 786q0 45 37 45q22 0 31 -17t15 -43.5t15 -37.5q20 13 43 44.5t31 39.5q10 10 27 10q28 0 28 -24q0 -32 -61.5 -100t-93.5 -68q-28 0 -50 52.5t-22 98.5zM-63 -80h-11q-32 0 -32 35q0 14 10 23.5t28 9.5h15q63 0 159 47q19 8 24 21t5 38v19q0 177 60 252q31 36 59 36
q20 0 33.5 -15t13.5 -34q0 -21 -12 -44t-27 -34q-26 -23 -33.5 -49t-7.5 -69v-45q18 9 37.5 21t30.5 19.5t34.5 25t30.5 22.5q6 4 42.5 33t58.5 40q4 2 10 2q18 0 18 -16q0 -11 -29.5 -38.5t-75.5 -60.5t-75 -53t-53 -36q-31 -19 -31 -56v-24q0 -64 -25 -119t-67 -55
q-49 0 -141 82q-22 22 -49 22zM137 -43q0 23 -10 31q-15 -7 -47 -23t-49 -24q5 -4 17.5 -13.5t19 -14t16.5 -9t18 -4.5q35 0 35 57z" />
    <glyph glyph-name="Utilde" unicode="&#x168;" horiz-adv-x="974" 
d="M1135 1638q-42 0 -78 91q-16 -9 -29.5 -22t-28 -30t-24.5 -26q-13 -13 -29 -13q-11 0 -19.5 8t-8.5 21q0 7 3.5 16t7 14.5t10 14.5t7.5 10q67 88 123 88q45 0 74 -90q9 1 17.5 5t13 8.5t11.5 13t11 12.5q1 1 15.5 18t26 26t22.5 9q9 0 16.5 -7t7.5 -17q0 -7 -6 -16
q-83 -134 -143 -134zM160 -41q0 44 4 64q23 161 108 464q142 518 375 928q11 21 18 33t21.5 32.5t31 31t34.5 10.5q16 0 27.5 -11t11.5 -30q0 -3 -5 -23q-101 -357 -331 -692q-22 -32 -29 -57q-130 -392 -184 -682q-9 -56 -9 -90q0 -50 14 -83.5t44 -33.5q80 0 280 274
q245 354 539 897q22 42 47 109q45 111 162 334q13 26 39 56t51 30q13 0 28 -14.5t15 -30.5q0 -14 -12 -23q-9 -7 -17 -17.5t-12 -18.5t-10.5 -21.5t-9.5 -20.5q-175 -309 -336 -758q-18 -52 -62.5 -172t-68.5 -190t-57 -174.5t-54.5 -201t-34.5 -193.5q-8 -56 -22 -69
q-8 -7 -19 -7q-32 0 -32 49q0 19 2 27q8 51 17 101t23 107t23 96.5t29 105t28 93t32.5 101.5t30 90.5t33.5 99t31 90.5q4 9 -2 19q-85 -142 -135 -223t-129 -197.5t-153 -208.5q-158 -201 -256 -201q-37 0 -65.5 34t-41 78.5t-12.5 88.5zM604 1145q3 5 10.5 15.5t7 12.5
t-0.5 13q-15 -19 -17 -41z" />
    <glyph glyph-name="utilde" unicode="&#x169;" horiz-adv-x="530" 
d="M219 344q19 0 30 -12t11 -27q0 -17 -22 -67q-40 -81 -58 -148q-1 -4 -4.5 -15.5t-3.5 -19.5q0 -14 2 -20q35 20 76 65q80 89 151 172q27 31 45 31q17 0 29 -13t12 -32q0 -18 -24.5 -67t-24.5 -78q0 -41 33 -41q13 0 33 8q22 11 43 24.5t42.5 33.5t34.5 32.5t37 38.5
t33 35q30 30 43 30q8 0 8 -14q0 -33 -95 -122.5t-130 -110.5q-37 -21 -67 -21q-39 0 -65.5 32.5t-29.5 74.5q0 2 1 9.5t1 10.5q0 6 -8 14q-11 -14 -38.5 -50t-43.5 -55.5t-42.5 -45t-51.5 -41.5q-20 -14 -43 -14q-24 0 -37.5 19.5t-13.5 53.5q0 16 1.5 32t3.5 29.5t6.5 31
t7 28.5t9.5 30t10 27t11.5 28t11 25.5t12 27t11.5 24.5q19 47 53 47zM422 449q-43 0 -78 90q-16 -9 -29.5 -22t-28 -30t-24.5 -26q-12 -12 -29 -12q-11 0 -19.5 7.5t-8.5 20.5q0 7 3.5 16t7 14.5t10 14.5t7.5 10q67 89 123 89q44 0 74 -91q9 1 17.5 5t13 8.5t11.5 13
t11 12.5q2 2 15.5 18.5t25.5 26t23 9.5q9 0 16.5 -7.5t7.5 -17.5q0 -7 -6 -16q-83 -133 -143 -133z" />
    <glyph glyph-name="Ydieresis" unicode="&#x178;" horiz-adv-x="1171" 
d="M1094 1812q21 0 39 -22t18 -45q0 -30 -20 -54t-46 -24q-24 0 -37.5 18t-13.5 41q0 32 18 59t42 27zM1319 1812q21 0 39 -22t18 -45q0 -30 -19.5 -54t-45.5 -24q-24 0 -37.5 18t-13.5 41q0 32 17.5 59t41.5 27zM307 166q-78 0 -78 110q0 49 19 123q129 533 377 928
q27 43 38.5 60t37 49t49.5 51q20 14 38 14t28.5 -13t10.5 -34q0 -12 -2 -18q-22 -75 -67.5 -153.5t-90 -136.5t-95 -136t-78.5 -146q-44 -106 -69 -175t-51.5 -172t-35.5 -202v-20q0 -33 8 -49q8 -1 16.5 1.5t13.5 5.5t14 9t13 8q176 104 320 242q409 393 690 793
q57 82 72 125q8 20 39.5 61t52.5 41q22 0 22 -35q0 -23 -8 -43q-10 -21 -57.5 -96.5t-63.5 -124.5q-17 -53 -49.5 -163.5t-60 -195.5t-57.5 -161q-59 -153 -111.5 -270.5t-122 -248.5t-152.5 -242.5t-178 -199.5q-153 -141 -360 -141q-76 0 -180 70q-27 20 -27 53
q0 41 39 41q45 0 76 -39q33 -41 90 -41q93 0 178 38.5t150 104.5q164 167 270 352q245 435 393 916q0 6 2 22q-388 -486 -719 -759q-251 -203 -344 -203z" />
    <glyph glyph-name="Zcaron" unicode="&#x17d;" horiz-adv-x="1210" 
d="M1163 1806q0 45 37 45q22 0 31.5 -17t15.5 -43.5t15 -37.5q20 13 42 44t31 40q10 10 27 10q29 0 29 -24q0 -32 -62 -100t-94 -68q-28 0 -50 52.5t-22 98.5zM367 762q-26 0 -42 26.5t-16 59.5q0 42 17.5 85t34 66.5t47.5 63.5q151 188 410.5 317t498.5 129
q88 0 144.5 -34.5t56.5 -100.5q0 -48 -19 -88.5t-53 -85.5q-59 -82 -133.5 -159.5t-164 -149t-165.5 -125.5t-180 -123q-33 -19 -41 -33q161 33 237 33q126 0 206.5 -54.5t80.5 -154.5q0 -84 -54.5 -179t-135.5 -176t-184 -160t-191 -133.5t-166 -94.5q-75 -39 -191 -77
t-184 -38q-63 0 -63 43q0 38 75 83.5t179.5 81t187 59.5t123.5 32q38 6 68 27q65 43 133.5 98.5t146 130t127 155.5t49.5 148q0 63 -57.5 95t-142.5 32q-252 0 -500 -143q-5 -3 -18.5 -12.5t-25 -15t-22.5 -5.5q-12 0 -22 9.5t-10 21.5q0 9 5.5 17.5t11.5 13.5t15.5 12.5
t12.5 9.5q81 67 196 149t210 148.5t196 144.5t191 169t157 188q41 59 41 104q0 70 -121 70q-52 0 -129 -15q-363 -72 -627 -307q-61 -55 -116.5 -132.5t-55.5 -137.5q0 -8 2 -12l4 -29q2 -4 2 -12q0 -16 -10.5 -25.5t-25.5 -9.5z" />
    <glyph glyph-name="zcaron" unicode="&#x17e;" horiz-adv-x="512" 
d="M387 786q0 45 37 45q22 0 31 -17t15 -43.5t15 -37.5q20 13 43 44.5t31 39.5q10 10 27 10q28 0 28 -24q0 -32 -61.5 -100t-93.5 -68q-28 0 -50 52.5t-22 98.5zM293 47q-11 0 -52 -12t-59 -12q-24 0 -24 20q0 5 2 10t7 9.5t9 8t10.5 7.5t10 6t9.5 5l7 3q93 49 156 139
q4 8 4 11q0 6 -2 10q-16 4 -25 4q-17 0 -50 -6t-48 -6q-98 0 -98 73q0 34 25 80.5t58 46.5q18 0 32 -14.5t14 -30.5q0 -14 -10.5 -41t-10.5 -39q6 -4 18 -4q10 0 34.5 4.5t33.5 4.5q45 0 76 -17.5t31 -48.5q0 -53 -78 -111q-41 -25 -49 -38q3 -1 17 -6.5t19 -8t15 -8
t16.5 -11.5t11.5 -14q9 -12 17 -12t22 14q152 133 236 195q20 16 33 16q16 0 16 -12q0 -9 -9 -22t-16 -19q-50 -37 -138.5 -116t-100.5 -89q-21 -16 -21 -41q0 -4 1 -18t1 -23q0 -63 -28 -127q-114 -257 -307 -397q-101 -72 -185 -72q-32 0 -51.5 18.5t-19.5 47.5
q0 14 2.5 27.5t9 27.5t11.5 23.5t16 25t15 21t17 21.5t15 18q131 162 368 377q2 2 13.5 10.5t18 14.5t13 15.5t6.5 18.5q0 20 -21 31.5t-44 11.5zM367 -66q-43 -39 -105.5 -98t-151.5 -148.5t-149.5 -165t-60.5 -106.5q0 -18 16 -18q4 0 16 4q78 19 152 80
q88 76 185.5 214.5t97.5 227.5v10z" />
    <glyph glyph-name="Ohorn" unicode="&#x1a0;" horiz-adv-x="1660" 
d="M1862 1012q0 -118 -50 -303q-54 -204 -139.5 -387.5t-213.5 -347.5t-279 -265q-128 -84 -267 -84q-92 0 -162.5 39t-111 104.5t-60.5 144t-20 165.5q0 230 88 503t217 488q2 3 5 7t4.5 7t3 7t0.5 8q-10 5 -31 -8q-82 -45 -168.5 -103.5t-182 -140.5t-168.5 -167
t-121 -186t-48 -194q0 -36 16 -55.5t57 -32.5q181 -59 181 -139q0 -14 -11 -23.5t-28 -9.5q-11 0 -17 2q-260 68 -260 278q0 112 59 232t151.5 222t208.5 194.5t228 159t211 106.5q30 11 54 41q23 29 56 64.5t78 78.5t90.5 71t76.5 28q19 0 34 -12.5t15 -30.5
q0 -12 -10 -24.5t-27 -18.5q-28 -9 -58.5 -28t-48 -33t-49.5 -42q-14 -11 -16 -24q188 36 307 36q247 0 344 -120q39 43 39 61q0 8 -1 29.5t-1 36.5q0 84 59 84q28 0 43 -22t15 -60q0 -37 -40.5 -94t-80.5 -91q29 -66 29 -151zM637 102q0 -82 15 -152t46 -128t85.5 -91.5
t127.5 -33.5q117 0 230 76q220 150 376 426t232 596q33 149 33 219q0 95 -34.5 146t-117.5 79q-76 25 -176 25q-168 0 -367 -70q-54 -18 -88 -66q-218 -321 -307 -684q-55 -214 -55 -342zM262 145q21 -31 74 -45q-40 40 -74 45z" />
    <glyph glyph-name="ohorn" unicode="&#x1a1;" 
d="M49 72q0 57 36.5 131t80.5 114q46 43 78 43q34 0 84 -59q22 26 22 39q0 7 -1 26t-1 31q0 72 51 72q24 0 37 -19t13 -51q0 -27 -25.5 -66.5t-58.5 -72.5q49 -43 110 -43q35 0 64 10q2 1 51 24t67 23q17 0 17 -12q0 -32 -87 -69t-130 -37t-133 37q-88 -203 -191 -203
q-36 0 -60 24.5t-24 57.5zM139 68q34 12 55.5 36.5t43.5 63.5l9 18t10 20.5t6 18t3 21.5q0 9 -8 33q-46 -23 -82 -86t-37 -125z" />
    <glyph glyph-name="Uhorn" unicode="&#x1af;" horiz-adv-x="974" 
d="M160 -41q0 44 4 64q23 161 108 464q142 518 375 928q11 21 18 33t21.5 32.5t31 31t34.5 10.5q16 0 27.5 -11t11.5 -30q0 -3 -5 -23q-101 -357 -331 -692q-22 -32 -29 -57q-130 -392 -184 -682q-9 -56 -9 -90q0 -50 14 -83.5t44 -33.5q80 0 280 274q245 354 539 897
q22 42 47 109q45 111 162 334q13 26 39 56t51 30q4 0 12 -4q29 37 29 51q0 8 -1 29t-1 36q0 84 59 84q28 0 43 -22t15 -60q0 -42 -52 -109t-90 -89q-7 -8 -12.5 -18.5t-11 -24t-8.5 -19.5q-175 -309 -336 -758q-18 -52 -62.5 -172t-68.5 -190t-57 -174.5t-54.5 -201
t-34.5 -193.5q-8 -56 -22 -69q-8 -7 -19 -7q-32 0 -32 49q0 19 2 27q8 51 17 101t23 107t23 96.5t29 105t28 93t32.5 101.5t30 90.5t33.5 99t31 90.5q4 9 -2 19q-85 -142 -135 -223t-129 -197.5t-153 -208.5q-158 -201 -256 -201q-37 0 -65.5 34t-41 78.5t-12.5 88.5z
M604 1145q3 5 10.5 15.5t7 12.5t-0.5 13q-15 -19 -17 -41z" />
    <glyph glyph-name="uhorn" unicode="&#x1b0;" horiz-adv-x="530" 
d="M219 344q19 0 30 -12t11 -27q0 -17 -22 -67q-40 -81 -58 -148q-1 -4 -4.5 -15.5t-3.5 -19.5q0 -14 2 -20q35 20 76 65q80 89 151 172q27 31 45 31q12 0 21 -6q27 27 27 43q0 7 -1 26t-1 31q0 72 51 72q24 0 36.5 -19t12.5 -51t-36.5 -82t-72.5 -79q-2 -7 -23.5 -52
t-21.5 -73q0 -41 33 -41q13 0 33 8q22 11 43 24.5t42.5 33.5t34.5 32.5t37 38.5t33 35q30 30 43 30q8 0 8 -14q0 -33 -95 -122.5t-130 -110.5q-37 -21 -67 -21q-39 0 -65.5 32.5t-29.5 74.5q0 2 1 9.5t1 10.5q0 6 -8 14q-11 -14 -38.5 -50t-43.5 -55.5t-42.5 -45
t-51.5 -41.5q-20 -14 -43 -14q-24 0 -37.5 19.5t-13.5 53.5q0 16 1.5 32t3.5 29.5t6.5 31t7 28.5t9.5 30t10 27t11.5 28t11 25.5t12 27t11.5 24.5q19 47 53 47z" />
    <glyph glyph-name="circumflex" unicode="&#x2c6;" horiz-adv-x="376" 
d="M598 885q-11 0 -19 5.5t-14.5 17t-10 21t-8.5 24t-7 20.5q-31 -27 -62 -58q-29 -24 -43 -24t-26 14.5t-2 26.5q25 36 76.5 91.5t74.5 55.5q27 0 49.5 -64.5t22.5 -99.5q0 -14 -9 -22t-22 -8z" />
    <glyph glyph-name="caron" unicode="&#x2c7;" horiz-adv-x="372" 
d="M424 1026q0 45 37 45q22 0 31 -17t15 -43.5t15 -37.5q20 13 43 44.5t31 39.5q10 10 27 10q28 0 28 -25q0 -32 -61.5 -100t-93.5 -68q-28 0 -50 53t-22 99z" />
    <glyph glyph-name="uni02C9" unicode="&#x2c9;" horiz-adv-x="413" 
d="M397 913q0 22 37 30.5t96.5 9.5t71.5 3q4 0 15.5 -0.5t19 -1t16 -2.5t13 -6.5t4.5 -11.5q0 -15 -28 -26t-69.5 -16t-74 -7t-56.5 -2q-21 0 -33 8.5t-12 21.5z" />
    <glyph glyph-name="uni02CA" unicode="&#x2ca;" horiz-adv-x="344" 
d="M430 883q-33 0 -33 26t25 47q90 79 96 84q24 19 43 19q11 0 23 -11t12 -24q0 -22 -61.5 -72.5t-94.5 -68.5h-10z" />
    <glyph glyph-name="uni02CB" unicode="&#x2cb;" horiz-adv-x="317" 
d="M467 1038q24 -17 66 -62.5t42 -64.5q0 -13 -11.5 -22.5t-24.5 -9.5q-23 0 -73 52.5t-50 74.5q0 13 11.5 24.5t25.5 11.5q10 0 14 -4z" />
    <glyph glyph-name="breve" unicode="&#x2d8;" horiz-adv-x="380" 
d="M170 1217q35 0 35 -35q0 -5 -3 -26.5t-3 -31.5q0 -24 12 -24q30 0 65 59l6 9q5 8 8 12.5t9 11t12 9.5t13 3q13 0 19.5 -10t4.5 -23q-5 -42 -52 -90.5t-91 -48.5q-38 0 -61 30.5t-23 78.5q0 29 13 52.5t36 23.5z" />
    <glyph glyph-name="dotaccent" unicode="&#x2d9;" horiz-adv-x="290" 
d="M477 1032q21 0 39.5 -22t18.5 -45q0 -30 -20 -54t-46 -24q-24 0 -37.5 18t-13.5 41q0 32 17.5 59t41.5 27z" />
    <glyph glyph-name="ring" unicode="&#x2da;" horiz-adv-x="344" 
d="M492 1067q41 0 75.5 -32.5t34.5 -69.5q0 -42 -32 -67.5t-72 -25.5q-38 0 -65 21t-27 59q0 42 28 78.5t58 36.5zM508 932q13 0 21 11.5t8 25.5q0 11 -7 20.5t-18 9.5q-10 -3 -21.5 -16.5t-11.5 -26.5q0 -9 10 -16.5t19 -7.5z" />
    <glyph glyph-name="ogonek" unicode="&#x2db;" horiz-adv-x="303" 
d="M170 70q17 0 26 -9.5t9 -23.5q0 -33 -41 -107q-10 -20 -45 -20h-4q-16 0 -36 -7.5t-20 -19.5q0 -10 9 -12t25.5 1t19.5 3q39 0 39 -29q0 -17 -21.5 -26.5t-52.5 -9.5q-38 0 -65 15.5t-27 45.5q0 41 31 71t69 33q16 2 27.5 17.5t16.5 32.5t15.5 31t24.5 14z" />
    <glyph glyph-name="tilde" unicode="&#x2dc;" horiz-adv-x="512" 
d="M621 879q-43 0 -78 90q-16 -9 -29.5 -22t-28 -30t-24.5 -26q-12 -12 -29 -12q-11 0 -20 7.5t-9 20.5q0 7 3.5 16t7.5 14.5t10.5 14.5t7.5 11q67 88 123 88q45 0 74 -90q9 1 17.5 5t13 8.5t11.5 13t11 11.5q2 2 15.5 18.5t25 26t22.5 9.5q9 0 17 -7.5t8 -17.5q0 -7 -6 -16
q-83 -133 -143 -133z" />
    <glyph glyph-name="hungarumlaut" unicode="&#x2dd;" horiz-adv-x="548" 
d="M635 883q-33 0 -33 26t25 47q90 79 96 84q24 19 43 19q11 0 23 -11t12 -24q0 -22 -61.5 -72.5t-94.5 -68.5h-10zM430 883q-33 0 -33 26t25 47q90 79 96 84q24 19 43 19q11 0 23 -11t12 -24q0 -22 -61.5 -72.5t-94.5 -68.5h-10z" />
    <glyph glyph-name="gravecomb" unicode="&#x300;" horiz-adv-x="0" 
d="M152 1038q24 -17 66 -62.5t42 -64.5q0 -13 -12 -22.5t-25 -9.5q-23 0 -73 52.5t-50 74.5q0 13 11.5 24.5t25.5 11.5q11 0 15 -4z" />
    <glyph glyph-name="acutecomb" unicode="&#x301;" horiz-adv-x="0" 
d="M82 883q-33 0 -33 26t25 47q90 79 96 84q24 19 43 19q11 0 23 -11t12 -24q0 -22 -61.5 -72.5t-94.5 -68.5h-10z" />
    <glyph glyph-name="uni0302" unicode="&#x302;" horiz-adv-x="0" 
d="M223 885q-11 0 -19 5.5t-14.5 17t-10 21t-8.5 24t-7 20.5q-31 -27 -62 -58q-29 -24 -43 -24t-26 14.5t-2 26.5q25 36 76.5 91.5t74.5 55.5q27 0 49.5 -64.5t22.5 -99.5q0 -14 -9 -22t-22 -8z" />
    <glyph glyph-name="tildecomb" unicode="&#x303;" horiz-adv-x="0" 
d="M109 879q-43 0 -78 90q-16 -9 -29.5 -22t-28 -30t-24.5 -26q-12 -12 -29 -12q-11 0 -20 7.5t-9 20.5q0 7 3.5 16t7.5 14.5t10.5 14.5t7.5 11q67 88 123 88q45 0 74 -90q9 1 17.5 5t13 8.5t12 13t10.5 11.5q2 2 15.5 18.5t25 26t22.5 9.5q9 0 17 -7.5t8 -17.5q0 -7 -6 -16
q-83 -133 -143 -133z" />
    <glyph glyph-name="uni0304" unicode="&#x304;" horiz-adv-x="0" 
d="M-14 913q0 22 37 30.5t96 9.5t71 3q4 0 15.5 -0.5t19 -1t16 -2.5t13 -6.5t4.5 -11.5q0 -15 -28 -26t-69 -16t-73.5 -7t-56.5 -2q-21 0 -33 8.5t-12 21.5z" />
    <glyph glyph-name="uni0307" unicode="&#x307;" horiz-adv-x="0" 
d="M190 1032q21 0 39.5 -22t18.5 -45q0 -30 -20 -54t-46 -24q-24 0 -37.5 18t-13.5 41q0 32 17.5 59t41.5 27z" />
    <glyph glyph-name="uni0308" unicode="&#x308;" horiz-adv-x="0" 
d="M-35 1032q21 0 39.5 -22t18.5 -45q0 -30 -20 -54t-46 -24q-24 0 -37.5 18t-13.5 41q0 32 17.5 59t41.5 27zM190 1032q21 0 39.5 -22t18.5 -45q0 -30 -20 -54t-46 -24q-24 0 -37.5 18t-13.5 41q0 32 17.5 59t41.5 27z" />
    <glyph glyph-name="uni030A" unicode="&#x30a;" horiz-adv-x="0" 
d="M143 1067q41 0 76 -32.5t35 -69.5q0 -42 -32 -67.5t-72 -25.5q-38 0 -65.5 21t-27.5 59q0 42 28 78.5t58 36.5zM160 932q13 0 20.5 11t7.5 26q0 12 -6.5 21t-17.5 9q-10 -3 -21.5 -16.5t-11.5 -26.5q0 -9 10 -16.5t19 -7.5z" />
    <glyph glyph-name="uni030C" unicode="&#x30c;" horiz-adv-x="0" 
d="M55 1026q0 45 37 45q22 0 31.5 -17t15.5 -43.5t15 -37.5q20 13 42 44t31 40q10 10 27 10q29 0 29 -25q0 -32 -62 -100t-94 -68q-28 0 -50 53t-22 99z" />
    <glyph glyph-name="uni0327" unicode="&#x327;" horiz-adv-x="0" 
d="M-115 -98q0 -41 -45 -70t-100 -29q-43 0 -43 33q0 17 15 25t33.5 8.5t36.5 7t23 21.5q-10 7 -30.5 7t-32.5 5.5t-12 26.5q0 34 18 83.5t43 49.5q13 0 23 -10.5t10 -20.5q0 -8 -6 -26t-6 -25q0 -16 16 -21q57 -20 57 -65z" />
    <glyph glyph-name="uni1EA0" unicode="&#x1ea0;" horiz-adv-x="1787" 
d="M881 -453q18 0 33.5 -19t15.5 -38q0 -26 -17.5 -47t-40.5 -21q-20 0 -31.5 16t-11.5 36q0 27 15.5 50t36.5 23zM1430 -385q0 30 20 80q38 84 76 186.5t60 173t60.5 197t55.5 180.5l6 25q1 5 -1 7.5t-6.5 3.5t-7.5 1.5t-9 0t-7 -0.5q-149 -3 -434 -20t-420 -21
q-38 0 -59 -37q-14 -24 -42 -74t-45 -80t-39.5 -73t-39.5 -80q-18 -40 -18 -78l2 -18q0 -53 -23.5 -117t-66.5 -64q-46 0 -46 60q0 59 39 147q7 18 7 27q0 22 -19 41q-40 43 -92 79t-140.5 84t-109.5 60q-74 41 -74 72q0 16 16.5 29.5t42.5 22.5t45.5 14t37.5 8
q186 31 413 41q83 2 108 12q27 10 42 33q190 295 399 534q56 64 131.5 134.5t168.5 142.5t192.5 118.5t177.5 46.5q60 0 97 -35t49 -81t12 -105q0 -26 -9 -100q-7 -64 -18 -127t-31.5 -144t-29.5 -117t-39.5 -141t-34.5 -120h49q27 0 41 -7t14 -28q0 -6 -1.5 -11t-5 -8.5
t-7 -6t-10 -4.5t-11 -3t-13 -1.5t-12.5 -1t-13 -1t-13 -0.5q-19 -1 -23.5 -1t-11.5 -4.5t-9 -10t-7 -21.5q-118 -386 -180 -571q-8 -24 -27 -117t-43 -133q-10 -17 -29 -33t-40 -16t-33 15t-12 36zM1817 1440q-64 0 -160 -56q-101 -57 -198 -134t-174.5 -155.5t-159 -180.5
t-141 -187t-132.5 -197q-10 -14 -8 -22q4 -4 10 -4.5t13 1t10 1.5q63 3 192 11t208 12t191.5 8t208.5 4h19q22 0 32.5 6.5t16.5 27.5q9 34 46.5 164t58 213.5t34.5 167.5q19 108 19 172q0 148 -86 148zM532 125q21 45 46 92t61 111.5t51 93.5q-37 -2 -128.5 -7.5t-140 -9
t-122.5 -12.5t-137 -22q23 -14 76.5 -44.5t82 -47.5t70.5 -43.5t76 -53.5t65 -57z" />
    <glyph glyph-name="uni1EA1" unicode="&#x1ea1;" horiz-adv-x="618" 
d="M266 -43q18 0 33.5 -19t15.5 -38q0 -27 -17 -47.5t-40 -20.5q-20 0 -31.5 16t-11.5 35q0 27 15 50.5t36 23.5zM383 188q-47 -31 -128 -96t-124 -94q-17 -10 -31 -10q-19 0 -32 14t-13 35q0 24 19 67q17 39 39.5 76.5t53.5 78.5t70.5 66t79.5 25q59 0 101 -48.5t57 -113.5
q9 -41 23.5 -59t38.5 -18q41 0 104 38.5t115 81.5q43 43 63 43q15 0 15 -10q0 -18 -19 -37q-1 -1 -21.5 -20t-30.5 -28t-34 -29.5t-41 -32.5t-42 -28t-45 -25.5t-43.5 -16t-43.5 -6.5q-50 0 -78 37.5t-53 109.5zM178 109q7 5 21.5 14t21.5 14l86 56q24 17 43 28q8 5 8 12
q0 10 -16 19.5t-25 9.5q-40 0 -80 -52t-59 -101z" />
    <glyph glyph-name="uni1EA2" unicode="&#x1ea2;" horiz-adv-x="1787" 
d="M1999 1759q0 -46 -21 -69.5t-57 -36.5h-4q-1 0 -1 -2v-3q1 -12 1 -26q0 -10 -10 -20.5t-23 -10.5q-16 0 -24.5 11t-9.5 22.5t-1 33.5v5q0 16 13 30t27.5 23t24.5 21.5t5 25.5q-5 15 -23 21.5t-37 7t-34 8.5t-15 25q0 33 43 33q55 0 100.5 -29t45.5 -70zM1430 -385
q0 30 20 80q38 84 76 186.5t60 173t60.5 197t55.5 180.5l6 25q1 5 -1 7.5t-6.5 3.5t-7.5 1.5t-9 0t-7 -0.5q-149 -3 -434 -20t-420 -21q-38 0 -59 -37q-14 -24 -42 -74t-45 -80t-39.5 -73t-39.5 -80q-18 -40 -18 -78l2 -18q0 -53 -23.5 -117t-66.5 -64q-46 0 -46 60
q0 59 39 147q7 18 7 27q0 22 -19 41q-40 43 -92 79t-140.5 84t-109.5 60q-74 41 -74 72q0 16 16.5 29.5t42.5 22.5t45.5 14t37.5 8q186 31 413 41q83 2 108 12q27 10 42 33q190 295 399 534q56 64 131.5 134.5t168.5 142.5t192.5 118.5t177.5 46.5q60 0 97 -35t49 -81
t12 -105q0 -26 -9 -100q-7 -64 -18 -127t-31.5 -144t-29.5 -117t-39.5 -141t-34.5 -120h49q27 0 41 -7t14 -28q0 -6 -1.5 -11t-5 -8.5t-7 -6t-10 -4.5t-11 -3t-13 -1.5t-12.5 -1t-13 -1t-13 -0.5q-19 -1 -23.5 -1t-11.5 -4.5t-9 -10t-7 -21.5q-118 -386 -180 -571
q-8 -24 -27 -117t-43 -133q-10 -17 -29 -33t-40 -16t-33 15t-12 36zM1817 1440q-64 0 -160 -56q-101 -57 -198 -134t-174.5 -155.5t-159 -180.5t-141 -187t-132.5 -197q-10 -14 -8 -22q4 -4 10 -4.5t13 1t10 1.5q63 3 192 11t208 12t191.5 8t208.5 4h19q22 0 32.5 6.5
t16.5 27.5q9 34 46.5 164t58 213.5t34.5 167.5q19 108 19 172q0 148 -86 148zM532 125q21 45 46 92t61 111.5t51 93.5q-37 -2 -128.5 -7.5t-140 -9t-122.5 -12.5t-137 -22q23 -14 76.5 -44.5t82 -47.5t70.5 -43.5t76 -53.5t65 -57z" />
    <glyph glyph-name="uni1EA3" unicode="&#x1ea3;" horiz-adv-x="618" 
d="M442 602q0 -46 -21 -69.5t-56 -36.5h-4t-2 -3q0 -1 1 -5v-23q0 -10 -9.5 -20.5t-22.5 -10.5q-16 0 -24.5 11t-9.5 22.5t-1 33.5v5q0 19 20.5 36.5t37.5 32.5t11 31q-5 15 -23 21.5t-36.5 7t-33.5 8.5t-15 25q0 32 43 32q55 0 100 -28.5t45 -69.5zM383 188
q-47 -31 -128 -96t-124 -94q-17 -10 -31 -10q-19 0 -32 14t-13 35q0 24 19 67q17 39 39.5 76.5t53.5 78.5t70.5 66t79.5 25q59 0 101 -48.5t57 -113.5q9 -41 23.5 -59t38.5 -18q41 0 104 38.5t115 81.5q43 43 63 43q15 0 15 -10q0 -18 -19 -37q-1 -1 -21.5 -20t-30.5 -28
t-34 -29.5t-41 -32.5t-42 -28t-45 -25.5t-43.5 -16t-43.5 -6.5q-50 0 -78 37.5t-53 109.5zM178 109q7 5 21.5 14t21.5 14l86 56q24 17 43 28q8 5 8 12q0 10 -16 19.5t-25 9.5q-40 0 -80 -52t-59 -101z" />
    <glyph glyph-name="uni1EA4" unicode="&#x1ea4;" horiz-adv-x="1787" 
d="M2071 1704q-33 0 -33 27t24 47q77 67 97 84q23 18 43 18q11 0 22.5 -11t11.5 -24q0 -22 -61 -72.5t-94 -68.5h-10zM1946 1604q-11 0 -19.5 5.5t-14.5 17t-10 20.5t-9 24.5t-7 20.5q-23 -20 -61 -58q-29 -24 -43 -24t-26.5 14.5t-2.5 26.5q25 36 77 91.5t75 55.5
q27 0 49 -64t22 -100q0 -14 -8.5 -22t-21.5 -8zM1430 -385q0 30 20 80q38 84 76 186.5t60 173t60.5 197t55.5 180.5l6 25q1 5 -1 7.5t-6.5 3.5t-7.5 1.5t-9 0t-7 -0.5q-149 -3 -434 -20t-420 -21q-38 0 -59 -37q-14 -24 -42 -74t-45 -80t-39.5 -73t-39.5 -80
q-18 -40 -18 -78l2 -18q0 -53 -23.5 -117t-66.5 -64q-46 0 -46 60q0 59 39 147q7 18 7 27q0 22 -19 41q-40 43 -92 79t-140.5 84t-109.5 60q-74 41 -74 72q0 16 16.5 29.5t42.5 22.5t45.5 14t37.5 8q186 31 413 41q83 2 108 12q27 10 42 33q190 295 399 534
q56 64 131.5 134.5t168.5 142.5t192.5 118.5t177.5 46.5q60 0 97 -35t49 -81t12 -105q0 -26 -9 -100q-7 -64 -18 -127t-31.5 -144t-29.5 -117t-39.5 -141t-34.5 -120h49q27 0 41 -7t14 -28q0 -6 -1.5 -11t-5 -8.5t-7 -6t-10 -4.5t-11 -3t-13 -1.5t-12.5 -1t-13 -1t-13 -0.5
q-19 -1 -23.5 -1t-11.5 -4.5t-9 -10t-7 -21.5q-118 -386 -180 -571q-8 -24 -27 -117t-43 -133q-10 -17 -29 -33t-40 -16t-33 15t-12 36zM1817 1440q-64 0 -160 -56q-101 -57 -198 -134t-174.5 -155.5t-159 -180.5t-141 -187t-132.5 -197q-10 -14 -8 -22q4 -4 10 -4.5t13 1
t10 1.5q63 3 192 11t208 12t191.5 8t208.5 4h19q22 0 32.5 6.5t16.5 27.5q9 34 46.5 164t58 213.5t34.5 167.5q19 108 19 172q0 148 -86 148zM532 125q21 45 46 92t61 111.5t51 93.5q-37 -2 -128.5 -7.5t-140 -9t-122.5 -12.5t-137 -22q23 -14 76.5 -44.5t82 -47.5
t70.5 -43.5t76 -53.5t65 -57z" />
    <glyph glyph-name="uni1EA5" unicode="&#x1ea5;" horiz-adv-x="618" 
d="M537 541q-33 0 -33 26q0 27 24 47q77 67 97 84q24 19 43 19q11 0 22.5 -11t11.5 -24q0 -22 -61 -72.5t-94 -68.5h-10zM412 440q-11 0 -19.5 5.5t-14.5 17t-10 20.5t-9 24.5t-7 20.5q-31 -27 -61 -57q-30 -25 -43 -25q-14 0 -26.5 14.5t-2.5 26.5q25 36 77 92t75 56
q27 0 49 -64t22 -100q0 -14 -8.5 -22.5t-21.5 -8.5zM383 188q-47 -31 -128 -96t-124 -94q-17 -10 -31 -10q-19 0 -32 14t-13 35q0 24 19 67q17 39 39.5 76.5t53.5 78.5t70.5 66t79.5 25q59 0 101 -48.5t57 -113.5q9 -41 23.5 -59t38.5 -18q41 0 104 38.5t115 81.5
q43 43 63 43q15 0 15 -10q0 -18 -19 -37q-1 -1 -21.5 -20t-30.5 -28t-34 -29.5t-41 -32.5t-42 -28t-45 -25.5t-43.5 -16t-43.5 -6.5q-50 0 -78 37.5t-53 109.5zM178 109q7 5 21.5 14t21.5 14l86 56q24 17 43 28q8 5 8 12q0 10 -16 19.5t-25 9.5q-40 0 -80 -52t-59 -101z" />
    <glyph glyph-name="uni1EA6" unicode="&#x1ea6;" horiz-adv-x="1787" 
d="M1997 1939q24 -17 66 -62.5t42 -64.5q0 -13 -12 -22.5t-25 -9.5q-23 0 -72.5 52.5t-49.5 74.5q0 14 11.5 25.5t24.5 11.5q10 0 15 -5zM1946 1604q-11 0 -19.5 5.5t-14.5 17t-10 20.5t-9 24.5t-7 20.5q-23 -20 -61 -58q-29 -24 -43 -24t-26.5 14.5t-2.5 26.5
q25 36 77 91.5t75 55.5q27 0 49 -64t22 -100q0 -14 -8.5 -22t-21.5 -8zM1430 -385q0 30 20 80q38 84 76 186.5t60 173t60.5 197t55.5 180.5l6 25q1 5 -1 7.5t-6.5 3.5t-7.5 1.5t-9 0t-7 -0.5q-149 -3 -434 -20t-420 -21q-38 0 -59 -37q-14 -24 -42 -74t-45 -80t-39.5 -73
t-39.5 -80q-18 -40 -18 -78l2 -18q0 -53 -23.5 -117t-66.5 -64q-46 0 -46 60q0 59 39 147q7 18 7 27q0 22 -19 41q-40 43 -92 79t-140.5 84t-109.5 60q-74 41 -74 72q0 16 16.5 29.5t42.5 22.5t45.5 14t37.5 8q186 31 413 41q83 2 108 12q27 10 42 33q190 295 399 534
q56 64 131.5 134.5t168.5 142.5t192.5 118.5t177.5 46.5q60 0 97 -35t49 -81t12 -105q0 -26 -9 -100q-7 -64 -18 -127t-31.5 -144t-29.5 -117t-39.5 -141t-34.5 -120h49q27 0 41 -7t14 -28q0 -6 -1.5 -11t-5 -8.5t-7 -6t-10 -4.5t-11 -3t-13 -1.5t-12.5 -1t-13 -1t-13 -0.5
q-19 -1 -23.5 -1t-11.5 -4.5t-9 -10t-7 -21.5q-118 -386 -180 -571q-8 -24 -27 -117t-43 -133q-10 -17 -29 -33t-40 -16t-33 15t-12 36zM1817 1440q-64 0 -160 -56q-101 -57 -198 -134t-174.5 -155.5t-159 -180.5t-141 -187t-132.5 -197q-10 -14 -8 -22q4 -4 10 -4.5t13 1
t10 1.5q63 3 192 11t208 12t191.5 8t208.5 4h19q22 0 32.5 6.5t16.5 27.5q9 34 46.5 164t58 213.5t34.5 167.5q19 108 19 172q0 148 -86 148zM532 125q21 45 46 92t61 111.5t51 93.5q-37 -2 -128.5 -7.5t-140 -9t-122.5 -12.5t-137 -22q23 -14 76.5 -44.5t82 -47.5
t70.5 -43.5t76 -53.5t65 -57z" />
    <glyph glyph-name="uni1EA7" unicode="&#x1ea7;" horiz-adv-x="618" 
d="M463 776q24 -17 66 -62.5t42 -64.5q0 -13 -11.5 -23t-24.5 -10q-23 0 -73 52.5t-50 74.5q0 13 12 25t25 12q10 0 14 -4zM412 440q-11 0 -19.5 5.5t-14.5 17t-10 20.5t-9 24.5t-7 20.5q-31 -27 -61 -57q-30 -25 -43 -25q-14 0 -26.5 14.5t-2.5 26.5q25 36 77 92t75 56
q27 0 49 -64t22 -100q0 -14 -8.5 -22.5t-21.5 -8.5zM383 188q-47 -31 -128 -96t-124 -94q-17 -10 -31 -10q-19 0 -32 14t-13 35q0 24 19 67q17 39 39.5 76.5t53.5 78.5t70.5 66t79.5 25q59 0 101 -48.5t57 -113.5q9 -41 23.5 -59t38.5 -18q41 0 104 38.5t115 81.5
q43 43 63 43q15 0 15 -10q0 -18 -19 -37q-1 -1 -21.5 -20t-30.5 -28t-34 -29.5t-41 -32.5t-42 -28t-45 -25.5t-43.5 -16t-43.5 -6.5q-50 0 -78 37.5t-53 109.5zM178 109q7 5 21.5 14t21.5 14l86 56q24 17 43 28q8 5 8 12q0 10 -16 19.5t-25 9.5q-40 0 -80 -52t-59 -101z" />
    </font>
</defs>
</svg>
